<?xml version="1.0" encoding="UTF-8" standalone="no"?>
<!-- Created with Inkscape (http://www.inkscape.org/) -->

<svg
   inkscape:version="1.4 (e7c3feb1, 2024-10-09)"
   sodipodi:docname="add-chairman.svg"
   version="1.1"
   id="svg1"
   width="500"
   height="500"
   viewBox="0 0 500 500"
   xmlns:inkscape="http://www.inkscape.org/namespaces/inkscape"
   xmlns:sodipodi="http://sodipodi.sourceforge.net/DTD/sodipodi-0.dtd"
   xmlns="http://www.w3.org/2000/svg"
   xmlns:svg="http://www.w3.org/2000/svg">
  <sodipodi:namedview
     inkscape:zoom="1.1826981"
     inkscape:cx="13.528389"
     inkscape:cy="-23.251918"
     inkscape:window-width="1440"
     inkscape:window-height="872"
     inkscape:window-x="0"
     inkscape:window-y="28"
     inkscape:window-maximized="0"
     id="namedview1"
     pagecolor="#ffffff"
     bordercolor="#000000"
     borderopacity="0.25"
     inkscape:showpageshadow="2"
     inkscape:pageopacity="0.0"
     inkscape:pagecheckerboard="0"
     inkscape:deskcolor="#d1d1d1"
     inkscape:current-layer="svg1" />
  <defs
     id="defs1" />
  <path
     d="m 411.80239,494.45294 c -2.44233,0 -4.88465,-1.22116 -7.32698,-3.66349 -1.83174,-1.83175 -2.74761,-3.96878 -2.74761,-6.4111 0,-1.83175 0.61058,-3.66349 1.83174,-5.49523 l 60.44755,-82.42848 H 131.54558 l 60.44754,82.42848 c 1.22117,1.83174 1.83175,3.66348 1.83175,5.49523 0,3.0529 -1.52646,5.80051 -4.57937,8.24284 -1.83173,1.22117 -3.66347,1.83175 -5.49522,1.83175 -3.66349,0 -6.41111,-1.52645 -8.24285,-4.57936 l -70.52214,-97.08243 c -1.22116,-1.83175 -1.83174,-3.96878 -1.83174,-6.4111 0,-1.22116 0.30529,-2.74761 0.91587,-4.57936 1.22117,-3.05291 3.66349,-4.57936 7.32698,-4.57936 h 371.84401 c 3.66348,0 6.41109,1.52645 8.24284,4.57936 0.61058,1.83175 0.91587,3.3582 0.91587,4.57936 0,2.44232 -0.61058,4.57935 -1.83174,6.4111 l -70.52215,97.08243 c -2.44232,3.05291 -5.18993,4.57936 -8.24284,4.57936 z M 297.3184,357.07214 c -2.44233,0 -4.88465,-0.91587 -7.32698,-2.74761 -1.83175,-1.83174 -2.74762,-3.96877 -2.74762,-6.4111 v -65.02691 c 0,-2.44233 0.91587,-4.57936 2.74762,-6.41111 2.44233,-1.83174 4.88465,-2.74761 7.32698,-2.74761 2.44233,0 4.57936,0.91587 6.4111,2.74761 2.44233,1.83175 3.66349,3.96878 3.66349,6.41111 v 65.02691 c 0,1.22116 -0.30529,2.44232 -0.91588,3.66349 -0.61058,1.22116 -1.52645,2.44232 -2.74761,3.66348 -0.61058,0.61058 -1.52645,1.22116 -2.74761,1.83174 z m 133.7173,-3.66348 c -1.83174,1.83174 -4.27407,2.74761 -7.32698,2.74761 -2.44233,0 -4.57936,-0.91587 -6.41109,-2.74761 -1.83175,-1.83174 -2.74762,-4.27407 -2.74762,-7.32698 v -47.62534 l -90.67133,-46.70946 c -3.05291,-1.83175 -4.57936,-4.57937 -4.57936,-8.24286 v -22.89679 c 0,-1.83175 0.30529,-3.66349 0.91587,-5.49523 l 29.30791,-42.13011 v -54.95232 c -4.88465,-8.54814 -12.51692,-16.18041 -22.8968,-22.8968 -9.7693,-6.716394 -19.5386,-10.379882 -29.3079,-10.990463 -9.7693,0.610581 -19.84389,4.274069 -30.22377,10.990463 -9.7693,6.71639 -17.09628,14.34866 -21.98093,22.8968 v 54.95232 l 29.3079,41.21423 c 0.61058,1.83175 0.91587,3.66349 0.91587,5.49524 v 22.89679 c 0,3.66349 -1.52645,6.41111 -4.57936,8.24285 l -90.67132,47.62534 v 48.54122 c 0,2.44233 -0.91587,4.88465 -2.74762,7.32697 -1.83175,1.83174 -4.27407,2.74761 -7.32697,2.74761 -2.44233,0 -4.57936,-0.91587 -6.41111,-2.74761 -1.83174,-2.44232 -2.74761,-4.88464 -2.74761,-7.32697 v -54.95232 c 0,-4.27407 1.52645,-7.32697 4.57936,-9.15872 l 90.67132,-46.70947 v -12.82221 l -28.39203,-42.13011 c -1.22117,-1.22116 -1.83175,-3.0529 -1.83175,-5.49523 v -60.44755 c 0,-1.83174 0.30529,-3.35819 0.91588,-4.57936 1.83174,-3.66349 4.57936,-8.24285 8.24285,-13.738076 4.27407,-5.495231 12.21162,-12.211626 23.81266,-20.149183 12.21163,-8.548138 25.03384,-12.822207 38.46663,-12.822207 28.08673,0 51.28882,15.569822 69.60627,46.709466 1.22116,1.22117 1.83174,2.74762 1.83174,4.57936 v 60.44755 c 0,1.83175 -0.61058,3.66349 -1.83174,5.49523 l -28.39204,42.13011 v 12.82221 l 90.67133,46.70947 c 3.05291,1.83175 4.57936,4.88465 4.57936,9.15872 v 54.03644 c 0,3.05291 -0.91587,5.49524 -2.74762,7.32698 z"
     id="text1"
     style="stroke-width:0.937853"
     aria-label=""
     sodipodi:nodetypes="sssccccscsccscsscsccsscsscscsssscsssssccsscccccccccssccscscssccccsssccscssccccsss" />
  <path
     d="m 83.860753,158.68771 c -2.44233,0 -4.88465,-0.91587 -7.326979,-2.74761 -1.83175,-1.83174 -2.74762,-3.96877 -2.74762,-6.4111 V 15.927442 c 0,-2.44233 0.91587,-4.57936 2.74762,-6.4111103 2.442329,-1.83174 4.884649,-2.74761 7.326979,-2.74761 2.44233,0 4.57936,0.91587 6.4111,2.74761 2.44233,1.8317503 3.66349,3.9687803 3.66349,6.4111103 V 149.529 c 0,1.22116 -0.30529,2.44232 -0.91588,3.66349 -0.61058,1.22116 -1.52645,2.44232 -2.74761,3.66348 -0.61058,0.61058 -1.52645,1.22116 -2.74761,1.83174 z"
     style="stroke-width:0.937853"
     id="path1"
     sodipodi:nodetypes="scsscscsssscs" />
  <path
     d="m 8.6680459,83.211676 c 0,-2.442331 0.91587,-4.884661 2.7476101,-7.326991 1.83174,-1.83175 3.96877,-2.74761 6.4111,-2.74761 H 151.42831 c 2.44233,0 4.57936,0.91586 6.41111,2.74761 1.83174,2.44233 2.74761,4.88465 2.74761,7.326991 0,2.44233 -0.91587,4.57935 -2.74761,6.41109 -1.83175,2.44233 -3.96878,3.6635 -6.41111,3.6635 H 17.826756 c -1.22116,0 -2.44232,-0.3053 -3.66349,-0.91589 -1.22116,-0.61058 -2.44232,-1.52644 -3.66348,-2.74761 -0.6105801,-0.61058 -1.2211601,-1.52645 -1.8317401,-2.7476 z"
     style="stroke-width:0.937853"
     id="path1-0"
     sodipodi:nodetypes="scsscscsssscs" />
</svg>
