<?xml version="1.0" encoding="UTF-8" standalone="no"?>
<!-- Created with Inkscape (http://www.inkscape.org/) -->

<svg
   sodipodi:docname="baptise.svg"
   width="512"
   height="512"
   viewBox="0 0 512 512"
   version="1.1"
   id="svg1"
   inkscape:version="1.4 (e7c3feb1, 2024-10-09)"
   xmlns:inkscape="http://www.inkscape.org/namespaces/inkscape"
   xmlns:sodipodi="http://sodipodi.sourceforge.net/DTD/sodipodi-0.dtd"
   xmlns="http://www.w3.org/2000/svg"
   xmlns:svg="http://www.w3.org/2000/svg">
  <sodipodi:namedview
     inkscape:zoom="0.94980723"
     inkscape:cx="331.11982"
     inkscape:cy="301.64015"
     inkscape:window-width="1440"
     inkscape:window-height="900"
     inkscape:window-x="0"
     inkscape:window-y="0"
     inkscape:window-maximized="0"
     id="namedview1"
     pagecolor="#ffffff"
     bordercolor="#000000"
     borderopacity="0.25"
     inkscape:showpageshadow="2"
     inkscape:pageopacity="0.0"
     inkscape:pagecheckerboard="0"
     inkscape:deskcolor="#d1d1d1" />
  <defs
     id="defs1" />
  <g
     id="g1">
    <path
       d="m 505.98085,430.80608 q 0,0.97657 0,1.95313 0,8.78906 -7.8125,10.74219 -10.74219,2.92968 -22.46094,2.92968 -10.74219,0 -21.48437,-2.92968 l -51.75782,-14.64844 -50.78125,14.64844 q -10.74218,2.92968 -22.46093,2.92968 -10.74219,0 -20.50782,-2.92968 L 256.95741,428.85296 205.1996,443.5014 q -10.74219,2.92968 -22.46094,2.92968 -10.74219,0 -21.48437,-2.92968 l -50.78125,-14.64844 -52.734381,15.625 q -10.742187,2.92969 -22.460937,2.92969 -10.742188,0 -21.484375,-2.92969 -7.8125002,-1.95313 -7.8125002,-10.74219 0,-3.90625 2.9296868,-6.83594 2.9296884,-3.90625 7.8125004,-3.90625 0.976563,0 2.929688,0.97657 7.8125,1.95312 15.625,1.95312 8.789062,0 16.601562,-1.95312 l 26.367188,-7.8125 v -45.89844 l -15.625,7.8125 q -1.953125,0.97656 -3.90625,0.97656 h -0.976563 q -2.929687,0 -4.882812,-1.95312 -4.882813,-2.92969 -4.882813,-8.78907 V 246.23577 q 0,-6.83594 5.859375,-9.76562 l 71.289061,-36.13282 v -9.76562 l -15.625,-31.25 q -1.95312,-1.95313 -1.95312,-4.88281 v -50.78125 q 0,-0.97657 0,-1.95313 0,-0.97656 0,-0.97656 6.83594,-17.578124 23.4375,-29.296874 17.57812,-12.695312 36.13281,-12.695312 0.97656,0 1.95313,0 1.95312,0 2.92968,0 18.55469,0 35.15625,12.695312 17.57813,11.71875 23.4375,29.296874 0,0.97656 0,1.95312 0,0 0,0.97657 v 50.78125 q 0,2.92968 -1.95312,4.88281 l -19.53125,31.25 v 9.76562 l 36.13281,17.57813 34.17969,-17.57813 v -9.76562 l -16.60156,-31.25 q 0,-0.97656 0,-1.95313 0,-1.95312 0,-2.92968 v -50.78125 q 0,-0.97657 0,-0.97657 0,-0.97656 0,-1.95312 5.85937,-17.578124 23.4375,-29.296874 17.57812,-12.695312 36.13281,-12.695312 0.97656,0 1.95312,0 0.97657,0 1.95313,0 17.57812,0 35.15625,12.695312 17.57812,11.71875 23.4375,29.296874 0,0.97656 0,1.95312 0,0 0,0.97657 v 50.78125 q 0,2.92968 -1.95313,4.88281 l -18.55468,31.25 v 9.76562 l 73.24218,36.13282 q 5.85938,2.92968 5.85938,9.76562 V 373.1889 q 0,7.8125 -6.83594,9.76562 -0.97656,0 -1.95312,0 -0.97657,0 -1.95313,0 -4.88281,0 -7.8125,-3.90625 l -53.71094,-70.3125 -117.1875,52.73438 v 46.875 q 0.97657,-0.97657 1.95313,-0.97657 1.95312,0 2.92969,0.97657 l 54.6875,14.64843 q 7.8125,2.92969 15.625,2.92969 8.78906,0 16.60156,-2.92969 l 45.89844,-12.69531 v -35.15625 q 0,-3.90625 2.92968,-6.83594 3.90625,-2.92968 7.8125,-2.92968 3.90625,0 6.83594,2.92968 3.90625,2.92969 3.90625,6.83594 v 34.17969 l 46.875,13.67187 q 8.78906,2.92969 16.60156,2.92969 8.78907,0 16.60157,-2.92969 0.97656,0 2.92968,0 7.8125,0 9.76563,7.8125 z m -210.9375,-214.84375 -72.26563,36.13282 v 100.58593 l 135.74219,-59.57031 -44.92187,-59.57031 q -1.95313,-2.92969 -1.95313,-5.85938 V 185.6889 q 0,-3.90625 2.92969,-6.83594 2.92969,-3.90625 6.83594,-3.90625 4.88281,0 7.8125,3.90625 3.90625,2.92969 3.90625,6.83594 v 38.08593 L 422.97304,341.9389 V 252.09515 L 348.75429,216.9389 q -5.85938,-2.92969 -5.85938,-8.78907 v -18.55468 -0.97657 q 0,-2.92968 1.95313,-4.88281 l 19.53125,-32.22656 v -45.89844 q -4.88282,-10.742186 -16.60157,-18.554684 -10.74218,-7.8125 -22.46093,-7.8125 -0.97657,0 -1.95313,0 -0.97656,0 -1.95312,0 -11.71875,0 -23.4375,7.8125 -10.74219,7.812498 -14.64844,18.554684 v 45.89844 l 16.60156,32.22656 q 0.97656,1.95313 0.97656,3.90625 v 19.53125 q 0,5.85938 -5.85937,8.78906 z M 68.480847,351.70452 200.31679,288.22796 h 1.95312 v -41.01563 q 0,-6.83593 5.85938,-9.76562 l 13.67187,-6.83594 -27.34375,-13.67187 q -5.85937,-2.92969 -5.85937,-8.78907 v -18.55468 -0.97657 q 0,-2.92968 1.95312,-4.88281 l 18.55469,-32.22656 v -45.89844 q -3.90625,-10.742186 -15.625,-18.554684 -10.74219,-7.8125 -22.46094,-7.8125 -0.97656,0 -1.95312,0 -0.97657,0 -0.97657,0 -7.8125,0 -15.625,3.90625 -7.8125,2.929688 -14.64843,9.765625 -5.85938,5.859373 -8.78907,12.695309 v 45.89844 l 16.60157,32.22656 q 0.97656,0.97656 0.97656,1.95313 0,0.97656 -0.97656,1.95312 v 19.53125 q 0,5.85938 -4.88282,8.78906 l -72.265623,36.13282 z m 130.859373,71.28906 34.17969,-9.76562 v -42.96875 l -15.625,6.83594 q -1.95312,0.97656 -4.88281,0.97656 -2.92969,0 -4.88281,-0.97656 -4.88282,-2.92969 -4.88282,-8.78907 V 309.71233 L 98.75428,359.51702 v 50.78125 l 7.81251,-1.95312 q 0.97656,-0.97657 1.95312,-0.97657 1.95313,0 2.92969,0.97657 l 54.6875,14.64843 q 7.8125,2.92969 15.625,2.92969 8.78906,0 17.57812,-2.92969 z"
       id="text23"
       aria-label="" />
  </g>
</svg>
