<?xml version="1.0" encoding="UTF-8" standalone="no"?>
<!-- Created with Inkscape (http://www.inkscape.org/) -->

<svg
   width="512"
   height="512"
   viewBox="0 0 512 512"
   version="1.1"
   id="svg1"
   inkscape:version="1.4 (e7c3feb1, 2024-10-09)"
   sodipodi:docname="bible-study.svg"
   xmlns:inkscape="http://www.inkscape.org/namespaces/inkscape"
   xmlns:sodipodi="http://sodipodi.sourceforge.net/DTD/sodipodi-0.dtd"
   xmlns="http://www.w3.org/2000/svg"
   xmlns:svg="http://www.w3.org/2000/svg">
  <sodipodi:namedview
     id="namedview1"
     pagecolor="#ffffff"
     bordercolor="#000000"
     borderopacity="0.25"
     inkscape:showpageshadow="2"
     inkscape:pageopacity="0.0"
     inkscape:pagecheckerboard="0"
     inkscape:deskcolor="#d1d1d1"
     inkscape:document-units="mm"
     inkscape:zoom="0.8382894"
     inkscape:cx="255.87822"
     inkscape:cy="319.10221"
     inkscape:window-width="1440"
     inkscape:window-height="900"
     inkscape:window-x="0"
     inkscape:window-y="0"
     inkscape:window-maximized="0"
     inkscape:current-layer="layer1" />
  <defs
     id="defs1">
    <rect
       x="-565.05473"
       y="1313.1998"
       width="312.51631"
       height="186.24709"
       id="rect18" />
    <rect
       x="969.52799"
       y="405.43898"
       width="8849.1464"
       height="7562.3184"
       id="rect17" />
    <rect
       x="706.79119"
       y="232.00016"
       width="2654.5135"
       height="2012.4665"
       id="rect16" />
    <rect
       x="-604.24005"
       y="1404.9918"
       width="13.368143"
       height="28.0731"
       id="rect15" />
    <rect
       x="-6320.921"
       y="2061.5927"
       width="8032.4319"
       height="5173.4307"
       id="rect14" />
    <rect
       x="-5873.5943"
       y="1789.3069"
       width="8752.0445"
       height="8051.8809"
       id="rect13" />
    <rect
       x="-5562.4105"
       y="1361.4291"
       width="8401.9627"
       height="4920.5939"
       id="rect12" />
    <rect
       x="-957.89726"
       y="1529.5456"
       width="7647.7281"
       height="4279.6377"
       id="rect11" />
    <rect
       x="-99.109596"
       y="454.25232"
       width="887.85681"
       height="396.43839"
       id="rect3" />
    <rect
       x="53.684364"
       y="70.202637"
       width="1763.325"
       height="1788.1024"
       id="rect1" />
  </defs>
  <g
     inkscape:label="Layer 1"
     inkscape:groupmode="layer"
     id="layer1">
    <text
       xml:space="preserve"
       transform="scale(0.27093333)"
       id="text3"
       style="font-style:normal;font-variant:normal;font-weight:normal;font-stretch:normal;font-size:146.667px;line-height:0;font-family:jw-icons-external;-inkscape-font-specification:jw-icons-external;text-align:center;letter-spacing:5.8px;word-spacing:0px;writing-mode:lr-tb;direction:ltr;white-space:pre;shape-inside:url(#rect3);display:inline;fill:#000000;stroke-width:755.906" />
    <text
       xml:space="preserve"
       style="font-size:173.333px;line-height:0;font-family:jw-icons-external;-inkscape-font-specification:jw-icons-external;text-align:center;letter-spacing:5.8px;word-spacing:0px;writing-mode:lr-tb;direction:ltr;text-anchor:middle;fill:#000000;stroke:#000000;stroke-opacity:0"
       x="-622.14398"
       y="1067.8145"
       id="text7"><tspan
         sodipodi:role="line"
         id="tspan7"
         x="-622.14398"
         y="1067.8145"></tspan><tspan
         sodipodi:role="line"
         id="tspan8"
         x="-622.14398"
         y="1067.8145" /><tspan
         sodipodi:role="line"
         x="-622.14398"
         y="1067.8145"
         id="tspan9" /><tspan
         sodipodi:role="line"
         x="-622.14398"
         y="1067.8145"
         id="tspan10" /></text>
    <text
       xml:space="preserve"
       id="text11"
       style="font-size:173.333px;line-height:0;font-family:jw-icons-external;-inkscape-font-specification:jw-icons-external;text-align:center;letter-spacing:5.8px;word-spacing:0px;writing-mode:lr-tb;direction:ltr;white-space:pre;shape-inside:url(#rect11);display:inline;fill:#000000;stroke:#000000;stroke-opacity:0" />
    <text
       xml:space="preserve"
       id="text13"
       style="font-size:173.333px;line-height:0;font-family:jw-icons-external;-inkscape-font-specification:jw-icons-external;text-align:center;letter-spacing:5.8px;word-spacing:0px;writing-mode:lr-tb;direction:ltr;white-space:pre;shape-inside:url(#rect13);display:inline;fill:#000000;stroke:#000000;stroke-opacity:0" />
    <text
       xml:space="preserve"
       id="text14"
       style="font-size:16px;line-height:0;font-family:jw-icons-external;-inkscape-font-specification:jw-icons-external;text-align:start;letter-spacing:5.8px;word-spacing:0px;writing-mode:lr-tb;direction:ltr;white-space:pre;shape-inside:url(#rect15);display:inline;fill:#000000;stroke:#000000;stroke-opacity:0" />
    <text
       xml:space="preserve"
       id="text15"
       style="font-size:16px;line-height:0;font-family:jw-icons-external;-inkscape-font-specification:jw-icons-external;text-align:start;letter-spacing:5.8px;word-spacing:0px;writing-mode:lr-tb;direction:ltr;white-space:pre;shape-inside:url(#rect16);display:inline;fill:#000000;stroke:#000000;stroke-opacity:0" />
    <text
       xml:space="preserve"
       id="text16"
       style="font-size:16px;line-height:1.5;font-family:jw-icons-external;-inkscape-font-specification:jw-icons-external;text-align:start;letter-spacing:5.8px;word-spacing:0px;writing-mode:lr-tb;direction:ltr;white-space:pre;shape-inside:url(#rect17);display:inline;fill:#000000;stroke:#000000;stroke-opacity:0" />
    <text
       xml:space="preserve"
       id="text17"
       style="font-size:16px;line-height:1.5;font-family:jw-icons-external;-inkscape-font-specification:jw-icons-external;text-align:start;letter-spacing:5.8px;word-spacing:0px;writing-mode:lr-tb;direction:ltr;white-space:pre;shape-inside:url(#rect18);display:inline;fill:#000000;stroke:#000000;stroke-opacity:0" />
    <text
       xml:space="preserve"
       style="font-size:533.333px;line-height:1.2;font-family:jw-icons-external;-inkscape-font-specification:jw-icons-external;text-align:start;letter-spacing:5.8px;word-spacing:0px;writing-mode:lr-tb;direction:ltr;text-anchor:start;fill:#000000;stroke:#000000;stroke-opacity:0"
       x="143.7877"
       y="307.89322"
       id="text20"><tspan
         sodipodi:role="line"
         id="tspan19"></tspan></text>
    <path
       d="m 496.1989,414.90268 q 4.88281,0 7.8125,2.92969 2.92969,2.92968 2.92969,7.8125 0,3.90625 -2.92969,6.83593 -2.92969,2.92969 -7.8125,2.92969 H 17.683276 q -4.882812,0 -7.8124998,-2.92969 -2.9296875,-2.92968 -2.9296875,-6.83593 0,-4.88282 2.9296875,-7.8125 2.9296878,-2.92969 7.8124998,-2.92969 h 66.40625 l 38.085934,-78.125 q 2.92969,-5.85938 9.76563,-5.85938 h 104.49219 q 5.85937,0 8.78906,4.88282 1.95312,2.92968 1.95312,5.85937 0,1.95313 -1.95312,4.88281 l -34.17969,68.35938 z m -388.67187,0 h 80.07812 l 31.25,-62.5 H 138.77703 Z M 461.04265,385.6058 h -3.90625 q 3.90625,2.92969 3.90625,7.8125 0,10.74219 -9.76562,10.74219 -2.92969,0 -5.85938,-1.95312 -18.55469,-12.69532 -39.0625,-19.53125 -7.8125,-2.92969 -15.625,0.97656 -6.83594,3.90625 -9.76562,9.76562 l -3.90625,4.88282 q 0,0.97656 -0.97657,1.95312 l -1.95312,0.97656 v 0 h -2.92969 -0.97656 q -1.95313,0.97657 -2.92969,0.97657 -0.97656,0 -1.95312,-0.97657 v 0 q -1.95313,-0.97656 -2.92969,-2.92968 -0.97656,-1.95313 -3.90625,-5.85938 -2.92969,-3.90625 -10.74219,-7.8125 -6.83594,-4.88281 -14.64844,-1.95312 -20.50781,6.83593 -39.0625,19.53125 -2.92968,1.95312 -5.85937,1.95312 -4.88281,0 -8.78906,-3.90625 -1.95313,-2.92969 -1.95313,-6.83594 0,-4.88281 4.88281,-7.8125 20.50782,-14.64843 43.94532,-22.46093 6.83593,-1.95313 12.69531,-1.95313 20.50781,0 32.22656,14.64844 12.69531,-14.64844 32.22656,-14.64844 6.83594,0 13.67188,1.95313 23.4375,7.8125 43.94531,22.46093 z m -436.523436,4.88282 q -2.929688,2.92968 -7.8125,2.92968 -3.90625,0 -6.8359378,-2.92968 -2.9296875,-2.92969 -2.9296875,-6.83594 V 254.74643 q 0,-6.83594 5.8593753,-8.78906 l 65.429687,-34.17969 v -7.8125 l -20.507812,-31.25 q -1.953125,-1.95313 -1.953125,-4.88281 v -44.92188 q 0,-2.92969 0.976562,-4.88281 6.835938,-13.67188 22.460938,-24.414063 16.601562,-10.742188 32.226566,-12.695313 9.76562,0.976563 20.50781,5.859375 10.74219,4.882813 19.53125,13.671871 8.78906,7.8125 13.67187,16.60157 0.97657,1.95312 0.97657,3.90625 0,0.97656 0,1.95312 v 44.92188 q 0,2.92968 -1.95313,4.88281 l -20.50781,31.25 v 6.83594 l 64.45312,30.27343 q 5.85938,1.95313 6.83594,6.83594 l 11.71875,51.75781 q 0.97656,0.97657 0.97656,1.95313 0,4.88281 -3.90625,7.8125 -2.92968,2.92969 -6.83593,2.92969 -8.78907,0 -10.74219,-7.8125 l -10.74219,-46.875 -66.40625,-30.27344 q -5.85937,-2.92969 -5.85937,-9.76563 v -16.60156 q 0,-2.92969 1.95312,-5.85937 l 19.53125,-30.27344 v -40.03906 q -3.90625,-8.78907 -14.64844,-14.64844 -9.76562,-6.83594 -18.55468,-7.8125 -9.76563,0.97656 -19.531254,7.8125 -9.765625,5.85937 -14.648437,14.64844 v 40.03906 l 20.507812,30.27344 q 1.953125,2.92968 1.953125,5.85937 v 16.60156 q 0,6.83594 -5.859375,9.76563 l -66.40625,33.20312 v 123.04688 q 0,3.90625 -2.929687,6.83594 z M 496.1989,393.4183 q -3.90625,0 -6.83594,-2.92968 -2.92968,-2.92969 -2.92968,-6.83594 V 260.6058 l -66.40625,-33.20312 q -4.88282,-2.92969 -4.88282,-9.76563 v -16.60156 q 0,-2.92969 0.97657,-5.85937 l 21.48437,-31.25 v -39.0625 q -2.92969,-5.85938 -8.78906,-10.74219 -5.85938,-4.88281 -12.69531,-7.8125 -6.83594,-3.90625 -13.67188,-3.90625 -8.78906,0.97656 -18.55469,7.8125 -9.76562,6.83594 -13.67187,14.64844 v 40.03906 l 20.50781,30.27344 q 1.95313,2.92968 1.95313,5.85937 v 16.60156 q 0,6.83594 -6.83594,9.76563 l -66.40625,30.27344 -9.76563,84.96093 q -0.97656,9.76563 -10.74218,9.76563 0,0 -0.97657,0 -8.78906,-1.95313 -8.78906,-10.74219 0,-0.97656 0,-0.97656 l 10.74219,-91.79688 q 0,-4.88281 5.85937,-7.8125 l 64.45313,-30.27343 v -6.83594 l -20.50781,-31.25 q -1.95313,-1.95313 -1.95313,-4.88281 v -44.92188 q 0,-2.92969 1.95313,-4.88281 6.83593,-13.67188 22.46093,-24.414063 15.625,-10.742188 30.27344,-12.695313 15.625,1.953125 31.25,12.695313 16.60156,9.765623 23.4375,23.437503 0.97656,1.95312 0.97656,4.88281 v 45.89844 q 0,2.92968 -1.95312,4.88281 l -20.50781,31.25 v 7.8125 l 65.42968,34.17969 q 5.85938,1.95312 5.85938,8.78906 v 128.90625 q 0,1.95312 -0.97656,3.90625 -0.97657,1.95312 -2.92969,3.90625 -0.97656,0.97656 -2.92969,1.95312 -0.97656,0 -3.90625,0 z"
       id="text23"
       style="font-size:500px;line-height:1.2;font-family:jw-icons-external;-inkscape-font-specification:jw-icons-external;letter-spacing:5.8px;word-spacing:0px;stroke:#000000;stroke-opacity:0"
       aria-label="" />
  </g>
</svg>
