<?xml version="1.0" encoding="UTF-8" standalone="no"?>
<!-- Created with Inkscape (http://www.inkscape.org/) -->

<svg
   width="512"
   height="512"
   viewBox="0 0 512 512"
   version="1.1"
   id="svg1"
   inkscape:version="1.4 (e7c3feb1, 2024-10-09)"
   sodipodi:docname="boy.svg"
   xmlns:inkscape="http://www.inkscape.org/namespaces/inkscape"
   xmlns:sodipodi="http://sodipodi.sourceforge.net/DTD/sodipodi-0.dtd"
   xmlns="http://www.w3.org/2000/svg"
   xmlns:svg="http://www.w3.org/2000/svg">
  <sodipodi:namedview
     id="namedview1"
     pagecolor="#ffffff"
     bordercolor="#000000"
     borderopacity="0.25"
     inkscape:showpageshadow="2"
     inkscape:pageopacity="0.0"
     inkscape:pagecheckerboard="0"
     inkscape:deskcolor="#d1d1d1"
     inkscape:document-units="mm"
     inkscape:zoom="0.84017468"
     inkscape:cx="261.2552"
     inkscape:cy="232.68971"
     inkscape:window-width="1440"
     inkscape:window-height="872"
     inkscape:window-x="0"
     inkscape:window-y="28"
     inkscape:window-maximized="0"
     inkscape:current-layer="layer1" />
  <defs
     id="defs1">
    <rect
       x="-572.24641"
       y="250.71666"
       width="849.75722"
       height="602.8683"
       id="rect53" />
    <rect
       x="-565.05473"
       y="1313.1998"
       width="312.51631"
       height="186.24709"
       id="rect18" />
    <rect
       x="969.52799"
       y="405.43898"
       width="8849.1464"
       height="7562.3184"
       id="rect17" />
    <rect
       x="706.79119"
       y="232.00016"
       width="2654.5135"
       height="2012.4665"
       id="rect16" />
    <rect
       x="-604.24005"
       y="1404.9918"
       width="13.368143"
       height="28.0731"
       id="rect15" />
    <rect
       x="-6320.921"
       y="2061.5927"
       width="8032.4319"
       height="5173.4307"
       id="rect14" />
    <rect
       x="-5873.5943"
       y="1789.3069"
       width="8752.0445"
       height="8051.8809"
       id="rect13" />
    <rect
       x="-5562.4105"
       y="1361.4291"
       width="8401.9627"
       height="4920.5939"
       id="rect12" />
    <rect
       x="-957.89726"
       y="1529.5456"
       width="7647.7281"
       height="4279.6377"
       id="rect11" />
    <rect
       x="-99.109596"
       y="454.25232"
       width="887.85681"
       height="396.43839"
       id="rect3" />
    <rect
       x="53.684364"
       y="70.202637"
       width="1763.325"
       height="1788.1024"
       id="rect1" />
  </defs>
  <g
     inkscape:label="Layer 1"
     inkscape:groupmode="layer"
     id="layer1">
    <text
       xml:space="preserve"
       transform="matrix(0.27093333,0,0,0.27093333,26.992401,-5.3984803)"
       id="text3"
       style="font-style:normal;font-variant:normal;font-weight:normal;font-stretch:normal;font-size:146.667px;line-height:0;font-family:jw-icons-external;-inkscape-font-specification:jw-icons-external;text-align:center;letter-spacing:5.8px;word-spacing:0px;writing-mode:lr-tb;direction:ltr;white-space:pre;shape-inside:url(#rect3);display:inline;fill:#000000;stroke-width:755.906" />
    <text
       xml:space="preserve"
       style="font-size:173.333px;line-height:0;font-family:jw-icons-external;-inkscape-font-specification:jw-icons-external;text-align:center;letter-spacing:5.8px;word-spacing:0px;writing-mode:lr-tb;direction:ltr;text-anchor:middle;fill:#000000;stroke:#000000;stroke-opacity:0"
       x="-595.15155"
       y="1062.416"
       id="text7"><tspan
         sodipodi:role="line"
         id="tspan7"
         x="-595.15155"
         y="1062.416"></tspan><tspan
         sodipodi:role="line"
         id="tspan8"
         x="-595.15155"
         y="1062.416" /><tspan
         sodipodi:role="line"
         x="-595.15155"
         y="1062.416"
         id="tspan9" /><tspan
         sodipodi:role="line"
         x="-595.15155"
         y="1062.416"
         id="tspan10" /></text>
    <text
       xml:space="preserve"
       id="text11"
       style="font-size:173.333px;line-height:0;font-family:jw-icons-external;-inkscape-font-specification:jw-icons-external;text-align:center;letter-spacing:5.8px;word-spacing:0px;writing-mode:lr-tb;direction:ltr;white-space:pre;shape-inside:url(#rect11);display:inline;fill:#000000;stroke:#000000;stroke-opacity:0"
       transform="translate(26.992401,-5.3984803)" />
    <text
       xml:space="preserve"
       id="text13"
       style="font-size:173.333px;line-height:0;font-family:jw-icons-external;-inkscape-font-specification:jw-icons-external;text-align:center;letter-spacing:5.8px;word-spacing:0px;writing-mode:lr-tb;direction:ltr;white-space:pre;shape-inside:url(#rect13);display:inline;fill:#000000;stroke:#000000;stroke-opacity:0"
       transform="translate(26.992401,-5.3984803)" />
    <text
       xml:space="preserve"
       id="text14"
       style="font-size:16px;line-height:0;font-family:jw-icons-external;-inkscape-font-specification:jw-icons-external;text-align:start;letter-spacing:5.8px;word-spacing:0px;writing-mode:lr-tb;direction:ltr;white-space:pre;shape-inside:url(#rect15);display:inline;fill:#000000;stroke:#000000;stroke-opacity:0"
       transform="translate(26.992401,-5.3984803)" />
    <text
       xml:space="preserve"
       id="text15"
       style="font-size:16px;line-height:0;font-family:jw-icons-external;-inkscape-font-specification:jw-icons-external;text-align:start;letter-spacing:5.8px;word-spacing:0px;writing-mode:lr-tb;direction:ltr;white-space:pre;shape-inside:url(#rect16);display:inline;fill:#000000;stroke:#000000;stroke-opacity:0"
       transform="translate(26.992401,-5.3984803)" />
    <text
       xml:space="preserve"
       id="text16"
       style="font-size:16px;line-height:1.5;font-family:jw-icons-external;-inkscape-font-specification:jw-icons-external;text-align:start;letter-spacing:5.8px;word-spacing:0px;writing-mode:lr-tb;direction:ltr;white-space:pre;shape-inside:url(#rect17);display:inline;fill:#000000;stroke:#000000;stroke-opacity:0"
       transform="translate(26.992401,-5.3984803)" />
    <text
       xml:space="preserve"
       id="text17"
       style="font-size:16px;line-height:1.5;font-family:jw-icons-external;-inkscape-font-specification:jw-icons-external;text-align:start;letter-spacing:5.8px;word-spacing:0px;writing-mode:lr-tb;direction:ltr;white-space:pre;shape-inside:url(#rect18);display:inline;fill:#000000;stroke:#000000;stroke-opacity:0"
       transform="translate(26.992401,-5.3984803)" />
    <text
       xml:space="preserve"
       style="font-size:533.333px;line-height:1.2;font-family:jw-icons-external;-inkscape-font-specification:jw-icons-external;text-align:start;letter-spacing:5.8px;word-spacing:0px;writing-mode:lr-tb;direction:ltr;text-anchor:start;fill:#000000;stroke:#000000;stroke-opacity:0"
       x="170.78011"
       y="302.49475"
       id="text20"><tspan
         sodipodi:role="line"
         id="tspan19"
         x="170.78011"
         y="302.49475"></tspan></text>
    <text
       xml:space="preserve"
       id="text53"
       style="font-style:normal;font-variant:normal;font-weight:normal;font-stretch:normal;font-size:133.333px;line-height:73.9;font-family:sans-serif;-inkscape-font-specification:sans-serif;text-align:start;letter-spacing:-10.72px;word-spacing:0px;writing-mode:lr-tb;direction:ltr;white-space:pre;shape-inside:url(#rect53);display:inline;fill:#000000;fill-opacity:1;stroke:#000000;stroke-opacity:0"><tspan
         x="-572.24609"
         y="5818.5488"
         id="tspan2"><tspan
           dx="0 102.73412 104.94765"
           id="tspan1">DOC</tspan></tspan></text>
    <path
       d="m 345.71741,326.13532 c 15.625,15.625 23.76302,59.57031 24.41406,131.83594 0,2.60417 -1.30208,4.88281 -3.90625,6.83594 -1.95312,2.60417 -4.23176,3.90625 -6.83593,3.90625 -2.60417,0 -5.20833,-1.30208 -7.8125,-3.90625 -1.95313,-1.95313 -2.92969,-4.23177 -2.92969,-6.83594 0,-24.08854 -1.6276,-48.17708 -4.88281,-72.26563 -2.60417,-24.73958 -6.83594,-40.03906 -12.69532,-45.89843 -10.41667,-10.41667 -21.80989,-21.8099 -34.17968,-34.17969 -11.71875,11.06771 -25.71615,16.60156 -41.99219,16.60156 -15.625,0 -29.29688,-5.53385 -41.01563,-16.60156 -13.02083,13.02083 -24.41406,24.41406 -34.17968,34.17969 -5.85938,5.85937 -10.41667,21.15885 -13.67188,45.89843 -3.25521,24.08855 -4.88281,48.17709 -4.88281,72.26563 0,2.60417 -0.97656,4.88281 -2.92969,6.83594 -1.95313,2.60417 -4.23177,3.90625 -6.83594,3.90625 v 0 c -1.95312,0 -3.90624,-0.65104 -5.85937,-1.95313 -1.30209,-0.65104 -2.60417,-1.95312 -3.90625,-3.90625 -0.65104,-1.30208 -0.97656,-2.92968 -0.97656,-4.88281 0,-72.26563 7.8125,-116.21094 23.4375,-131.83594 13.67187,-13.67187 27.66927,-27.66927 41.99218,-41.99219 l 0.97657,-0.97656 c 0.65104,-0.65104 1.6276,-1.30208 2.92968,-1.95312 h 3.90625 c 2.60417,0 4.88281,0.97656 6.83594,2.92968 0.65104,0 0.97656,0.32552 0.97656,0.97657 9.11459,10.41667 20.1823,15.95052 33.20313,16.60156 13.67187,-1.30209 24.73958,-6.83594 33.20312,-16.60156 1.30209,-1.30209 2.92969,-2.27865 4.88282,-2.92969 0,-0.65104 0.32552,-0.97656 0.97656,-0.97656 h 2.92969 1.95312 0.97656 c 1.30209,0.65104 2.27865,1.30208 2.92969,1.95312 v 0 c 0.65104,0 0.97656,0.32552 0.97656,0.97656 14.32292,13.67188 28.32032,27.66928 41.99219,41.99219 z M 183.60804,245.08063 c -0.65105,-1.30208 -1.30209,-2.60416 -1.95313,-3.90625 -6.51041,-42.96875 -9.76562,-71.28906 -9.76562,-84.96093 1.30208,-14.97396 7.48697,-27.34376 18.55468,-37.10938 7.16146,-7.16146 16.92709,-13.02083 29.29688,-17.57813 12.36979,-5.208329 23.76302,-7.812496 34.17969,-7.812496 h 0.97656 c 10.41667,0 21.8099,2.604167 34.17969,7.812496 13.02083,4.5573 23.4375,10.41667 31.25,17.57813 11.06771,9.76562 16.92708,22.13542 17.57812,37.10938 0,13.67187 -3.25521,41.99218 -9.76562,84.96093 -0.65105,1.30209 -1.30209,2.60417 -1.95313,3.90625 -7.16146,9.76563 -17.90365,18.22917 -32.22656,25.39063 -13.67187,7.16146 -26.69271,10.74219 -39.0625,10.74219 -12.36979,0 -25.71615,-3.58073 -40.03906,-10.74219 -13.67188,-7.16146 -24.08855,-15.625 -31.25,-25.39063 z m 124.02343,-9.76562 c 3.25521,-22.78646 5.85938,-41.99219 7.8125,-57.61719 l -26.36718,8.78906 c -0.65105,0.65105 -1.62761,0.97657 -2.92969,0.97657 -2.60417,0 -5.20833,-0.97656 -7.8125,-2.92969 -1.95313,-2.60417 -2.92969,-5.20833 -2.92969,-7.8125 v -2.92969 c -9.76563,5.85937 -22.46094,11.39323 -38.08594,16.60156 -14.97395,4.55729 -28.32031,6.83594 -40.03906,6.83594 1.30209,12.36979 2.92969,25.06511 4.88281,38.08594 5.85938,6.51041 13.67188,12.36979 23.4375,17.57812 10.41667,4.55729 20.18229,6.83594 29.29688,6.83594 5.85937,0 12.04427,-0.97656 18.55469,-2.92969 7.16145,-1.95312 13.67187,-4.88281 19.53125,-8.78906 5.85937,-3.90625 10.74218,-8.13802 14.64843,-12.69531 z M 205.09241,133.75251 c -7.16146,5.85937 -11.39323,13.34635 -12.69531,22.46094 0,3.90625 0.65104,10.74218 1.95312,20.50781 7.16146,0 14.64844,-0.65104 22.46094,-1.95313 8.46354,-1.30208 19.20573,-4.88281 32.22656,-10.74218 13.67188,-5.85938 22.78646,-13.67188 27.34375,-23.43751 1.95313,-3.90625 5.20834,-5.85937 9.76563,-5.85937 2.60417,0 4.88281,1.30208 6.83594,3.90625 2.60417,1.95312 3.90625,4.23177 3.90625,6.83594 v 16.60156 l 17.57812,-5.85937 h 2.92969 v 0 c -1.30209,-9.11459 -5.20834,-16.60157 -11.71875,-22.46094 -14.32292,-13.02084 -31.25,-19.53125 -50.78125,-19.53125 -18.88021,0 -35.48177,6.51041 -49.80469,19.53125 z"
       id="text54"
       style="font-size:500px;line-height:73.9;font-family:jw-icons-external;-inkscape-font-specification:jw-icons-external;letter-spacing:-10.72px;word-spacing:0px;fill-opacity:0.809195;stroke:#000000;stroke-opacity:0"
       aria-label=""
       sodipodi:nodetypes="cccssscscscscscssccsssscscccccscccsscccccccssccccccscccccscscccccscscccccccscscccscsc" />
  </g>
</svg>
