<?xml version="1.0" encoding="UTF-8" standalone="no"?>
<!-- Created with Inkscape (http://www.inkscape.org/) -->

<svg
   width="512"
   height="512"
   viewBox="0 0 512 512"
   version="1.1"
   id="svg1"
   inkscape:version="1.4 (e7c3feb1, 2024-10-09)"
   sodipodi:docname="brother.svg"
   xmlns:inkscape="http://www.inkscape.org/namespaces/inkscape"
   xmlns:sodipodi="http://sodipodi.sourceforge.net/DTD/sodipodi-0.dtd"
   xmlns="http://www.w3.org/2000/svg"
   xmlns:svg="http://www.w3.org/2000/svg">
  <sodipodi:namedview
     id="namedview1"
     pagecolor="#ffffff"
     bordercolor="#000000"
     borderopacity="0.25"
     inkscape:showpageshadow="2"
     inkscape:pageopacity="0.0"
     inkscape:pagecheckerboard="0"
     inkscape:deskcolor="#d1d1d1"
     inkscape:document-units="mm"
     inkscape:zoom="0.8382894"
     inkscape:cx="255.87822"
     inkscape:cy="319.10221"
     inkscape:window-width="1440"
     inkscape:window-height="900"
     inkscape:window-x="0"
     inkscape:window-y="0"
     inkscape:window-maximized="0"
     inkscape:current-layer="layer1" />
  <defs
     id="defs1">
    <rect
       x="-565.05473"
       y="1313.1998"
       width="312.51631"
       height="186.24709"
       id="rect18" />
    <rect
       x="969.52799"
       y="405.43898"
       width="8849.1464"
       height="7562.3184"
       id="rect17" />
    <rect
       x="706.79119"
       y="232.00016"
       width="2654.5135"
       height="2012.4665"
       id="rect16" />
    <rect
       x="-604.24005"
       y="1404.9918"
       width="13.368143"
       height="28.0731"
       id="rect15" />
    <rect
       x="-6320.921"
       y="2061.5927"
       width="8032.4319"
       height="5173.4307"
       id="rect14" />
    <rect
       x="-5873.5943"
       y="1789.3069"
       width="8752.0445"
       height="8051.8809"
       id="rect13" />
    <rect
       x="-5562.4105"
       y="1361.4291"
       width="8401.9627"
       height="4920.5939"
       id="rect12" />
    <rect
       x="-957.89726"
       y="1529.5456"
       width="7647.7281"
       height="4279.6377"
       id="rect11" />
    <rect
       x="-99.109596"
       y="454.25232"
       width="887.85681"
       height="396.43839"
       id="rect3" />
    <rect
       x="53.684364"
       y="70.202637"
       width="1763.325"
       height="1788.1024"
       id="rect1" />
  </defs>
  <g
     inkscape:label="Layer 1"
     inkscape:groupmode="layer"
     id="layer1">
    <text
       xml:space="preserve"
       transform="scale(0.27093333)"
       id="text3"
       style="font-style:normal;font-variant:normal;font-weight:normal;font-stretch:normal;font-size:146.667px;line-height:0;font-family:jw-icons-external;-inkscape-font-specification:jw-icons-external;text-align:center;letter-spacing:5.8px;word-spacing:0px;writing-mode:lr-tb;direction:ltr;white-space:pre;shape-inside:url(#rect3);display:inline;fill:#000000;stroke-width:755.906" />
    <text
       xml:space="preserve"
       style="font-size:173.333px;line-height:0;font-family:jw-icons-external;-inkscape-font-specification:jw-icons-external;text-align:center;letter-spacing:5.8px;word-spacing:0px;writing-mode:lr-tb;direction:ltr;text-anchor:middle;fill:#000000;stroke:#000000;stroke-opacity:0"
       x="-622.14398"
       y="1067.8145"
       id="text7"><tspan
         sodipodi:role="line"
         id="tspan7"
         x="-622.14398"
         y="1067.8145"></tspan><tspan
         sodipodi:role="line"
         id="tspan8"
         x="-622.14398"
         y="1067.8145" /><tspan
         sodipodi:role="line"
         x="-622.14398"
         y="1067.8145"
         id="tspan9" /><tspan
         sodipodi:role="line"
         x="-622.14398"
         y="1067.8145"
         id="tspan10" /></text>
    <text
       xml:space="preserve"
       id="text11"
       style="font-size:173.333px;line-height:0;font-family:jw-icons-external;-inkscape-font-specification:jw-icons-external;text-align:center;letter-spacing:5.8px;word-spacing:0px;writing-mode:lr-tb;direction:ltr;white-space:pre;shape-inside:url(#rect11);display:inline;fill:#000000;stroke:#000000;stroke-opacity:0" />
    <text
       xml:space="preserve"
       id="text13"
       style="font-size:173.333px;line-height:0;font-family:jw-icons-external;-inkscape-font-specification:jw-icons-external;text-align:center;letter-spacing:5.8px;word-spacing:0px;writing-mode:lr-tb;direction:ltr;white-space:pre;shape-inside:url(#rect13);display:inline;fill:#000000;stroke:#000000;stroke-opacity:0" />
    <text
       xml:space="preserve"
       id="text14"
       style="font-size:16px;line-height:0;font-family:jw-icons-external;-inkscape-font-specification:jw-icons-external;text-align:start;letter-spacing:5.8px;word-spacing:0px;writing-mode:lr-tb;direction:ltr;white-space:pre;shape-inside:url(#rect15);display:inline;fill:#000000;stroke:#000000;stroke-opacity:0" />
    <text
       xml:space="preserve"
       id="text15"
       style="font-size:16px;line-height:0;font-family:jw-icons-external;-inkscape-font-specification:jw-icons-external;text-align:start;letter-spacing:5.8px;word-spacing:0px;writing-mode:lr-tb;direction:ltr;white-space:pre;shape-inside:url(#rect16);display:inline;fill:#000000;stroke:#000000;stroke-opacity:0" />
    <text
       xml:space="preserve"
       id="text16"
       style="font-size:16px;line-height:1.5;font-family:jw-icons-external;-inkscape-font-specification:jw-icons-external;text-align:start;letter-spacing:5.8px;word-spacing:0px;writing-mode:lr-tb;direction:ltr;white-space:pre;shape-inside:url(#rect17);display:inline;fill:#000000;stroke:#000000;stroke-opacity:0" />
    <text
       xml:space="preserve"
       id="text17"
       style="font-size:16px;line-height:1.5;font-family:jw-icons-external;-inkscape-font-specification:jw-icons-external;text-align:start;letter-spacing:5.8px;word-spacing:0px;writing-mode:lr-tb;direction:ltr;white-space:pre;shape-inside:url(#rect18);display:inline;fill:#000000;stroke:#000000;stroke-opacity:0" />
    <text
       xml:space="preserve"
       style="font-size:533.333px;line-height:1.2;font-family:jw-icons-external;-inkscape-font-specification:jw-icons-external;text-align:start;letter-spacing:5.8px;word-spacing:0px;writing-mode:lr-tb;direction:ltr;text-anchor:start;fill:#000000;stroke:#000000;stroke-opacity:0"
       x="143.7877"
       y="307.89322"
       id="text20"><tspan
         sodipodi:role="line"
         id="tspan19"></tspan></text>
    <path
       d="m 393.76499,469.91769 q -2.92969,3.90625 -6.83594,3.90625 -3.90625,0 -7.8125,-3.90625 -2.92968,-2.92968 -2.92968,-6.83593 v -187.5 l -88.86719,-47.85157 q -5.85938,-2.92968 -5.85938,-8.78906 v -23.4375 q 0,-2.92969 0.97657,-5.85937 l 27.34375,-42.96875 V 91.011444 q -3.90625,-7.8125 -11.71875,-15.625 -7.8125,-7.8125 -17.57813,-12.695312 -9.76562,-4.882813 -18.55469,-5.859375 -13.67187,1.953125 -28.32031,11.71875 -13.67187,9.765625 -20.50781,22.460937 v 55.664066 l 28.32031,42.96875 q 0.97656,2.92968 0.97656,5.85937 v 22.46094 0.97656 q 0,5.85938 -4.88281,8.78906 l -89.84375,47.85157 v 187.5 q 0,3.90625 -3.90625,6.83593 -2.92969,2.92969 -6.83594,2.92969 -3.90625,0 -7.8125,-2.92969 -2.92968,-2.92968 -2.92968,-6.83593 V 268.74582 q 0,-5.85938 5.85937,-8.78906 l 89.84375,-47.85157 v -13.67187 l -28.32031,-42.96875 q -0.97656,-2.92969 -0.97656,-5.85938 V 87.105194 q 0,-1.953125 0.97656,-3.90625 26.36719,-46.875 68.35937,-46.875 19.53125,0 36.13282,12.695313 16.60156,11.71875 22.46093,21.484375 6.83594,8.789062 8.78907,12.695312 0.97656,1.953125 0.97656,4.882813 v 62.500003 q 0,2.92968 -0.97656,5.85937 l -27.34375,41.99219 v 13.67187 l 89.84375,47.85157 q 5.85937,2.92968 5.85937,8.78906 v 194.33594 q 0,3.90625 -3.90625,6.83593 z m -125,-34.17968 q -2.92969,2.92968 -6.83594,2.92968 -3.90625,0 -7.8125,-2.92968 -2.92968,-2.92969 -2.92968,-7.8125 V 258.98019 q 0,-3.90625 2.92968,-6.83593 3.90625,-3.90625 7.8125,-3.90625 3.90625,0 6.83594,3.90625 3.90625,2.92968 3.90625,6.83593 v 168.94532 q 0,4.88281 -3.90625,7.8125 z m 0,0 q -2.92969,2.92968 -6.83594,2.92968 -3.90625,0 -7.8125,-2.92968 -2.92968,-2.92969 -2.92968,-7.8125 V 258.98019 q 0,-3.90625 2.92968,-6.83593 3.90625,-3.90625 7.8125,-3.90625 3.90625,0 6.83594,3.90625 3.90625,2.92968 3.90625,6.83593 v 168.94532 q 0,4.88281 -3.90625,7.8125 z m 125,34.17968 q -2.92969,3.90625 -6.83594,3.90625 -3.90625,0 -7.8125,-3.90625 -2.92968,-2.92968 -2.92968,-6.83593 v -187.5 l -88.86719,-47.85157 q -5.85938,-2.92968 -5.85938,-8.78906 v -23.4375 q 0,-2.92969 0.97657,-5.85937 l 27.34375,-42.96875 V 91.011444 q -3.90625,-7.8125 -11.71875,-15.625 -7.8125,-7.8125 -17.57813,-12.695312 -9.76562,-4.882813 -18.55469,-5.859375 -13.67187,1.953125 -28.32031,11.71875 -13.67187,9.765625 -20.50781,22.460937 v 55.664066 l 28.32031,42.96875 q 0.97656,2.92968 0.97656,5.85937 v 22.46094 0.97656 q 0,5.85938 -4.88281,8.78906 l -89.84375,47.85157 v 187.5 q 0,3.90625 -3.90625,6.83593 -2.92969,2.92969 -6.83594,2.92969 -3.90625,0 -7.8125,-2.92969 -2.92968,-2.92968 -2.92968,-6.83593 V 268.74582 q 0,-5.85938 5.85937,-8.78906 l 89.84375,-47.85157 v -13.67187 l -28.32031,-42.96875 q -0.97656,-2.92969 -0.97656,-5.85938 V 87.105194 q 0,-1.953125 0.97656,-3.90625 26.36719,-46.875 68.35937,-46.875 19.53125,0 36.13282,12.695313 16.60156,11.71875 22.46093,21.484375 6.83594,8.789062 8.78907,12.695312 0.97656,1.953125 0.97656,4.882813 v 62.500003 q 0,2.92968 -0.97656,5.85937 l -27.34375,41.99219 v 13.67187 l 89.84375,47.85157 q 5.85937,2.92968 5.85937,8.78906 v 194.33594 q 0,3.90625 -3.90625,6.83593 z m -125,-34.17968 q -2.92969,2.92968 -6.83594,2.92968 -3.90625,0 -7.8125,-2.92968 -2.92968,-2.92969 -2.92968,-7.8125 V 258.98019 q 0,-3.90625 2.92968,-6.83593 3.90625,-3.90625 7.8125,-3.90625 3.90625,0 6.83594,3.90625 3.90625,2.92968 3.90625,6.83593 v 168.94532 q 0,4.88281 -3.90625,7.8125 z m 0,0 q -2.92969,2.92968 -6.83594,2.92968 -3.90625,0 -7.8125,-2.92968 -2.92968,-2.92969 -2.92968,-7.8125 V 258.98019 q 0,-3.90625 2.92968,-6.83593 3.90625,-3.90625 7.8125,-3.90625 3.90625,0 6.83594,3.90625 3.90625,2.92968 3.90625,6.83593 v 168.94532 q 0,4.88281 -3.90625,7.8125 z"
       id="text23"
       style="font-size:500px;line-height:1.2;font-family:jw-icons-external;-inkscape-font-specification:jw-icons-external;letter-spacing:5.8px;word-spacing:0px;stroke:#000000;stroke-opacity:0"
       aria-label="" />
  </g>
</svg>
