<?xml version="1.0" encoding="UTF-8" standalone="no"?>
<!-- Created with Inkscape (http://www.inkscape.org/) -->

<svg
   width="512"
   height="512"
   viewBox="0 0 512 512"
   version="1.1"
   id="svg1"
   inkscape:version="1.4 (e7c3feb1, 2024-10-09)"
   sodipodi:docname="brother-sister.svg"
   xmlns:inkscape="http://www.inkscape.org/namespaces/inkscape"
   xmlns:sodipodi="http://sodipodi.sourceforge.net/DTD/sodipodi-0.dtd"
   xmlns="http://www.w3.org/2000/svg"
   xmlns:svg="http://www.w3.org/2000/svg">
  <sodipodi:namedview
     id="namedview1"
     pagecolor="#ffffff"
     bordercolor="#000000"
     borderopacity="0.25"
     inkscape:showpageshadow="2"
     inkscape:pageopacity="0.0"
     inkscape:pagecheckerboard="0"
     inkscape:deskcolor="#d1d1d1"
     inkscape:document-units="mm"
     inkscape:zoom="0.8382894"
     inkscape:cx="255.87822"
     inkscape:cy="319.10221"
     inkscape:window-width="1440"
     inkscape:window-height="900"
     inkscape:window-x="0"
     inkscape:window-y="0"
     inkscape:window-maximized="0"
     inkscape:current-layer="layer1" />
  <defs
     id="defs1">
    <rect
       x="-565.05473"
       y="1313.1998"
       width="312.51631"
       height="186.24709"
       id="rect18" />
    <rect
       x="969.52799"
       y="405.43898"
       width="8849.1464"
       height="7562.3184"
       id="rect17" />
    <rect
       x="706.79119"
       y="232.00016"
       width="2654.5135"
       height="2012.4665"
       id="rect16" />
    <rect
       x="-604.24005"
       y="1404.9918"
       width="13.368143"
       height="28.0731"
       id="rect15" />
    <rect
       x="-6320.921"
       y="2061.5927"
       width="8032.4319"
       height="5173.4307"
       id="rect14" />
    <rect
       x="-5873.5943"
       y="1789.3069"
       width="8752.0445"
       height="8051.8809"
       id="rect13" />
    <rect
       x="-5562.4105"
       y="1361.4291"
       width="8401.9627"
       height="4920.5939"
       id="rect12" />
    <rect
       x="-957.89726"
       y="1529.5456"
       width="7647.7281"
       height="4279.6377"
       id="rect11" />
    <rect
       x="-99.109596"
       y="454.25232"
       width="887.85681"
       height="396.43839"
       id="rect3" />
    <rect
       x="53.684364"
       y="70.202637"
       width="1763.325"
       height="1788.1024"
       id="rect1" />
  </defs>
  <g
     inkscape:label="Layer 1"
     inkscape:groupmode="layer"
     id="layer1">
    <text
       xml:space="preserve"
       transform="scale(0.27093333)"
       id="text3"
       style="font-style:normal;font-variant:normal;font-weight:normal;font-stretch:normal;font-size:146.667px;line-height:0;font-family:jw-icons-external;-inkscape-font-specification:jw-icons-external;text-align:center;letter-spacing:5.8px;word-spacing:0px;writing-mode:lr-tb;direction:ltr;white-space:pre;shape-inside:url(#rect3);display:inline;fill:#000000;stroke-width:755.906" />
    <text
       xml:space="preserve"
       style="font-size:173.333px;line-height:0;font-family:jw-icons-external;-inkscape-font-specification:jw-icons-external;text-align:center;letter-spacing:5.8px;word-spacing:0px;writing-mode:lr-tb;direction:ltr;text-anchor:middle;fill:#000000;stroke:#000000;stroke-opacity:0"
       x="-622.14398"
       y="1067.8145"
       id="text7"><tspan
         sodipodi:role="line"
         id="tspan7"
         x="-622.14398"
         y="1067.8145"></tspan><tspan
         sodipodi:role="line"
         id="tspan8"
         x="-622.14398"
         y="1067.8145" /><tspan
         sodipodi:role="line"
         x="-622.14398"
         y="1067.8145"
         id="tspan9" /><tspan
         sodipodi:role="line"
         x="-622.14398"
         y="1067.8145"
         id="tspan10" /></text>
    <text
       xml:space="preserve"
       id="text11"
       style="font-size:173.333px;line-height:0;font-family:jw-icons-external;-inkscape-font-specification:jw-icons-external;text-align:center;letter-spacing:5.8px;word-spacing:0px;writing-mode:lr-tb;direction:ltr;white-space:pre;shape-inside:url(#rect11);display:inline;fill:#000000;stroke:#000000;stroke-opacity:0" />
    <text
       xml:space="preserve"
       id="text13"
       style="font-size:173.333px;line-height:0;font-family:jw-icons-external;-inkscape-font-specification:jw-icons-external;text-align:center;letter-spacing:5.8px;word-spacing:0px;writing-mode:lr-tb;direction:ltr;white-space:pre;shape-inside:url(#rect13);display:inline;fill:#000000;stroke:#000000;stroke-opacity:0" />
    <text
       xml:space="preserve"
       id="text14"
       style="font-size:16px;line-height:0;font-family:jw-icons-external;-inkscape-font-specification:jw-icons-external;text-align:start;letter-spacing:5.8px;word-spacing:0px;writing-mode:lr-tb;direction:ltr;white-space:pre;shape-inside:url(#rect15);display:inline;fill:#000000;stroke:#000000;stroke-opacity:0" />
    <text
       xml:space="preserve"
       id="text15"
       style="font-size:16px;line-height:0;font-family:jw-icons-external;-inkscape-font-specification:jw-icons-external;text-align:start;letter-spacing:5.8px;word-spacing:0px;writing-mode:lr-tb;direction:ltr;white-space:pre;shape-inside:url(#rect16);display:inline;fill:#000000;stroke:#000000;stroke-opacity:0" />
    <text
       xml:space="preserve"
       id="text16"
       style="font-size:16px;line-height:1.5;font-family:jw-icons-external;-inkscape-font-specification:jw-icons-external;text-align:start;letter-spacing:5.8px;word-spacing:0px;writing-mode:lr-tb;direction:ltr;white-space:pre;shape-inside:url(#rect17);display:inline;fill:#000000;stroke:#000000;stroke-opacity:0" />
    <text
       xml:space="preserve"
       id="text17"
       style="font-size:16px;line-height:1.5;font-family:jw-icons-external;-inkscape-font-specification:jw-icons-external;text-align:start;letter-spacing:5.8px;word-spacing:0px;writing-mode:lr-tb;direction:ltr;white-space:pre;shape-inside:url(#rect18);display:inline;fill:#000000;stroke:#000000;stroke-opacity:0" />
    <text
       xml:space="preserve"
       style="font-size:533.333px;line-height:1.2;font-family:jw-icons-external;-inkscape-font-specification:jw-icons-external;text-align:start;letter-spacing:5.8px;word-spacing:0px;writing-mode:lr-tb;direction:ltr;text-anchor:start;fill:#000000;stroke:#000000;stroke-opacity:0"
       x="143.7877"
       y="307.89322"
       id="text20"><tspan
         sodipodi:role="line"
         id="tspan19"></tspan></text>
    <path
       d="m 144.09253,249.43094 q 2.92968,0 4.88281,1.95312 1.95312,0.97657 2.92969,3.90625 1.95312,1.95313 1.95312,4.88282 v 168.94531 q 0,4.88281 -2.92969,7.8125 -2.92968,2.92969 -7.8125,2.92969 -3.90625,0 -6.83593,-2.92969 -2.92969,-2.92969 -2.92969,-7.8125 V 260.17313 q 0,-3.90625 2.92969,-6.83594 2.92968,-3.90625 7.8125,-3.90625 z m 152.34375,170.89844 q 8.78906,0.97656 8.78906,9.76562 0,0.97656 -0.97656,1.95313 l -5.85938,35.15625 q -1.95312,7.8125 -10.74219,7.8125 -0.97656,0 -1.95312,0 -7.8125,-0.97657 -7.8125,-9.76563 0,-0.97656 0,-1.95312 l 6.83594,-35.15625 q 0.97656,-7.8125 9.76562,-7.8125 0.97656,0 1.95313,0 z m 210.9375,41.99218 q 0,0.97657 0,2.92969 0,3.90625 -2.92969,6.83594 -2.92969,2.92969 -6.83594,2.92969 -8.78906,0 -10.74219,-7.8125 L 446.8269,301.18875 396.04565,249.43094 q -6.83594,-7.8125 -6.83594,-18.55469 v -31.25 q 0,-10.74219 6.83594,-17.57812 7.8125,-7.8125 18.55469,-8.78907 h 7.8125 Q 420.45971,101.97 395.06909,73.649689 383.35034,59.001251 364.79565,59.001251 q 0,0 -0.97656,0 -0.97656,0 -1.95313,0 -0.97656,0 -1.95312,0 0,0 -0.97656,0 -18.55469,0 -30.27344,14.648438 Q 304.24878,101.97 302.29565,173.25906 h 6.83594 q 10.74219,0.97657 18.55469,8.78907 7.8125,6.83593 7.8125,17.57812 v 31.25 q 0,10.74219 -7.8125,18.55469 l -49.80469,51.75781 -41.01563,166.01563 q -1.95312,7.8125 -10.74218,7.8125 -0.97657,0 -1.95313,0 -7.8125,-1.95313 -7.8125,-9.76563 0,-0.97656 0,-2.92969 l 41.01563,-168.94531 q 0.97656,-1.95312 2.92968,-3.90625 l 7.8125,-8.78906 q -1.95312,0 -3.90625,-0.97656 l -95.70312,-50.78125 q -4.88281,-2.92969 -4.88281,-9.76563 v -22.46094 q 0,-2.92968 0.97656,-5.85937 l 28.32031,-42.96875 V 92.204376 Q 186.08471,79.509064 171.43628,69.743439 157.7644,59.977814 144.09253,58.024689 h -0.97657 q -13.67187,1.953125 -28.32031,11.71875 -13.67187,9.765625 -19.53125,22.460937 v 55.664064 l 27.34375,42.96875 q 1.95313,2.92969 1.95313,5.85937 v 22.46094 q 0,6.83594 -5.85938,9.76563 l -89.84375,47.85156 v 187.5 q 0,3.90625 -2.929687,6.83594 -2.929688,3.90625 -7.8125,3.90625 -3.90625,0 -6.835938,-3.90625 -2.929687,-2.92969 -2.929687,-6.83594 V 269.93875 q 0,-5.85937 5.859375,-8.78906 L 103.0769,213.29813 V 199.62625 L 75.73315,156.6575 q -1.953125,-2.92969 -1.953125,-5.85937 V 89.274689 q 0,-1.953125 1.953125,-4.882813 2.929688,-5.859375 7.8125,-13.671875 5.859375,-7.8125 22.46094,-20.507812 17.57812,-12.695313 37.10937,-12.695313 h 0.97657 q 19.53125,0 37.10937,12.695313 17.57813,12.695312 22.46094,20.507812 5.85937,7.8125 8.78906,13.671875 0.97656,2.929688 0.97656,4.882813 v 61.523441 q 0,2.92968 -1.95312,5.85937 l -27.34375,42.96875 v 13.67188 l 89.84375,47.85156 q 4.88281,2.92969 4.88281,8.78906 l 34.17969,-35.15625 q 1.95312,-0.97656 1.95312,-3.90625 v -31.25 q 0,-4.88281 -5.85937,-4.88281 h -17.57813 q -3.90625,0 -6.83593,-2.92969 -2.92969,-2.92969 -2.92969,-7.8125 -0.97656,-87.890624 31.25,-124.999999 7.8125,-7.8125 20.50781,-13.671875 13.67188,-6.835937 25.39063,-6.835937 0.97656,0 0.97656,0 0.97656,-0.976563 1.95312,-0.976563 0.97657,0 1.95313,0.976563 0.97656,0 1.95312,0 11.71875,0 24.41407,6.835937 13.67187,5.859375 20.50781,13.671875 33.20312,37.109375 32.22656,124.999999 0,4.88281 -2.92969,7.8125 -2.92968,2.92969 -7.8125,2.92969 h -17.57812 q -4.88281,0 -4.88281,4.88281 v 31.25 q 0,2.92969 1.95312,3.90625 l 51.75781,54.6875 q 1.95313,1.95313 2.92969,3.90625 z m -79.10157,-41.99218 q 0.97657,0 1.95313,0 8.78906,0 9.76562,7.8125 l 6.83594,35.15625 q 0,0.97656 0,1.95312 0,8.78906 -7.8125,9.76563 -0.97656,0 -1.95312,0 -8.78907,0 -10.74219,-7.8125 l -5.85938,-35.15625 q -0.97656,-0.97657 -0.97656,-1.95313 0,-8.78906 8.78906,-9.76562 z M 409.71753,290.44656 q 5.85937,2.92969 5.85937,9.76563 0,1.95312 -0.97656,3.90625 -3.90625,9.76562 -12.69531,18.55469 -7.8125,8.78906 -18.55469,14.64843 -10.74219,4.88282 -21.48438,5.85938 -16.60156,-0.97656 -32.22656,-12.69531 -15.625,-11.71875 -20.50781,-26.36719 -0.97656,-1.95313 -0.97656,-3.90625 0,-4.88281 2.92968,-7.8125 2.92969,-2.92969 6.83594,-2.92969 6.83594,0 9.76563,5.85938 3.90625,9.76562 13.67187,17.57812 9.76563,7.8125 20.50781,8.78906 6.83594,0 13.67188,-3.90625 6.83594,-3.90625 11.71875,-9.76562 5.85937,-5.85938 7.8125,-12.69531 2.92969,-5.85938 9.76562,-5.85938 1.95313,0 4.88282,0.97656 z"
       id="text23"
       style="font-size:500px;line-height:1.2;font-family:jw-icons-external;-inkscape-font-specification:jw-icons-external;letter-spacing:5.8px;word-spacing:0px;stroke:#000000;stroke-opacity:0"
       aria-label="" />
  </g>
</svg>
