<?xml version="1.0" encoding="UTF-8" standalone="no"?>
<!-- Created with Inkscape (http://www.inkscape.org/) -->

<svg
   width="512"
   height="512"
   viewBox="0 0 512 512"
   version="1.1"
   id="svg1"
   inkscape:version="1.4 (e7c3feb1, 2024-10-09)"
   sodipodi:docname="cart.svg"
   xmlns:inkscape="http://www.inkscape.org/namespaces/inkscape"
   xmlns:sodipodi="http://sodipodi.sourceforge.net/DTD/sodipodi-0.dtd"
   xmlns="http://www.w3.org/2000/svg"
   xmlns:svg="http://www.w3.org/2000/svg">
  <sodipodi:namedview
     id="namedview1"
     pagecolor="#ffffff"
     bordercolor="#000000"
     borderopacity="0.25"
     inkscape:showpageshadow="2"
     inkscape:pageopacity="0.0"
     inkscape:pagecheckerboard="0"
     inkscape:deskcolor="#d1d1d1"
     inkscape:document-units="mm"
     inkscape:zoom="0.54162325"
     inkscape:cx="222.47937"
     inkscape:cy="152.3199"
     inkscape:window-width="1440"
     inkscape:window-height="900"
     inkscape:window-x="0"
     inkscape:window-y="0"
     inkscape:window-maximized="0"
     inkscape:current-layer="layer1" />
  <defs
     id="defs1">
    <rect
       x="-565.05473"
       y="1313.1998"
       width="312.51631"
       height="186.24709"
       id="rect18" />
    <rect
       x="969.52799"
       y="405.43898"
       width="8849.1464"
       height="7562.3184"
       id="rect17" />
    <rect
       x="706.79119"
       y="232.00016"
       width="2654.5135"
       height="2012.4665"
       id="rect16" />
    <rect
       x="-604.24005"
       y="1404.9918"
       width="13.368143"
       height="28.0731"
       id="rect15" />
    <rect
       x="-6320.921"
       y="2061.5927"
       width="8032.4319"
       height="5173.4307"
       id="rect14" />
    <rect
       x="-5873.5943"
       y="1789.3069"
       width="8752.0445"
       height="8051.8809"
       id="rect13" />
    <rect
       x="-5562.4105"
       y="1361.4291"
       width="8401.9627"
       height="4920.5939"
       id="rect12" />
    <rect
       x="-957.89726"
       y="1529.5456"
       width="7647.7281"
       height="4279.6377"
       id="rect11" />
    <rect
       x="-99.109596"
       y="454.25232"
       width="887.85681"
       height="396.43839"
       id="rect3" />
    <rect
       x="53.684364"
       y="70.202637"
       width="1763.325"
       height="1788.1024"
       id="rect1" />
  </defs>
  <g
     inkscape:label="Layer 1"
     inkscape:groupmode="layer"
     id="layer1">
    <text
       xml:space="preserve"
       transform="scale(0.27093333)"
       id="text3"
       style="font-style:normal;font-variant:normal;font-weight:normal;font-stretch:normal;font-size:146.667px;line-height:0;font-family:jw-icons-external;-inkscape-font-specification:jw-icons-external;text-align:center;letter-spacing:5.8px;word-spacing:0px;writing-mode:lr-tb;direction:ltr;white-space:pre;shape-inside:url(#rect3);display:inline;fill:#000000;stroke-width:755.906" />
    <text
       xml:space="preserve"
       style="font-size:173.333px;line-height:0;font-family:jw-icons-external;-inkscape-font-specification:jw-icons-external;text-align:center;letter-spacing:5.8px;word-spacing:0px;writing-mode:lr-tb;direction:ltr;text-anchor:middle;fill:#000000;stroke:#000000;stroke-opacity:0"
       x="-622.14398"
       y="1067.8145"
       id="text7"><tspan
         sodipodi:role="line"
         id="tspan7"
         x="-622.14398"
         y="1067.8145"></tspan><tspan
         sodipodi:role="line"
         id="tspan8"
         x="-622.14398"
         y="1067.8145" /><tspan
         sodipodi:role="line"
         x="-622.14398"
         y="1067.8145"
         id="tspan9" /><tspan
         sodipodi:role="line"
         x="-622.14398"
         y="1067.8145"
         id="tspan10" /></text>
    <text
       xml:space="preserve"
       id="text11"
       style="font-size:173.333px;line-height:0;font-family:jw-icons-external;-inkscape-font-specification:jw-icons-external;text-align:center;letter-spacing:5.8px;word-spacing:0px;writing-mode:lr-tb;direction:ltr;white-space:pre;shape-inside:url(#rect11);display:inline;fill:#000000;stroke:#000000;stroke-opacity:0" />
    <text
       xml:space="preserve"
       id="text13"
       style="font-size:173.333px;line-height:0;font-family:jw-icons-external;-inkscape-font-specification:jw-icons-external;text-align:center;letter-spacing:5.8px;word-spacing:0px;writing-mode:lr-tb;direction:ltr;white-space:pre;shape-inside:url(#rect13);display:inline;fill:#000000;stroke:#000000;stroke-opacity:0" />
    <text
       xml:space="preserve"
       id="text14"
       style="font-size:16px;line-height:0;font-family:jw-icons-external;-inkscape-font-specification:jw-icons-external;text-align:start;letter-spacing:5.8px;word-spacing:0px;writing-mode:lr-tb;direction:ltr;white-space:pre;shape-inside:url(#rect15);display:inline;fill:#000000;stroke:#000000;stroke-opacity:0" />
    <text
       xml:space="preserve"
       id="text15"
       style="font-size:16px;line-height:0;font-family:jw-icons-external;-inkscape-font-specification:jw-icons-external;text-align:start;letter-spacing:5.8px;word-spacing:0px;writing-mode:lr-tb;direction:ltr;white-space:pre;shape-inside:url(#rect16);display:inline;fill:#000000;stroke:#000000;stroke-opacity:0" />
    <text
       xml:space="preserve"
       id="text16"
       style="font-size:16px;line-height:1.5;font-family:jw-icons-external;-inkscape-font-specification:jw-icons-external;text-align:start;letter-spacing:5.8px;word-spacing:0px;writing-mode:lr-tb;direction:ltr;white-space:pre;shape-inside:url(#rect17);display:inline;fill:#000000;stroke:#000000;stroke-opacity:0" />
    <text
       xml:space="preserve"
       id="text17"
       style="font-size:16px;line-height:1.5;font-family:jw-icons-external;-inkscape-font-specification:jw-icons-external;text-align:start;letter-spacing:5.8px;word-spacing:0px;writing-mode:lr-tb;direction:ltr;white-space:pre;shape-inside:url(#rect18);display:inline;fill:#000000;stroke:#000000;stroke-opacity:0" />
    <text
       xml:space="preserve"
       style="font-size:533.333px;line-height:1.2;font-family:jw-icons-external;-inkscape-font-specification:jw-icons-external;text-align:start;letter-spacing:5.8px;word-spacing:0px;writing-mode:lr-tb;direction:ltr;text-anchor:start;fill:#000000;stroke:#000000;stroke-opacity:0"
       x="143.7877"
       y="307.89322"
       id="text20"><tspan
         sodipodi:role="line"
         id="tspan19"></tspan></text>
    <path
       d="m 97.335781,144.17749 -40.039062,35.15625 -30.273438,132.8125 q -1.953125,7.8125 -9.765625,7.8125 -1.953125,0 -2.929687,0 -7.8125004,-1.95312 -7.8125004,-10.74219 0,-0.97656 0,-1.95312 L 37.765469,171.52124 q 0.976562,-2.92969 3.90625,-4.88281 L 82.687344,128.55249 81.710781,110.97437 H 70.968594 q -9.765625,0 -9.765625,-9.76563 Q 60.226406,45.544678 82.687344,21.130615 95.382656,7.4587402 113.93734,7.4587402 l 2.92969,10.7421878 0.97656,-10.7421878 q 18.55469,0 31.25,13.6718748 24.41407,27.34375 24.41407,80.078125 0,4.88281 -3.90625,7.8125 -2.92969,2.92969 -6.83594,2.92969 l -13.67188,-0.97656 0.97657,18.55468 31.25,38.08594 24.41406,41.01563 42.96875,-51.75782 q 2.92969,-3.90625 7.8125,-3.90625 3.90625,0 6.83594,3.90625 3.90625,2.92969 3.90625,6.83594 0,3.90625 -2.92969,6.83594 l -51.75781,62.5 q -2.92969,3.90625 -7.8125,3.90625 -0.97657,0 -0.97657,0 -5.85937,-0.97656 -7.8125,-5.85938 l -31.25,-51.75781 -30.27343,-36.13281 q -5.85938,-5.85938 -5.85938,-13.67188 v -18.55468 q 0,-5.85938 2.92969,-10.74219 2.92969,-4.882815 6.83594,-6.83594 4.88281,-2.929687 10.74218,-2.929687 h 2.92969 q -0.97656,-30.273438 -17.57812,-54.6875 -6.83594,-7.8125 -16.60157,-7.8125 0,0 -0.97656,0 l -1.95312,-9.765625 v 9.765625 q -0.97657,0 -0.97657,0 -9.76562,0 -16.601559,7.8125 -15.625,23.4375 -15.625,51.757812 0,1.953125 0,2.929688 h 0.976563 0.976562 q 7.8125,0 13.671875,5.859375 5.859379,5.859372 5.859379,13.671872 v 0.97657 18.55468 q 0,8.78907 -5.859379,14.64844 z m -11.71875,258.78906 q 7.8125,0.97657 13.671875,6.83594 6.835934,5.85938 7.812504,13.67188 l 13.67187,71.28906 q 0,0.97656 0,1.95312 0,8.78907 -7.8125,10.74219 -0.97656,0 -1.95312,0 -8.78907,0 -10.74219,-8.78906 L 86.593594,426.40405 q -0.976563,-1.95312 -1.953125,-1.95312 h -46.875 q -3.90625,0 -7.8125,-2.92969 -2.929688,-3.90625 -2.929688,-7.8125 0,-0.97656 0.976563,-2.92969 L 69.015469,244.76343 q 1.953125,-7.8125 10.742187,-7.8125 3.90625,0 6.835938,2.92969 2.929687,2.92968 2.929687,6.83593 0,1.95313 0,2.92969 L 51.437344,402.96655 Z m 86.914059,-158.20312 41.99219,166.01562 q 0,1.95313 0,2.92969 0,3.90625 -2.92969,7.8125 -2.92968,2.92969 -6.83593,2.92969 h -47.85157 q -0.97656,0.97656 -0.97656,0.97656 l -14.64844,73.24219 q -0.97656,8.78906 -9.76562,8.78906 -0.97656,0 -1.95313,0 -8.78906,-1.95312 -8.78906,-10.74219 0,-0.97656 0.97656,-1.95312 l 13.67188,-72.26563 q 0.97656,-7.8125 6.83594,-12.69531 6.83593,-5.85937 14.64843,-6.83594 h 34.17969 L 152.99984,249.64624 q -0.97656,-0.97656 -0.97656,-2.92969 0,-3.90625 2.92969,-6.83593 3.90625,-2.92969 7.8125,-2.92969 7.8125,0 9.76562,7.8125 z m 323.24219,200.19531 q 4.88281,0 7.8125,2.92969 2.92969,2.92969 2.92969,7.8125 0,2.92969 -1.95313,4.88281 -0.97656,1.95313 -3.90625,2.92969 -1.95312,1.95312 -4.88281,1.95312 h -9.76562 v 10.74219 q 0,3.90625 -3.90625,6.83594 -2.92969,3.90625 -6.83594,3.90625 -3.90625,0 -7.8125,-3.90625 -2.92969,-2.92969 -2.92969,-6.83594 V 465.46655 H 298.50766 v 10.74219 q 0,3.90625 -3.90625,6.83594 -2.92969,3.90625 -6.83594,3.90625 -3.90625,0 -7.8125,-3.90625 -2.92969,-2.92969 -2.92969,-6.83594 v -10.74219 h -9.76562 q -4.88282,0 -7.8125,-2.92968 -2.92969,-2.92969 -2.92969,-7.8125 0,-3.90625 2.92969,-6.83594 2.92968,-2.92969 7.8125,-2.92969 h 9.76562 v -343.75 q 0,-3.90625 2.92969,-6.835937 3.90625,-3.90625 7.8125,-3.90625 h 187.5 q 3.90625,0 6.83594,3.90625 3.90625,2.929687 3.90625,6.835937 v 343.75 z M 298.50766,299.45093 v 62.5 h 166.01562 v -62.5 z m 0,-187.5 V 277.96655 H 464.52328 V 111.95093 Z m 0,333.00781 h 166.01562 v -62.5 H 298.50766 Z M 335.61703,203.7478 v -46.875 h 15.625 v 47.85157 0.97656 q 0,4.88281 -0.97656,9.76562 -0.97656,4.88282 -3.90625,8.78907 -2.92969,2.92968 -6.83594,4.88281 -4.88281,1.95312 -9.76562,1.95312 0,0 -0.97657,0 -5.85937,0 -11.71875,-0.97656 -3.90625,-1.95312 -7.8125,-3.90625 l 3.90625,-14.64844 q 3.90625,1.95313 6.83594,3.90625 3.90625,0.97657 6.83594,1.95313 0.97656,0 0.97656,0 3.90625,0 5.85938,-3.90625 1.95312,-3.90625 1.95312,-8.78906 z m 97.65625,-46.875 h 15.625 l -20.50781,73.24219 h -13.67188 l -10.74218,-43.94531 -11.71875,43.94531 H 379.56234 L 358.07797,156.8728 h 16.60156 l 9.76563,44.92188 1.95312,8.78906 1.95313,-8.78906 8.78906,-42.96875 h 13.67187 l 9.76563,42.96875 0.97656,8.78906 1.95313,-8.78906 z"
       id="text35"
       style="font-size:500px;line-height:1.2;font-family:jw-icons-external;-inkscape-font-specification:jw-icons-external;letter-spacing:5.8px;word-spacing:0px;stroke:#000000;stroke-opacity:0"
       aria-label="" />
  </g>
</svg>
