<?xml version="1.0" encoding="UTF-8" standalone="no"?>
<!-- Created with Inkscape (http://www.inkscape.org/) -->

<svg
   width="512"
   height="512"
   viewBox="0 0 512 512"
   version="1.1"
   id="svg1"
   inkscape:version="1.4 (e7c3feb1, 2024-10-09)"
   sodipodi:docname="check-list.svg"
   xmlns:inkscape="http://www.inkscape.org/namespaces/inkscape"
   xmlns:sodipodi="http://sodipodi.sourceforge.net/DTD/sodipodi-0.dtd"
   xmlns="http://www.w3.org/2000/svg"
   xmlns:svg="http://www.w3.org/2000/svg">
  <sodipodi:namedview
     id="namedview1"
     pagecolor="#ffffff"
     bordercolor="#000000"
     borderopacity="0.25"
     inkscape:showpageshadow="2"
     inkscape:pageopacity="0.0"
     inkscape:pagecheckerboard="0"
     inkscape:deskcolor="#d1d1d1"
     inkscape:document-units="mm"
     inkscape:zoom="0.45394329"
     inkscape:cx="42.956908"
     inkscape:cy="296.29252"
     inkscape:window-width="1440"
     inkscape:window-height="872"
     inkscape:window-x="0"
     inkscape:window-y="28"
     inkscape:window-maximized="0"
     inkscape:current-layer="layer1" />
  <defs
     id="defs1">
    <rect
       x="-565.05473"
       y="1313.1998"
       width="312.51631"
       height="186.24709"
       id="rect18" />
    <rect
       x="969.52799"
       y="405.43898"
       width="8849.1464"
       height="7562.3184"
       id="rect17" />
    <rect
       x="706.79119"
       y="232.00016"
       width="2654.5135"
       height="2012.4665"
       id="rect16" />
    <rect
       x="-604.24005"
       y="1404.9918"
       width="13.368143"
       height="28.0731"
       id="rect15" />
    <rect
       x="-6320.921"
       y="2061.5927"
       width="8032.4319"
       height="5173.4307"
       id="rect14" />
    <rect
       x="-5873.5943"
       y="1789.3069"
       width="8752.0445"
       height="8051.8809"
       id="rect13" />
    <rect
       x="-5562.4105"
       y="1361.4291"
       width="8401.9627"
       height="4920.5939"
       id="rect12" />
    <rect
       x="-957.89726"
       y="1529.5456"
       width="7647.7281"
       height="4279.6377"
       id="rect11" />
    <rect
       x="-99.109596"
       y="454.25232"
       width="887.85681"
       height="396.43839"
       id="rect3" />
    <rect
       x="53.684364"
       y="70.202637"
       width="1763.325"
       height="1788.1024"
       id="rect1" />
  </defs>
  <g
     inkscape:label="Layer 1"
     inkscape:groupmode="layer"
     id="layer1">
    <text
       xml:space="preserve"
       transform="scale(0.27093333)"
       id="text3"
       style="font-style:normal;font-variant:normal;font-weight:normal;font-stretch:normal;font-size:146.667px;line-height:0;font-family:jw-icons-external;-inkscape-font-specification:jw-icons-external;text-align:center;letter-spacing:5.8px;word-spacing:0px;writing-mode:lr-tb;direction:ltr;white-space:pre;shape-inside:url(#rect3);display:inline;fill:#000000;fill-opacity:1;stroke-width:755.906" />
    <text
       xml:space="preserve"
       style="font-size:173.333px;line-height:0;font-family:jw-icons-external;-inkscape-font-specification:jw-icons-external;text-align:center;letter-spacing:5.8px;word-spacing:0px;writing-mode:lr-tb;direction:ltr;text-anchor:middle;fill:#000000;stroke:#000000;stroke-opacity:0;fill-opacity:1"
       x="-622.14398"
       y="1067.8145"
       id="text7"><tspan
         sodipodi:role="line"
         id="tspan7"
         x="-622.14398"
         y="1067.8145" /><tspan
         sodipodi:role="line"
         id="tspan8"
         x="-622.14398"
         y="1067.8145" /><tspan
         sodipodi:role="line"
         x="-622.14398"
         y="1067.8145"
         id="tspan9" /><tspan
         sodipodi:role="line"
         x="-622.14398"
         y="1067.8145"
         id="tspan10" /></text>
    <text
       xml:space="preserve"
       id="text11"
       style="font-size:173.333px;line-height:0;font-family:jw-icons-external;-inkscape-font-specification:jw-icons-external;text-align:center;letter-spacing:5.8px;word-spacing:0px;writing-mode:lr-tb;direction:ltr;white-space:pre;shape-inside:url(#rect11);display:inline;fill:#000000;fill-opacity:1;stroke:#000000;stroke-opacity:0" />
    <text
       xml:space="preserve"
       id="text13"
       style="font-size:173.333px;line-height:0;font-family:jw-icons-external;-inkscape-font-specification:jw-icons-external;text-align:center;letter-spacing:5.8px;word-spacing:0px;writing-mode:lr-tb;direction:ltr;white-space:pre;shape-inside:url(#rect13);display:inline;fill:#000000;fill-opacity:1;stroke:#000000;stroke-opacity:0" />
    <text
       xml:space="preserve"
       id="text14"
       style="font-size:16px;line-height:0;font-family:jw-icons-external;-inkscape-font-specification:jw-icons-external;text-align:start;letter-spacing:5.8px;word-spacing:0px;writing-mode:lr-tb;direction:ltr;white-space:pre;shape-inside:url(#rect15);display:inline;fill:#000000;fill-opacity:1;stroke:#000000;stroke-opacity:0" />
    <text
       xml:space="preserve"
       id="text15"
       style="font-size:16px;line-height:0;font-family:jw-icons-external;-inkscape-font-specification:jw-icons-external;text-align:start;letter-spacing:5.8px;word-spacing:0px;writing-mode:lr-tb;direction:ltr;white-space:pre;shape-inside:url(#rect16);display:inline;fill:#000000;fill-opacity:1;stroke:#000000;stroke-opacity:0" />
    <text
       xml:space="preserve"
       id="text16"
       style="font-size:16px;line-height:1.5;font-family:jw-icons-external;-inkscape-font-specification:jw-icons-external;text-align:start;letter-spacing:5.8px;word-spacing:0px;writing-mode:lr-tb;direction:ltr;white-space:pre;shape-inside:url(#rect17);display:inline;fill:#000000;fill-opacity:1;stroke:#000000;stroke-opacity:0" />
    <text
       xml:space="preserve"
       id="text17"
       style="font-size:16px;line-height:1.5;font-family:jw-icons-external;-inkscape-font-specification:jw-icons-external;text-align:start;letter-spacing:5.8px;word-spacing:0px;writing-mode:lr-tb;direction:ltr;white-space:pre;shape-inside:url(#rect18);display:inline;fill:#000000;fill-opacity:1;stroke:#000000;stroke-opacity:0" />
    <text
       xml:space="preserve"
       style="font-size:533.333px;line-height:1.2;font-family:jw-icons-external;-inkscape-font-specification:jw-icons-external;text-align:start;letter-spacing:5.8px;word-spacing:0px;writing-mode:lr-tb;direction:ltr;text-anchor:start;fill:#000000;stroke:#000000;stroke-opacity:0;fill-opacity:1"
       x="143.7877"
       y="307.89322"
       id="text20"><tspan
         sodipodi:role="line"
         id="tspan19" /></text>
    <text
       xml:space="preserve"
       style="font-size:500px;line-height:73.9;font-family:jw-icons-external;-inkscape-font-specification:jw-icons-external;text-align:start;letter-spacing:-10.72px;word-spacing:0px;writing-mode:lr-tb;direction:ltr;text-anchor:start;fill:#000000;fill-opacity:1;stroke:#000000;stroke-opacity:0"
       x="63.884632"
       y="438.38074"
       id="text1"><tspan
         sodipodi:role="line"
         id="tspan1"></tspan></text>
    <path
       d="m 404.31949,99.036591 -0.97657,292.968749 q 0.97657,0.97656 0.97657,1.95313 0,0.97656 -0.97657,1.95312 0,1.95313 -1.95312,2.92969 l -62.5,62.5 q -0.97656,1.95312 -2.92969,1.95312 -0.97656,0.97657 -1.95312,0.97657 -0.97657,0 -1.95313,-0.97657 H 123.06949 q -3.90625,0 -6.83594,-2.92968 -2.92969,-2.92969 -2.92969,-6.83594 V 99.036591 q 0,-3.90625 2.92969,-6.835938 2.92969,-3.90625 6.83594,-3.90625 h 21.48437 q 3.90625,0 6.83594,3.90625 2.92969,2.929688 2.92969,6.835938 0,3.906249 -2.92969,7.812499 -2.92969,2.92969 -6.83594,2.92969 h -10.74219 v 333.00781 h 187.5 v -51.75781 q 0,-4.88281 2.92969,-7.8125 2.92969,-2.92969 7.8125,-2.92969 h 51.75781 V 109.77878 h -10.74218 q -3.90625,0 -6.83594,-2.92969 -2.92969,-3.90625 -2.92969,-7.812499 0,-3.90625 2.92969,-6.835938 2.92969,-3.90625 6.83594,-3.90625 h 21.48437 q 3.90625,0 6.83594,3.90625 2.92969,2.929688 2.92969,6.835938 z M 369.16324,400.7944 h -27.34375 v 27.34375 z M 415.06167,47.278778 q 12.69532,0 21.48438,8.789063 9.76562,8.789062 9.76562,22.460937 V 474.03659 q 0,12.69531 -9.76562,21.48438 -8.78906,9.76562 -21.48438,9.76562 h -312.5 q -12.695308,0 -22.460933,-9.76562 -8.789063,-8.78907 -8.789063,-21.48438 V 78.528778 q 0,-13.671875 8.789063,-22.460937 9.765625,-8.789063 22.460933,-8.789063 h 73.24219 V 36.536591 q 0,-3.90625 2.92969,-6.835938 2.92969,-3.90625 6.83594,-3.90625 h 37.10937 q 4.88281,-7.8125 15.625,-13.671875 10.74219,-6.8359374 20.50781,-6.8359374 9.76563,0 20.50782,6.8359374 10.74218,5.859375 15.625,13.671875 h 37.10937 q 3.90625,0 6.83594,3.90625 2.92969,2.929688 2.92969,6.835938 v 10.742187 z m -218.75,0 v 41.015625 h 125 V 47.278778 h -33.20312 q -6.83594,0 -9.76563,-6.835937 -4.88281,-13.671875 -19.53125,-13.671875 -14.64843,0 -19.53125,13.671875 -2.92968,6.835937 -9.76562,6.835937 z M 425.80386,474.03659 V 78.528778 q 0,-4.882812 -3.90625,-7.8125 -2.92969,-2.929687 -6.83594,-2.929687 h -73.24218 v 31.25 q 0,3.906249 -2.92969,7.812499 -2.92969,2.92969 -6.83594,2.92969 H 185.56949 q -3.90625,0 -6.83594,-2.92969 -2.92969,-3.90625 -2.92969,-7.812499 v -31.25 h -73.24219 q -3.906246,0 -7.812496,2.929687 -2.929687,2.929688 -2.929687,7.8125 V 474.03659 q 0,3.90625 2.929687,6.83594 3.90625,3.90625 7.812496,3.90625 h 312.5 q 3.90625,0 6.83594,-3.90625 3.90625,-2.92969 3.90625,-6.83594 z M 255.88199,314.8569 q -2.92969,2.92969 -7.8125,2.92969 -3.90625,0 -6.83594,-2.92969 l -41.99219,-41.99218 q -2.92969,-2.92969 -2.92969,-6.83594 0,-4.88281 2.92969,-7.8125 2.92969,-2.92969 6.83594,-2.92969 4.88281,0 7.8125,2.92969 l 34.17969,34.17969 76.17187,-75.19532 q 2.92969,-3.90625 6.83594,-3.90625 4.88281,0 7.8125,3.90625 2.92969,2.92969 2.92969,6.83594 0,3.90625 -2.92969,6.83594 z"
       id="text2"
       style="font-size:500px;line-height:73.9;font-family:jw-icons-external;-inkscape-font-specification:jw-icons-external;letter-spacing:-10.72px;word-spacing:0px;stroke:#000000;stroke-opacity:0"
       aria-label="" />
  </g>
</svg>
