<?xml version="1.0" encoding="UTF-8" standalone="no"?>
<!-- Created with Inkscape (http://www.inkscape.org/) -->

<svg
   width="512"
   height="512"
   viewBox="0 0 512 512"
   version="1.1"
   id="svg1"
   inkscape:version="1.4 (e7c3feb1, 2024-10-09)"
   sodipodi:docname="children.svg"
   xmlns:inkscape="http://www.inkscape.org/namespaces/inkscape"
   xmlns:sodipodi="http://sodipodi.sourceforge.net/DTD/sodipodi-0.dtd"
   xmlns="http://www.w3.org/2000/svg"
   xmlns:svg="http://www.w3.org/2000/svg">
  <sodipodi:namedview
     id="namedview1"
     pagecolor="#ffffff"
     bordercolor="#000000"
     borderopacity="0.25"
     inkscape:showpageshadow="2"
     inkscape:pageopacity="0.0"
     inkscape:pagecheckerboard="0"
     inkscape:deskcolor="#d1d1d1"
     inkscape:document-units="mm"
     inkscape:zoom="0.8382894"
     inkscape:cx="255.87822"
     inkscape:cy="319.10221"
     inkscape:window-width="1440"
     inkscape:window-height="900"
     inkscape:window-x="0"
     inkscape:window-y="0"
     inkscape:window-maximized="0"
     inkscape:current-layer="layer1" />
  <defs
     id="defs1">
    <rect
       x="-565.05473"
       y="1313.1998"
       width="312.51631"
       height="186.24709"
       id="rect18" />
    <rect
       x="969.52799"
       y="405.43898"
       width="8849.1464"
       height="7562.3184"
       id="rect17" />
    <rect
       x="706.79119"
       y="232.00016"
       width="2654.5135"
       height="2012.4665"
       id="rect16" />
    <rect
       x="-604.24005"
       y="1404.9918"
       width="13.368143"
       height="28.0731"
       id="rect15" />
    <rect
       x="-6320.921"
       y="2061.5927"
       width="8032.4319"
       height="5173.4307"
       id="rect14" />
    <rect
       x="-5873.5943"
       y="1789.3069"
       width="8752.0445"
       height="8051.8809"
       id="rect13" />
    <rect
       x="-5562.4105"
       y="1361.4291"
       width="8401.9627"
       height="4920.5939"
       id="rect12" />
    <rect
       x="-957.89726"
       y="1529.5456"
       width="7647.7281"
       height="4279.6377"
       id="rect11" />
    <rect
       x="-99.109596"
       y="454.25232"
       width="887.85681"
       height="396.43839"
       id="rect3" />
    <rect
       x="53.684364"
       y="70.202637"
       width="1763.325"
       height="1788.1024"
       id="rect1" />
  </defs>
  <g
     inkscape:label="Layer 1"
     inkscape:groupmode="layer"
     id="layer1">
    <text
       xml:space="preserve"
       transform="scale(0.27093333)"
       id="text3"
       style="font-style:normal;font-variant:normal;font-weight:normal;font-stretch:normal;font-size:146.667px;line-height:0;font-family:jw-icons-external;-inkscape-font-specification:jw-icons-external;text-align:center;letter-spacing:5.8px;word-spacing:0px;writing-mode:lr-tb;direction:ltr;white-space:pre;shape-inside:url(#rect3);display:inline;fill:#000000;stroke-width:755.906" />
    <text
       xml:space="preserve"
       style="font-size:173.333px;line-height:0;font-family:jw-icons-external;-inkscape-font-specification:jw-icons-external;text-align:center;letter-spacing:5.8px;word-spacing:0px;writing-mode:lr-tb;direction:ltr;text-anchor:middle;fill:#000000;stroke:#000000;stroke-opacity:0"
       x="-622.14398"
       y="1067.8145"
       id="text7"><tspan
         sodipodi:role="line"
         id="tspan7"
         x="-622.14398"
         y="1067.8145"></tspan><tspan
         sodipodi:role="line"
         id="tspan8"
         x="-622.14398"
         y="1067.8145" /><tspan
         sodipodi:role="line"
         x="-622.14398"
         y="1067.8145"
         id="tspan9" /><tspan
         sodipodi:role="line"
         x="-622.14398"
         y="1067.8145"
         id="tspan10" /></text>
    <text
       xml:space="preserve"
       id="text11"
       style="font-size:173.333px;line-height:0;font-family:jw-icons-external;-inkscape-font-specification:jw-icons-external;text-align:center;letter-spacing:5.8px;word-spacing:0px;writing-mode:lr-tb;direction:ltr;white-space:pre;shape-inside:url(#rect11);display:inline;fill:#000000;stroke:#000000;stroke-opacity:0" />
    <text
       xml:space="preserve"
       id="text13"
       style="font-size:173.333px;line-height:0;font-family:jw-icons-external;-inkscape-font-specification:jw-icons-external;text-align:center;letter-spacing:5.8px;word-spacing:0px;writing-mode:lr-tb;direction:ltr;white-space:pre;shape-inside:url(#rect13);display:inline;fill:#000000;stroke:#000000;stroke-opacity:0" />
    <text
       xml:space="preserve"
       id="text14"
       style="font-size:16px;line-height:0;font-family:jw-icons-external;-inkscape-font-specification:jw-icons-external;text-align:start;letter-spacing:5.8px;word-spacing:0px;writing-mode:lr-tb;direction:ltr;white-space:pre;shape-inside:url(#rect15);display:inline;fill:#000000;stroke:#000000;stroke-opacity:0" />
    <text
       xml:space="preserve"
       id="text15"
       style="font-size:16px;line-height:0;font-family:jw-icons-external;-inkscape-font-specification:jw-icons-external;text-align:start;letter-spacing:5.8px;word-spacing:0px;writing-mode:lr-tb;direction:ltr;white-space:pre;shape-inside:url(#rect16);display:inline;fill:#000000;stroke:#000000;stroke-opacity:0" />
    <text
       xml:space="preserve"
       id="text16"
       style="font-size:16px;line-height:1.5;font-family:jw-icons-external;-inkscape-font-specification:jw-icons-external;text-align:start;letter-spacing:5.8px;word-spacing:0px;writing-mode:lr-tb;direction:ltr;white-space:pre;shape-inside:url(#rect17);display:inline;fill:#000000;stroke:#000000;stroke-opacity:0" />
    <text
       xml:space="preserve"
       id="text17"
       style="font-size:16px;line-height:1.5;font-family:jw-icons-external;-inkscape-font-specification:jw-icons-external;text-align:start;letter-spacing:5.8px;word-spacing:0px;writing-mode:lr-tb;direction:ltr;white-space:pre;shape-inside:url(#rect18);display:inline;fill:#000000;stroke:#000000;stroke-opacity:0" />
    <text
       xml:space="preserve"
       style="font-size:533.333px;line-height:1.2;font-family:jw-icons-external;-inkscape-font-specification:jw-icons-external;text-align:start;letter-spacing:5.8px;word-spacing:0px;writing-mode:lr-tb;direction:ltr;text-anchor:start;fill:#000000;stroke:#000000;stroke-opacity:0"
       x="143.7877"
       y="307.89322"
       id="text20"><tspan
         sodipodi:role="line"
         id="tspan19"></tspan></text>
    <path
       d="m 472.97774,303.80902 q 23.4375,23.4375 24.41407,131.83594 0,3.90625 -3.90625,6.83594 -2.92969,3.90625 -6.83594,3.90625 -3.90625,0 -7.8125,-3.90625 -2.92969,-2.92969 -2.92969,-6.83594 0,-36.13281 -4.88281,-72.26563 -3.90625,-37.10937 -12.69531,-45.89843 -15.625,-15.625 -34.17969,-34.17969 -17.57813,16.60156 -41.99219,16.60156 -23.4375,0 -41.01562,-16.60156 -19.53125,19.53125 -34.17969,34.17969 -8.78906,8.78906 -13.67188,45.89843 -4.88281,36.13282 -4.88281,72.26563 0,3.90625 -2.92969,6.83594 -2.92968,3.90625 -6.83593,3.90625 v 0 q -2.92969,0 -5.85938,-1.95313 -1.95312,-0.97656 -3.90625,-3.90625 -0.97656,-1.95312 -0.97656,-4.88281 0,-108.39844 23.4375,-131.83594 20.50781,-20.50781 41.99219,-41.99219 0,0 0.97656,-0.97656 0.97656,-0.97656 2.92969,-1.95312 1.95312,0 3.90625,0 3.90625,0 6.83593,2.92968 0.97657,0 0.97657,0.97657 13.67187,15.625 33.20312,16.60156 20.50781,-1.95313 33.20313,-16.60156 1.95312,-1.95313 4.88281,-2.92969 0,-0.97656 0.97656,-0.97656 0.97656,0 2.92969,0 0.97656,0 1.95312,0 0,0 0.97657,0 1.95312,0.97656 2.92968,1.95312 v 0 q 0.97657,0 0.97657,0.97656 21.48437,20.50782 41.99218,41.99219 z M 180.00899,259.86371 q 28.32032,19.53125 53.71094,42.96875 23.4375,23.4375 34.17969,131.83594 0,0 0,0.97656 0,9.76562 -9.76563,10.74219 0,0 -0.97656,0 -8.78906,0 -9.76562,-9.76563 -3.90625,-36.13281 -11.71875,-73.24219 -7.8125,-37.10937 -16.60157,-44.92187 -7.8125,-7.8125 -19.53125,-17.57813 -24.41406,41.01563 -56.64062,41.01563 -32.22656,0 -57.617188,-40.03906 -10.742187,8.78906 -18.554687,16.60156 -5.859375,5.85937 -11.71875,27.34375 -5.859375,20.50781 -10.742188,44.92187 -3.90625,23.4375 -5.859375,45.89844 -0.976562,9.76563 -9.765625,9.76563 -0.976562,0 -0.976562,0 -9.765625,-0.97657 -9.765625,-10.74219 0,-0.97656 0,-0.97656 10.742187,-108.39844 34.179687,-131.83594 25.390625,-23.4375 53.710933,-42.96875 2.92969,-0.97656 5.85938,-0.97656 3.90625,0 6.83594,2.92968 3.90625,2.92969 3.90625,6.83594 0,5.85938 -4.88282,8.78906 -5.85937,3.90625 -15.625,11.71875 19.53125,32.22657 41.01563,32.22657 21.48437,0 41.01562,-33.20313 -11.71875,-7.8125 -15.625,-10.74219 -4.88281,-2.92968 -4.88281,-8.78906 0,-3.90625 2.92969,-6.83594 3.90625,-2.92968 7.8125,-2.92968 2.92969,0 5.85937,0.97656 z m 130.85938,-37.10938 q -0.97656,-1.95312 -1.95313,-3.90625 -9.76562,-64.45312 -9.76562,-84.96093 1.95312,-22.46094 18.55469,-37.109379 10.74218,-10.742188 29.29687,-17.578125 18.55469,-7.8125 34.17969,-7.8125 0,0 0.97656,0 15.625,0 34.17969,7.8125 19.53125,6.835937 31.25,17.578125 16.60156,14.648439 17.57812,37.109379 0,20.50781 -9.76562,84.96093 -0.97656,1.95313 -1.95313,3.90625 -10.74218,14.64844 -32.22656,25.39063 -20.50781,10.74219 -39.0625,10.74219 -18.55469,0 -40.03906,-10.74219 -20.50781,-10.74219 -31.25,-25.39063 z m 124.02344,-9.76562 q 4.88281,-34.17969 7.8125,-57.61719 l -26.36719,8.78906 q -0.97656,0.97657 -2.92969,0.97657 -3.90625,0 -7.8125,-2.92969 -2.92969,-3.90625 -2.92969,-7.8125 v -2.92969 q -14.64843,8.78906 -38.08593,16.60156 -22.46094,6.83594 -40.03907,6.83594 1.95313,18.55469 4.88282,38.08594 8.78906,9.76562 23.4375,17.57812 15.625,6.83594 29.29687,6.83594 8.78906,0 18.55469,-2.92969 10.74219,-2.92968 19.53125,-8.78906 8.78906,-5.85937 14.64844,-12.69531 z M 332.35274,111.42621 q -10.74218,8.78906 -12.69531,22.46094 0,5.85937 1.95313,20.50781 10.74218,0 22.46093,-1.95313 12.69532,-1.95312 32.22657,-10.74218 20.50781,-8.78907 27.34375,-23.4375 2.92968,-5.85938 9.76562,-5.85938 3.90625,0 6.83594,3.90625 3.90625,2.92969 3.90625,6.83594 v 16.60156 l 17.57812,-5.85937 q 0.97657,0 2.92969,0 v 0 q -1.95312,-13.67188 -11.71875,-22.46094 -21.48437,-19.531252 -50.78125,-19.531252 -28.32031,0 -49.80469,19.531252 z M 37.43087,265.72308 q -4.882813,-1.95312 -5.859375,-5.85937 -3.90625,-8.78906 -3.90625,-17.57813 0,-19.53125 13.671875,-33.20312 12.695312,-11.71875 30.273437,-12.69531 -8.789062,-25.39063 -11.71875,-52.73438 2.929688,-28.32031 24.414063,-47.851562 9.765625,-9.765625 26.36719,-16.601562 17.57812,-7.8125 32.22656,-7.8125 12.69531,0 28.32031,5.859375 16.60156,5.859375 26.36719,15.625 0.97656,0 1.95312,0.976562 3.90625,1.953125 4.88282,5.859375 18.55468,18.554692 21.48437,43.945312 -2.92969,27.34375 -12.69531,52.73438 17.57812,0.97656 30.27344,12.69531 13.67187,13.67187 13.67187,33.20312 0,8.78907 -2.92969,17.57813 -1.95312,3.90625 -5.85937,5.85937 -8.78906,2.92969 -17.57813,2.92969 -19.53125,0 -33.20312,-12.69531 -5.85938,-5.85938 -8.78906,-13.67188 -18.55469,16.60157 -43.94532,16.60157 -0.97656,0 -2.92968,0 -0.97657,0 -1.95313,0 -25.39062,0 -43.94531,-16.60157 -2.929688,7.8125 -8.789063,13.67188 -13.671875,12.69531 -32.226562,12.69531 -9.765625,0 -17.578125,-2.92969 z m 105.46875,-28.32031 q 1.95312,0.97656 3.90625,0.97656 10.74219,0 21.48437,-6.83593 11.71875,-7.8125 16.60157,-17.57813 v -0.97656 q 0.97656,-1.95313 1.95312,-4.88281 0,-0.97657 0,-0.97657 0.97656,-0.97656 0.97656,-1.95312 0,-0.97656 0.97657,-0.97656 4.88281,-13.67188 8.78906,-26.36719 l -35.15625,-29.29688 q -32.22656,20.50782 -70.3125,26.36719 -0.976563,0 -0.976563,0 -1.953125,0 -3.90625,0 3.90625,13.67188 9.765625,29.29688 0,0.97656 0,0.97656 0.976563,0 0.976563,0.97656 0,0.97656 0,0.97656 0.976562,3.90625 1.953125,5.85938 4.88281,10.74219 15.625,18.55469 11.71875,6.83593 23.4375,6.83593 1.95312,0 3.90625,-0.97656 z m 93.75,4.88281 q 0,-10.74218 -7.8125,-17.57812 -7.8125,-7.8125 -17.57813,-7.8125 -2.92968,0 -5.85937,0.97656 0,1.95313 0,4.88281 0,10.74219 6.83594,18.55469 7.8125,6.83594 18.55468,6.83594 1.95313,0 4.88282,-0.97656 0.97656,-1.95313 0.97656,-4.88282 z m -33.20313,-86.91406 q 0.97657,-5.85937 1.95313,-11.71875 -1.95313,-12.69531 -10.74219,-23.4375 -6.83594,7.8125 -14.64844,15.625 z M 98.954307,111.42621 q -15.625,12.69531 -18.554687,32.22656 0,7.8125 1.953125,14.64844 2.929687,-2.92969 6.835937,-3.90625 22.460938,-3.90625 48.828128,-17.57813 27.34375,-14.64843 41.99218,-31.25 -16.60156,-13.671872 -37.10937,-13.671872 h -0.97656 q -25.39063,0 -42.968753,19.531252 z M 74.540245,216.89496 q -10.742188,0 -18.554688,7.8125 -6.835937,6.83594 -6.835937,17.57812 0,2.92969 0,4.88282 2.929687,0.97656 5.859375,0.97656 10.742187,0 17.578125,-6.83594 7.8125,-7.8125 7.8125,-18.55469 0,-2.92968 -0.976563,-4.88281 -2.929687,-0.97656 -4.882812,-0.97656 z"
       id="text23"
       style="font-size:500px;line-height:1.2;font-family:jw-icons-external;-inkscape-font-specification:jw-icons-external;letter-spacing:5.8px;word-spacing:0px;stroke:#000000;stroke-opacity:0"
       aria-label="" />
  </g>
</svg>
