<?xml version="1.0" encoding="UTF-8" standalone="no"?>
<!-- Created with Inkscape (http://www.inkscape.org/) -->

<svg
   width="500mm"
   height="500mm"
   viewBox="0 0 500 500"
   version="1.1"
   id="svg1"
   inkscape:version="1.4 (e7c3feb1, 2024-10-09)"
   sodipodi:docname="congregation.svg"
   xmlns:inkscape="http://www.inkscape.org/namespaces/inkscape"
   xmlns:sodipodi="http://sodipodi.sourceforge.net/DTD/sodipodi-0.dtd"
   xmlns="http://www.w3.org/2000/svg"
   xmlns:svg="http://www.w3.org/2000/svg">
  <sodipodi:namedview
     id="namedview1"
     pagecolor="#ffffff"
     bordercolor="#000000"
     borderopacity="0.25"
     inkscape:showpageshadow="2"
     inkscape:pageopacity="0.0"
     inkscape:pagecheckerboard="0"
     inkscape:deskcolor="#d1d1d1"
     inkscape:document-units="mm"
     inkscape:zoom="0.24215616"
     inkscape:cx="805.26549"
     inkscape:cy="846.56116"
     inkscape:window-width="1920"
     inkscape:window-height="1027"
     inkscape:window-x="928"
     inkscape:window-y="25"
     inkscape:window-maximized="0"
     inkscape:current-layer="layer1" />
  <defs
     id="defs1">
    <rect
       x="74.3322"
       y="165.18267"
       width="1544.4579"
       height="1470.1257"
       id="rect7" />
    <rect
       x="-375.79056"
       y="-235.3853"
       width="2523.1652"
       height="2147.3747"
       id="rect6" />
    <rect
       x="177.57137"
       y="202.34877"
       width="1610.531"
       height="1602.2719"
       id="rect5" />
    <rect
       x="86.720899"
       y="57.813933"
       width="1742.6771"
       height="1767.4545"
       id="rect4" />
    <rect
       x="61.9435"
       y="136.2757"
       width="1746.8067"
       height="1722.0293"
       id="rect3" />
    <rect
       x="214.73747"
       y="301.45836"
       width="1565.1058"
       height="1461.8666"
       id="rect2" />
    <rect
       x="53.684366"
       y="70.202633"
       width="1763.325"
       height="1788.1024"
       id="rect1" />
  </defs>
  <g
     inkscape:label="Layer 1"
     inkscape:groupmode="layer"
     id="layer1">
    <text
       xml:space="preserve"
       transform="scale(0.26458333)"
       id="text5"
       style="fill:#000000;text-orientation:auto;-inkscape-font-specification:jw-icons-external;font-family:jw-icons-external;font-size:1200px;text-align:start;writing-mode:lr-tb;direction:ltr;stroke-width:755.90551181;stroke-dasharray:none;white-space:pre;shape-inside:url(#rect6)" />
    <path
       d="m 299.33203,1264.4023 q 18.75,2.3438 32.8125,16.4063 14.0625,14.0625 16.40625,32.8125 l 25.78125,173.4375 q 0,2.3437 0,2.3437 0,11.7188 -7.03125,18.75 -7.03125,7.0313 -18.75,7.0313 -21.09375,0 -23.4375,-21.0938 l -25.78125,-175.7812 q 0,-2.3438 -2.34375,-4.6875 l -121.875,2.3437 q -11.71875,0 -18.75,-7.0312 -7.03125,-9.375 -7.03125,-18.75 0,-2.3438 0,-7.0313 L 250.11328,884.71484 q 4.6875,-18.75 23.4375,-18.75 11.71875,0 18.75,7.03125 7.03125,7.03125 7.03125,16.40625 0,4.6875 0,7.03125 l -93.75,367.96871 z M 498.55078,884.71484 599.33203,1283.1523 q 0,4.6875 0,7.0313 0,9.375 -7.03125,18.75 -7.03125,7.0312 -18.75,7.0312 H 449.33203 q 2.34375,0 0,2.3438 l -25.78125,175.7812 q -2.34375,21.0938 -23.4375,21.0938 -11.71875,0 -18.75,-7.0313 -7.03125,-7.0312 -7.03125,-18.75 0,0 0,-2.3437 l 25.78125,-175.7813 q 0,-9.375 4.6875,-16.4062 4.6875,-9.375 11.71875,-14.0625 7.03125,-7.0313 14.0625,-9.375 9.375,-4.6875 18.75,-7.0313 h 93.75 l -93.75,-367.96871 q 0,-2.34375 0,-7.03125 0,-9.375 7.03125,-16.40625 7.03125,-7.03125 18.75,-7.03125 18.75,0 23.4375,18.75 z m 330.46875,-332.8125 46.875,-70.3125 v -60.9375 q -32.8125,-56.25 -75,-56.25 h -2.34375 q -42.1875,0 -75,56.25 v 60.9375 l 46.875,70.3125 q 4.6875,4.6875 4.6875,14.0625 v 49.21875 q 0,16.40625 -14.0625,23.4375 l -135.9375,67.96875 v 328.12496 l 46.875,93.75 q 2.34375,4.6875 2.34375,11.7188 v 349.2187 q 0,11.7188 -7.03125,18.75 -7.03125,7.0313 -18.75,7.0313 -9.375,0 -16.40625,-7.0313 -7.03125,-7.0312 -7.03125,-18.75 v -342.1875 l -30.46875,-58.5937 q -14.0625,-2.3438 -18.75,-16.4063 l -98.4375,-318.74996 -72.65625,-84.375 q -11.71875,-14.0625 -11.71875,-30.46875 v -2.34375 -42.1875 q 0,-18.75 14.0625,-30.46875 14.0625,-14.0625 32.8125,-16.40625 0,-2.34375 0,-4.6875 0,-60.9375 -35.15625,-112.5 -14.0625,-14.0625 -32.8125,-14.0625 -2.34375,0 -2.34375,0 l -4.6875,-25.78125 v 25.78125 q -2.34375,0 -2.34375,0 -21.09375,0 -35.15625,14.0625 -32.8125,51.5625 -32.8125,112.5 0,2.34375 0,4.6875 18.75,2.34375 30.46875,16.40625 14.0625,11.71875 14.0625,30.46875 v 42.1875 q 0,21.09375 -11.71875,32.8125 l -79.6875,84.375 -75,316.40626 q -4.6875,21.0937 -23.4375,21.0937 -9.375,0 -18.75,-7.0312 -7.03125,-9.375 -7.03125,-18.75 0,-2.3438 2.34375,-4.6875 l 75,-325.78126 q 0,-7.03125 4.6875,-11.71875 l 84.375,-89.0625 v -39.84375 l -21.09375,4.6875 q -9.375,0 -18.75,-7.03125 -7.03125,-7.03125 -7.03125,-18.75 0,-9.375 0,-18.75 0,-86.71875 49.21875,-157.03125 28.125,-32.8125 70.3125,-32.8125 h 7.03125 2.34375 q 42.1875,0 70.3125,32.8125 49.21875,70.3125 49.21875,154.6875 0,11.71875 -2.34375,21.09375 0,11.71875 -7.03125,18.75 -7.03125,7.03125 -16.40625,7.03125 h -25.78125 l 4.6875,37.5 72.65625,86.71875 q 4.6875,4.6875 7.03125,9.375 l 49.21875,166.40625 V 690.18359 q 0,-16.40625 14.0625,-23.4375 l 135.9375,-67.96875 v -25.78125 l -44.53125,-67.96875 q -4.6875,-7.03125 -4.6875,-14.0625 v -75 q 0,-7.03125 2.34375,-11.71875 14.0625,-32.8125 49.21875,-58.59375 37.5,-25.78125 72.65625,-30.46875 h 2.34375 q 35.15625,4.6875 70.3125,30.46875 35.15625,25.78125 51.5625,58.59375 2.34375,4.6875 2.34375,11.71875 v 75 q 0,7.03125 -4.6875,14.0625 l -46.875,67.96875 v 25.78125 l 86.71875,44.53125 q 14.0625,7.03125 14.0625,21.09375 0,11.71875 -7.03125,18.75 -7.03125,7.03125 -18.75,7.03125 -4.6875,0 -9.375,-2.34375 L 838.39453,638.62109 q -14.0625,-7.03125 -14.0625,-23.4375 v -49.21875 q 0,-9.375 4.6875,-14.0625 z m 159.375,410.15625 -67.96875,44.53121 -46.875,189.8438 q -4.6875,18.75 -23.4375,18.75 -11.71875,0 -18.75,-7.0313 -7.03125,-7.0312 -7.03125,-18.75 0,-2.3437 0,-4.6875 l 51.5625,-201.56246 q 2.34375,-9.375 9.375,-14.0625 l 75,-49.21875 q 7.03125,-4.6875 14.0625,-4.6875 9.375,0 16.40625,7.03125 9.37502,7.03125 9.37502,18.75 0,11.71875 -11.71877,21.09375 z m 234.37497,222.65621 q 2.3438,2.3438 2.3438,4.6875 0,11.7188 -9.375,18.75 -7.0313,7.0313 -16.4063,7.0313 -18.75,0 -23.4375,-18.75 l -49.2187,-189.8438 -65.625,-44.53121 q -11.7188,-9.375 -11.7188,-21.09375 0,-11.71875 7.0313,-18.75 7.0312,-7.03125 18.75,-7.03125 7.0312,0 14.0625,4.6875 l 75,49.21875 q 7.0312,4.6875 9.375,14.0625 z m -274.21872,131.25 h 2.34375 q 18.75,0 32.8125,14.0625 16.40627,14.0625 16.40627,35.1563 l 23.4375,119.5312 q 0,2.3438 0,4.6875 0,21.0938 -18.75,25.7813 -2.3438,0 -4.6875,0 -21.09377,0 -25.78127,-21.0938 l -25.78125,-131.25 -49.21875,2.3438 q -9.375,0 -18.75,-7.0313 -7.03125,-7.0312 -7.03125,-18.75 0,-2.3437 2.34375,-4.6875 l 49.21875,-248.4375 q 4.6875,-21.0937 23.4375,-21.0937 11.71875,0 18.75,7.0312 7.03125,7.0313 7.03125,18.75 0,2.3438 0,4.6875 l -44.53125,220.3125 z m 145.31252,-250.7812 q 2.3437,0 4.6875,0 21.0937,0 25.7812,21.0937 l 49.2188,248.4375 q 0,2.3438 0,4.6875 0,11.7188 -7.0313,18.75 -7.0312,7.0313 -16.4062,7.0313 h -51.5625 l -25.7813,128.9062 q -2.3437,21.0938 -23.4375,21.0938 -2.3437,0 -4.6875,0 -21.0937,-4.6875 -21.0937,-25.7813 0,-2.3437 2.3437,-4.6875 l 23.4375,-124.2187 q 2.3438,-18.75 14.0625,-30.4688 14.0625,-14.0625 32.8125,-14.0625 2.3438,0 2.3438,0 h 21.0937 l -44.5312,-220.3125 q 0,-2.3437 0,-4.6875 0,-21.0937 18.75,-25.7812 z m 37.5,-154.68751 -42.1875,-44.53125 q -28.125,23.4375 -65.625,23.4375 -35.15627,0 -63.28127,-23.4375 l -42.1875,44.53125 q -7.03125,7.03125 -18.75,7.03125 -9.375,0 -18.75,-7.03125 -7.03125,-7.03125 -7.03125,-16.40625 0,-11.71875 7.03125,-18.75 l 49.21875,-51.5625 q -4.6875,-16.40625 -4.6875,-32.8125 0,-28.125 11.71875,-51.5625 14.0625,-23.4375 37.5,-35.15625 23.4375,-14.0625 49.21877,-14.0625 42.1875,0 70.3125,30.46875 30.4687,28.125 30.4687,70.3125 0,16.40625 -7.0312,32.8125 l 49.2187,51.5625 q 7.0313,7.03125 7.0313,18.75 0,9.375 -7.0313,16.40625 -7.0312,7.03125 -18.75,7.03125 -9.375,0 -16.4062,-7.03125 z m -142.96877,-84.375 q 16.40627,14.0625 35.15627,14.0625 21.0937,0 35.1562,-14.0625 16.4063,-16.40625 16.4063,-35.15625 0,-21.09375 -16.4063,-35.15625 -14.0625,-16.40625 -35.1562,-16.40625 -18.75,0 -35.15627,16.40625 -14.0625,14.0625 -14.0625,35.15625 0,18.75 14.0625,35.15625 z"
       id="text1"
       style="font-size:1200px;font-family:jw-icons-external;-inkscape-font-specification:jw-icons-external;white-space:pre;stroke-width:755.906"
       transform="matrix(0.39296554,0,0,0.39296554,-13.676492,-111.48391)"
       aria-label="" />
  </g>
</svg>
