<?xml version="1.0" encoding="UTF-8" standalone="no"?>
<!-- Created with Inkscape (http://www.inkscape.org/) -->

<svg
   width="512"
   height="512"
   viewBox="0 0 512 512"
   version="1.1"
   id="svg1"
   inkscape:version="1.4 (e7c3feb1, 2024-10-09)"
   sodipodi:docname="convention.svg"
   xmlns:inkscape="http://www.inkscape.org/namespaces/inkscape"
   xmlns:sodipodi="http://sodipodi.sourceforge.net/DTD/sodipodi-0.dtd"
   xmlns="http://www.w3.org/2000/svg"
   xmlns:svg="http://www.w3.org/2000/svg">
  <sodipodi:namedview
     id="namedview1"
     pagecolor="#ffffff"
     bordercolor="#000000"
     borderopacity="0.25"
     inkscape:showpageshadow="2"
     inkscape:pageopacity="0.0"
     inkscape:pagecheckerboard="0"
     inkscape:deskcolor="#d1d1d1"
     inkscape:document-units="mm"
     inkscape:zoom="0.45394329"
     inkscape:cx="42.956908"
     inkscape:cy="296.29252"
     inkscape:window-width="1440"
     inkscape:window-height="872"
     inkscape:window-x="0"
     inkscape:window-y="28"
     inkscape:window-maximized="0"
     inkscape:current-layer="layer1" />
  <defs
     id="defs1">
    <rect
       x="-565.05473"
       y="1313.1998"
       width="312.51631"
       height="186.24709"
       id="rect18" />
    <rect
       x="969.52799"
       y="405.43898"
       width="8849.1464"
       height="7562.3184"
       id="rect17" />
    <rect
       x="706.79119"
       y="232.00016"
       width="2654.5135"
       height="2012.4665"
       id="rect16" />
    <rect
       x="-604.24005"
       y="1404.9918"
       width="13.368143"
       height="28.0731"
       id="rect15" />
    <rect
       x="-6320.921"
       y="2061.5927"
       width="8032.4319"
       height="5173.4307"
       id="rect14" />
    <rect
       x="-5873.5943"
       y="1789.3069"
       width="8752.0445"
       height="8051.8809"
       id="rect13" />
    <rect
       x="-5562.4105"
       y="1361.4291"
       width="8401.9627"
       height="4920.5939"
       id="rect12" />
    <rect
       x="-957.89726"
       y="1529.5456"
       width="7647.7281"
       height="4279.6377"
       id="rect11" />
    <rect
       x="-99.109596"
       y="454.25232"
       width="887.85681"
       height="396.43839"
       id="rect3" />
    <rect
       x="53.684364"
       y="70.202637"
       width="1763.325"
       height="1788.1024"
       id="rect1" />
  </defs>
  <g
     inkscape:label="Layer 1"
     inkscape:groupmode="layer"
     id="layer1">
    <text
       xml:space="preserve"
       transform="scale(0.27093333)"
       id="text3"
       style="font-style:normal;font-variant:normal;font-weight:normal;font-stretch:normal;font-size:146.667px;line-height:0;font-family:jw-icons-external;-inkscape-font-specification:jw-icons-external;text-align:center;letter-spacing:5.8px;word-spacing:0px;writing-mode:lr-tb;direction:ltr;white-space:pre;shape-inside:url(#rect3);display:inline;fill:#000000;fill-opacity:1;stroke-width:755.906" />
    <text
       xml:space="preserve"
       style="font-size:173.333px;line-height:0;font-family:jw-icons-external;-inkscape-font-specification:jw-icons-external;text-align:center;letter-spacing:5.8px;word-spacing:0px;writing-mode:lr-tb;direction:ltr;text-anchor:middle;fill:#000000;stroke:#000000;stroke-opacity:0;fill-opacity:1"
       x="-622.14398"
       y="1067.8145"
       id="text7"><tspan
         sodipodi:role="line"
         id="tspan7"
         x="-622.14398"
         y="1067.8145" /><tspan
         sodipodi:role="line"
         id="tspan8"
         x="-622.14398"
         y="1067.8145" /><tspan
         sodipodi:role="line"
         x="-622.14398"
         y="1067.8145"
         id="tspan9" /><tspan
         sodipodi:role="line"
         x="-622.14398"
         y="1067.8145"
         id="tspan10" /></text>
    <text
       xml:space="preserve"
       id="text11"
       style="font-size:173.333px;line-height:0;font-family:jw-icons-external;-inkscape-font-specification:jw-icons-external;text-align:center;letter-spacing:5.8px;word-spacing:0px;writing-mode:lr-tb;direction:ltr;white-space:pre;shape-inside:url(#rect11);display:inline;fill:#000000;fill-opacity:1;stroke:#000000;stroke-opacity:0" />
    <text
       xml:space="preserve"
       id="text13"
       style="font-size:173.333px;line-height:0;font-family:jw-icons-external;-inkscape-font-specification:jw-icons-external;text-align:center;letter-spacing:5.8px;word-spacing:0px;writing-mode:lr-tb;direction:ltr;white-space:pre;shape-inside:url(#rect13);display:inline;fill:#000000;fill-opacity:1;stroke:#000000;stroke-opacity:0" />
    <text
       xml:space="preserve"
       id="text14"
       style="font-size:16px;line-height:0;font-family:jw-icons-external;-inkscape-font-specification:jw-icons-external;text-align:start;letter-spacing:5.8px;word-spacing:0px;writing-mode:lr-tb;direction:ltr;white-space:pre;shape-inside:url(#rect15);display:inline;fill:#000000;fill-opacity:1;stroke:#000000;stroke-opacity:0" />
    <text
       xml:space="preserve"
       id="text15"
       style="font-size:16px;line-height:0;font-family:jw-icons-external;-inkscape-font-specification:jw-icons-external;text-align:start;letter-spacing:5.8px;word-spacing:0px;writing-mode:lr-tb;direction:ltr;white-space:pre;shape-inside:url(#rect16);display:inline;fill:#000000;fill-opacity:1;stroke:#000000;stroke-opacity:0" />
    <text
       xml:space="preserve"
       id="text16"
       style="font-size:16px;line-height:1.5;font-family:jw-icons-external;-inkscape-font-specification:jw-icons-external;text-align:start;letter-spacing:5.8px;word-spacing:0px;writing-mode:lr-tb;direction:ltr;white-space:pre;shape-inside:url(#rect17);display:inline;fill:#000000;fill-opacity:1;stroke:#000000;stroke-opacity:0" />
    <text
       xml:space="preserve"
       id="text17"
       style="font-size:16px;line-height:1.5;font-family:jw-icons-external;-inkscape-font-specification:jw-icons-external;text-align:start;letter-spacing:5.8px;word-spacing:0px;writing-mode:lr-tb;direction:ltr;white-space:pre;shape-inside:url(#rect18);display:inline;fill:#000000;fill-opacity:1;stroke:#000000;stroke-opacity:0" />
    <text
       xml:space="preserve"
       style="font-size:533.333px;line-height:1.2;font-family:jw-icons-external;-inkscape-font-specification:jw-icons-external;text-align:start;letter-spacing:5.8px;word-spacing:0px;writing-mode:lr-tb;direction:ltr;text-anchor:start;fill:#000000;stroke:#000000;stroke-opacity:0;fill-opacity:1"
       x="143.7877"
       y="307.89322"
       id="text20"><tspan
         sodipodi:role="line"
         id="tspan19" /></text>
    <text
       xml:space="preserve"
       style="font-size:500px;line-height:73.9;font-family:jw-icons-external;-inkscape-font-specification:jw-icons-external;text-align:start;letter-spacing:-10.72px;word-spacing:0px;writing-mode:lr-tb;direction:ltr;text-anchor:start;fill:#000000;fill-opacity:1;stroke:#000000;stroke-opacity:0"
       x="63.884632"
       y="438.38074"
       id="text1"><tspan
         sodipodi:role="line"
         id="tspan1"></tspan></text>
    <path
       d="m 506.60876,194.51254 -0.97657,5.85938 v 0.97656 l -29.29687,151.36719 q 0,0.97656 0,0.97656 -2.92969,26.36719 -33.20313,48.82813 -29.29687,22.46093 -78.125,36.13281 -22.46093,5.85937 -45.89843,8.78906 -0.97657,0 -1.95313,0 -30.27344,3.90625 -61.52344,3.90625 -29.29687,0 -59.57031,-3.90625 0,0 -0.97656,0 -2.92969,0 -14.64844,-1.95312 -0.97656,0 -3.90625,0 -1.95312,-0.97657 -2.92969,-0.97657 -13.67187,-2.92968 -24.41406,-5.85937 -49.804687,-12.69531 -80.078124,-35.15625 -30.273438,-22.46094 -33.203125,-49.80469 0,0 -0.976563,0 0,-0.97656 0,-0.97656 L 6.6087556,194.51254 q 0,0 0,-0.97656 0,-0.97656 0,-1.95312 0,-0.97657 0,-0.97657 0,-0.97656 0,-1.95312 0,-47.85156 72.2656254,-81.05469 72.265629,-33.203125 177.734379,-33.203125 105.46875,0 177.73437,33.203125 72.26563,33.20313 72.26563,81.05469 0,0.97656 0,1.95312 0,0 0,0.97657 0,0.97656 0,1.95312 z m -250,-99.609372 q -92.77344,0 -161.132817,28.320312 -68.359375,27.34375 -68.359375,65.42969 0,25.39062 32.226563,47.85156 33.203125,21.48438 85.937499,34.17969 0,0 0,0 0.97656,-0.97656 1.95313,-0.97656 -0.97657,0 -1.95313,0 0,-0.97657 0,-0.97657 l -34.17969,-53.71093 q -10.74218,6.83593 -19.531247,12.69531 -2.929687,1.95312 -5.859375,1.95312 -4.882812,0 -7.8125,-2.92968 -2.929687,-2.92969 -2.929687,-7.8125 0,-4.88282 4.882812,-8.78907 8.789063,-5.85937 19.53125,-12.69531 L 71.061881,152.52036 q -1.953125,-1.95313 -1.953125,-4.88282 0,-4.88281 2.929687,-7.8125 2.929688,-2.92968 7.8125,-2.92968 4.882813,0 8.789063,4.88281 l 29.296874,45.89844 q 27.34375,-12.69532 66.40625,-21.48438 40.03906,-8.78906 69.33594,-8.78906 1.95312,0 2.92969,0 0.97656,0 1.95312,0 19.53125,0 43.94531,4.88281 25.39063,3.90625 49.80469,10.74219 25.39063,6.83594 42.96875,15.625 l 29.29688,-46.875 q 3.90625,-4.88281 8.78906,-4.88281 4.88281,0 7.8125,2.92968 2.92969,2.92969 2.92969,7.8125 0,2.92969 -1.95313,4.88282 l -29.29687,45.89843 q 11.71875,5.85938 20.50781,12.69532 4.88281,2.92968 4.88281,8.78906 0,3.90625 -3.90625,6.83594 -2.92969,2.92968 -6.83594,2.92968 -2.92968,0 -5.85937,-1.95312 -8.78906,-5.85938 -19.53125,-11.71875 l -34.17969,52.73437 q -0.97656,0.97657 -1.95312,0.97657 0,0 0.97656,0.97656 53.71094,-12.69531 85.9375,-34.17969 33.20312,-22.46094 33.20312,-47.85156 0,-24.41406 -31.25,-45.89844 -31.25,-22.46094 -84.96093,-35.15625 Q 317.15563,94.903168 256.60876,94.903168 Z m -93.75,162.109372 q 0.97656,1.95313 0.97656,3.90625 43.94531,-19.53125 92.77344,-19.53125 47.85156,0 91.79687,19.53125 0.97656,-1.95312 1.95313,-3.90625 l 33.20312,-50.78125 q -24.41406,-11.71875 -61.52344,-19.53125 -37.10937,-7.8125 -63.47656,-7.8125 -0.97656,0 -1.95312,0 -0.97657,0 -1.95313,0 -13.67187,0 -30.27344,1.95313 -16.60156,1.95312 -34.17968,5.85937 -16.60157,2.92969 -33.20313,8.78907 -15.625,4.88281 -27.34375,9.76562 z m 93.75,4.88282 h -0.97657 q -39.0625,0 -76.17187,14.64843 38.08594,5.85938 77.14844,5.85938 v 0 q 39.0625,0 77.14843,-5.85938 -37.10937,-14.64843 -77.14843,-14.64843 z m -62.5,164.0625 v -49.80469 q 0,0 0,0 -22.46094,-2.92969 -41.99219,-6.83594 v 48.82813 q 0.97656,0 0.97656,0.97656 0.97656,0 0.97656,0 11.71875,2.92969 24.41407,4.88281 0,0 0,0 0.97656,0 1.95312,0 1.95313,0.97656 13.67188,1.95313 z m 20.50781,2.92968 q 20.50781,1.95313 41.01562,1.95313 21.48438,0 42.96875,-1.95313 v -50.78125 q -21.48437,1.95313 -41.99218,1.95313 -20.50782,0 -41.99219,-1.95313 z m 146.48437,-10.74218 v -48.82813 q -19.53125,3.90625 -41.99218,6.83594 0,0 0,0 v 49.80469 q 20.50781,-2.92969 41.01562,-7.8125 z m 20.50782,-6.83594 q 33.20312,-11.71875 52.73437,-27.34375 19.53125,-16.60156 21.48438,-34.17969 v -0.97656 l 20.50781,-104.49219 q -32.22656,27.34375 -90.82031,43.94531 -58.59375,15.625 -128.90625,15.625 -1.95313,0 -1.95313,0 -55.66406,0 -110.35156,-11.71875 v -0.97656 q -24.41406,-3.90625 -56.640627,-17.57812 -31.25,-14.64844 -50.78125,-29.29688 l 18.554688,104.49219 v 0.97656 h 0.976562 q 1.953125,17.57813 21.484375,34.17969 20.507813,16.60156 53.710942,28.32031 v -56.64062 q 0,-1.95313 0.97656,-3.90625 0.97656,-1.95313 1.95312,-2.92969 1.95313,-1.95313 3.90625,-2.92969 1.95313,-0.97656 3.90625,-0.97656 0.97657,0 1.95313,0.97656 55.66406,13.67188 112.30469,13.67188 54.6875,0 108.39843,-12.69532 l 3.90625,-0.97656 q 0.97657,-0.97656 1.95313,-0.97656 3.90625,0 6.83594,2.92969 3.90625,2.92968 3.90625,7.8125 z"
       id="text2"
       style="font-size:500px;line-height:73.9;font-family:jw-icons-external;-inkscape-font-specification:jw-icons-external;letter-spacing:-10.72px;word-spacing:0px;stroke:#000000;stroke-opacity:0"
       aria-label="î˜" />
  </g>
</svg>
