<?xml version="1.0" encoding="UTF-8" standalone="no"?>
<!-- Created with Inkscape (http://www.inkscape.org/) -->

<svg
   width="512"
   height="512"
   viewBox="0 0 512 512"
   version="1.1"
   id="svg1"
   inkscape:version="1.4 (e7c3feb1, 2024-10-09)"
   sodipodi:docname="filetype-doc.svg"
   xmlns:inkscape="http://www.inkscape.org/namespaces/inkscape"
   xmlns:sodipodi="http://sodipodi.sourceforge.net/DTD/sodipodi-0.dtd"
   xmlns="http://www.w3.org/2000/svg"
   xmlns:svg="http://www.w3.org/2000/svg">
  <sodipodi:namedview
     inkscape:zoom="0.64984372"
     inkscape:cx="-16.927147"
     inkscape:cy="368.55015"
     inkscape:window-width="1440"
     inkscape:window-height="872"
     inkscape:window-x="0"
     inkscape:window-y="28"
     inkscape:window-maximized="0"
     inkscape:current-layer="layer1"
     id="namedview1"
     pagecolor="#ffffff"
     bordercolor="#000000"
     borderopacity="0.25"
     inkscape:showpageshadow="2"
     inkscape:pageopacity="0.0"
     inkscape:pagecheckerboard="0"
     inkscape:deskcolor="#d1d1d1" />
  <defs
     id="defs4">
    <rect
       id="rect1" />
    <rect
       id="rect2" />
    <rect
       x="969.52799"
       y="405.43898"
       width="8849.1464"
       height="7562.3184"
       id="rect17" />
    <rect
       x="706.79119"
       y="232.00016"
       width="2654.5135"
       height="2012.4665"
       id="rect16" />
    <rect
       x="-604.24005"
       y="1404.9918"
       width="13.368143"
       height="28.0731"
       id="rect15" />
    <rect
       x="-6320.921"
       y="2061.5927"
       width="8032.4319"
       height="5173.4307"
       id="rect14" />
    <rect
       x="-5873.5943"
       y="1789.3069"
       width="8752.0445"
       height="8051.8809"
       id="rect13" />
    <rect
       x="-5562.4105"
       y="1361.4291"
       width="8401.9627"
       height="4920.5939"
       id="rect12" />
    <rect
       x="-957.89726"
       y="1529.5456"
       width="7647.7281"
       height="4279.6377"
       id="rect11" />
    <rect
       x="-99.109596"
       y="454.25232"
       width="887.85681"
       height="396.43839"
       id="rect3" />
    <rect
       x="53.684364"
       y="70.202637"
       width="1763.325"
       height="1788.1024"
       id="rect4" />
  </defs>
  <g
     inkscape:label="Layer 1"
     inkscape:groupmode="layer"
     id="layer1">
    <path
       id="text36"
       style=""
       d="m 159.57729,21.468708 c -2.60417,0 -5.20834,1.302083 -7.8125,3.90625 -1.95313,1.953124 -2.92969,4.23177 -2.92969,6.835937 V 282.58899 h 21.48438 V 42.953082 h 187.5 v 93.749998 c 0,2.60417 0.97656,4.88282 2.92968,6.83594 1.95313,1.95312 4.23177,2.92969 6.83594,2.92969 h 93.75 v 312.5 h -60.43154 v 21.48437 h 71.17373 c 2.60416,0 4.88281,-1.30208 6.83594,-3.90625 2.60416,-1.95312 3.90625,-4.23177 3.90625,-6.83593 V 136.70308 c 0,-1.30208 -0.32553,-2.60416 -0.97657,-3.90625 L 479.88979,128.89058 375.3976,24.398395 c -1.95312,-1.953125 -4.55729,-2.929687 -7.8125,-2.929687 z m 218.75,36.132812 68.35937,68.35938 h -68.35937 z"
       sodipodi:nodetypes="sssccccsssccccscsssccsscccc"
       inkscape:label="document" />
    <path
       d="m 129.35854,394.28786 c 0,15.81771 -2.77059,30.15493 -8.31177,43.01168 -5.47892,12.85677 -12.79449,22.83049 -21.946775,29.92119 -6.35055,4.90896 -13.44824,8.45431 -21.29305,10.63606 -7.78255,2.18175 -16.46918,3.27263 -29.23255,3.27263 H 26.008755 V 307.09566 h 22.19209 c 13.57275,0 22.75746,1.24671 30.72679,3.74015 8.0316,2.41551 14.81798,5.76606 20.35915,10.05164 9.463565,7.40238 16.841415,17.25923 22.133555,29.57054 5.29212,12.31132 7.9382,26.92128 7.9382,43.82987 z m -19.33186,-0.35064 c 0,-13.63596 -1.89893,-25.12913 -5.69681,-34.47949 -3.79788,-9.35038 -9.463575,-16.71378 -16.997085,-22.09024 -5.47891,-3.89599 -11.30026,-6.58422 -17.46404,-8.0647 -6.16377,-1.55841 -11.95529,-2.33759 -20.54722,-2.33759 h -4.82145 v 134.29469 h 4.82145 c 8.90324,0 15.06833,-0.81817 21.66791,-2.45449 6.66186,-1.63632 12.76338,-4.67519 18.30456,-9.11662 6.9109,-5.53228 12.078505,-12.81778 15.502825,-21.85648 3.48658,-9.0387 5.22986,-20.33705 5.22986,-33.89508 z m 127.44533,-66.85515 c 5.66569,7.79197 9.99278,17.33714 12.98129,28.63552 3.05075,11.29836 4.57613,24.11615 4.57613,38.45337 0,14.33725 -1.55652,27.194 -4.66953,38.57028 -3.05076,11.29837 -7.34672,20.72666 -12.88789,28.28488 -5.72795,7.86989 -12.51435,13.79179 -20.35915,17.76569 -7.78255,3.97392 -10.1449,5.96086 -20.16883,5.96086 -9.77489,0 -14.90292,-2.02591 -22.93452,-6.07773 -7.96933,-4.05183 -14.7557,-9.93477 -20.35912,-17.64882 -5.60343,-7.71405 -9.93054,-17.18131 -12.9813,-28.40175 -2.9885,-11.22044 -4.48275,-24.03825 -4.48275,-38.45341 0,-14.18139 1.49425,-26.8823 4.48275,-38.10274 2.9885,-11.29836 7.34672,-20.96042 13.07468,-28.98615 5.47891,-7.63614 12.26529,-13.48011 20.35913,-17.53194 8.15612,-4.05183 13.25303,-6.07774 22.84113,-6.07774 9.96166,0 12.35515,2.06486 20.26222,6.19462 7.96933,4.05183 14.72459,9.85684 20.26576,17.41506 z m -1.68104,67.08889 c 0,-22.59672 -4.04691,-40.01177 -12.14076,-52.24518 -8.09386,-12.31131 -12.60421,-18.46698 -26.61279,-18.46698 -14.1331,0 -21.47139,6.15567 -29.56524,18.46698 -8.0316,12.23341 -12.04739,29.64846 -12.04739,52.24518 0,22.8305 4.10919,40.32348 12.32756,52.47896 8.21836,12.07757 15.46326,18.11635 29.28507,18.11635 13.8218,0 18.26989,-6.03878 26.42601,-18.11635 8.21836,-12.15548 12.32754,-29.64846 12.32754,-52.47896 z m 130.38394,72.82184 c -0.38794,-0.62491 -3.60201,4.02036 -16.86626,11.075 -3.79789,1.48048 -7.93821,3.56809 -12.42094,4.58105 -4.42049,1.09087 -5.40363,1.63631 -10.75802,1.63631 -10.08618,0 -15.36527,-1.75321 -23.64591,-5.25958 -8.21835,-3.58431 -15.3783,-9.15558 -21.47983,-16.71379 -5.97699,-7.40238 -10.64652,-16.7917 -14.00858,-28.16797 -3.36206,-11.45421 -5.04309,-24.73954 -5.04309,-39.85596 0,-14.33724 1.61877,-27.15504 4.85631,-38.45341 3.23755,-11.29835 7.90707,-20.84351 14.00858,-28.63549 5.91474,-7.55822 13.04356,-13.32428 21.38644,-17.29819 8.40517,-3.97391 13.80877,-5.96086 24.01947,-5.96086 7.47124,0 11.00705,1.12983 18.41603,3.3895 7.47125,2.25968 12.4458,7.95469 21.5358,13.64283 v 24.27038 h -1.40085 c -7.65803,-8.02574 -11.9477,-13.25504 -19.4812,-16.91727 -7.53351,-3.66222 -11.69192,-4.63278 -20.28384,-4.63278 -7.03544,0 -9.48169,1.44152 -15.14739,4.32453 -5.60342,2.80512 -10.61539,7.20758 -15.03586,13.20741 -4.29597,5.84397 -7.65803,13.24635 -10.08619,22.20712 -2.3659,8.88286 -3.54885,19.16827 -3.54885,30.85623 0,12.2334 1.30748,22.75257 3.9224,31.5575 2.67719,8.80493 6.10152,15.97354 10.27296,21.50585 4.35825,5.76605 9.43246,10.05163 15.22269,12.85675 5.85245,2.72718 8.11193,4.09078 14.58701,4.09078 8.90322,0 13.34181,-0.89995 21.12436,-4.71801 7.78254,-3.81807 11.76092,-9.377 18.5473,-17.01313 h 1.30746 z"
       id="text54"
       style=""
       aria-label="DOC"
       sodipodi:nodetypes="scccsccsccssssccsccscccsccscccscscscccsccscscscscscccscccssccsccccsscccscccssccc"
       inkscape:label="text" />
  </g>
</svg>
