<?xml version="1.0" encoding="UTF-8" standalone="no"?>
<!-- Created with Inkscape (http://www.inkscape.org/) -->

<svg
   width="512"
   height="512"
   viewBox="0 0 512 512"
   version="1.1"
   id="svg1"
   inkscape:version="1.4 (e7c3feb1, 2024-10-09)"
   sodipodi:docname="edit.svg"
   xmlns:inkscape="http://www.inkscape.org/namespaces/inkscape"
   xmlns:sodipodi="http://sodipodi.sourceforge.net/DTD/sodipodi-0.dtd"
   xmlns="http://www.w3.org/2000/svg"
   xmlns:svg="http://www.w3.org/2000/svg">
  <sodipodi:namedview
     id="namedview1"
     pagecolor="#ffffff"
     bordercolor="#000000"
     borderopacity="0.25"
     inkscape:showpageshadow="2"
     inkscape:pageopacity="0.0"
     inkscape:pagecheckerboard="0"
     inkscape:deskcolor="#d1d1d1"
     inkscape:document-units="mm"
     inkscape:zoom="0.56032304"
     inkscape:cx="564.85273"
     inkscape:cy="368.53741"
     inkscape:window-width="1440"
     inkscape:window-height="872"
     inkscape:window-x="0"
     inkscape:window-y="28"
     inkscape:window-maximized="0"
     inkscape:current-layer="layer1" />
  <defs
     id="defs1">
    <rect
       x="-565.05473"
       y="1313.1998"
       width="312.51631"
       height="186.24709"
       id="rect18" />
    <rect
       x="969.52799"
       y="405.43898"
       width="8849.1464"
       height="7562.3184"
       id="rect17" />
    <rect
       x="706.79119"
       y="232.00016"
       width="2654.5135"
       height="2012.4665"
       id="rect16" />
    <rect
       x="-604.24005"
       y="1404.9918"
       width="13.368143"
       height="28.0731"
       id="rect15" />
    <rect
       x="-6320.921"
       y="2061.5927"
       width="8032.4319"
       height="5173.4307"
       id="rect14" />
    <rect
       x="-5873.5943"
       y="1789.3069"
       width="8752.0445"
       height="8051.8809"
       id="rect13" />
    <rect
       x="-5562.4105"
       y="1361.4291"
       width="8401.9627"
       height="4920.5939"
       id="rect12" />
    <rect
       x="-957.89726"
       y="1529.5456"
       width="7647.7281"
       height="4279.6377"
       id="rect11" />
    <rect
       x="-99.109596"
       y="454.25232"
       width="887.85681"
       height="396.43839"
       id="rect3" />
    <rect
       x="53.684364"
       y="70.202637"
       width="1763.325"
       height="1788.1024"
       id="rect1" />
  </defs>
  <g
     inkscape:label="Layer 1"
     inkscape:groupmode="layer"
     id="layer1">
    <text
       xml:space="preserve"
       transform="scale(0.27093333)"
       id="text3"
       style="font-style:normal;font-variant:normal;font-weight:normal;font-stretch:normal;font-size:146.667px;line-height:0;font-family:jw-icons-external;-inkscape-font-specification:jw-icons-external;text-align:center;letter-spacing:5.8px;word-spacing:0px;writing-mode:lr-tb;direction:ltr;white-space:pre;shape-inside:url(#rect3);display:inline;fill:#000000;fill-opacity:1;stroke-width:755.906" />
    <text
       xml:space="preserve"
       style="font-size:173.333px;line-height:0;font-family:jw-icons-external;-inkscape-font-specification:jw-icons-external;text-align:center;letter-spacing:5.8px;word-spacing:0px;writing-mode:lr-tb;direction:ltr;text-anchor:middle;fill:#000000;stroke:#000000;stroke-opacity:0;fill-opacity:1"
       x="-622.14398"
       y="1067.8145"
       id="text7"><tspan
         sodipodi:role="line"
         id="tspan7"
         x="-622.14398"
         y="1067.8145" /><tspan
         sodipodi:role="line"
         id="tspan8"
         x="-622.14398"
         y="1067.8145" /><tspan
         sodipodi:role="line"
         x="-622.14398"
         y="1067.8145"
         id="tspan9" /><tspan
         sodipodi:role="line"
         x="-622.14398"
         y="1067.8145"
         id="tspan10" /></text>
    <text
       xml:space="preserve"
       id="text11"
       style="font-size:173.333px;line-height:0;font-family:jw-icons-external;-inkscape-font-specification:jw-icons-external;text-align:center;letter-spacing:5.8px;word-spacing:0px;writing-mode:lr-tb;direction:ltr;white-space:pre;shape-inside:url(#rect11);display:inline;fill:#000000;fill-opacity:1;stroke:#000000;stroke-opacity:0" />
    <text
       xml:space="preserve"
       id="text13"
       style="font-size:173.333px;line-height:0;font-family:jw-icons-external;-inkscape-font-specification:jw-icons-external;text-align:center;letter-spacing:5.8px;word-spacing:0px;writing-mode:lr-tb;direction:ltr;white-space:pre;shape-inside:url(#rect13);display:inline;fill:#000000;fill-opacity:1;stroke:#000000;stroke-opacity:0" />
    <text
       xml:space="preserve"
       id="text14"
       style="font-size:16px;line-height:0;font-family:jw-icons-external;-inkscape-font-specification:jw-icons-external;text-align:start;letter-spacing:5.8px;word-spacing:0px;writing-mode:lr-tb;direction:ltr;white-space:pre;shape-inside:url(#rect15);display:inline;fill:#000000;fill-opacity:1;stroke:#000000;stroke-opacity:0" />
    <text
       xml:space="preserve"
       id="text15"
       style="font-size:16px;line-height:0;font-family:jw-icons-external;-inkscape-font-specification:jw-icons-external;text-align:start;letter-spacing:5.8px;word-spacing:0px;writing-mode:lr-tb;direction:ltr;white-space:pre;shape-inside:url(#rect16);display:inline;fill:#000000;fill-opacity:1;stroke:#000000;stroke-opacity:0" />
    <text
       xml:space="preserve"
       id="text16"
       style="font-size:16px;line-height:1.5;font-family:jw-icons-external;-inkscape-font-specification:jw-icons-external;text-align:start;letter-spacing:5.8px;word-spacing:0px;writing-mode:lr-tb;direction:ltr;white-space:pre;shape-inside:url(#rect17);display:inline;fill:#000000;fill-opacity:1;stroke:#000000;stroke-opacity:0" />
    <text
       xml:space="preserve"
       id="text17"
       style="font-size:16px;line-height:1.5;font-family:jw-icons-external;-inkscape-font-specification:jw-icons-external;text-align:start;letter-spacing:5.8px;word-spacing:0px;writing-mode:lr-tb;direction:ltr;white-space:pre;shape-inside:url(#rect18);display:inline;fill:#000000;fill-opacity:1;stroke:#000000;stroke-opacity:0" />
    <text
       xml:space="preserve"
       style="font-size:533.333px;line-height:1.2;font-family:jw-icons-external;-inkscape-font-specification:jw-icons-external;text-align:start;letter-spacing:5.8px;word-spacing:0px;writing-mode:lr-tb;direction:ltr;text-anchor:start;fill:#000000;stroke:#000000;stroke-opacity:0;fill-opacity:1"
       x="143.7877"
       y="307.89322"
       id="text20"><tspan
         sodipodi:role="line"
         id="tspan19" /></text>
    <text
       xml:space="preserve"
       style="font-size:500px;line-height:73.9;font-family:jw-icons-external;-inkscape-font-specification:jw-icons-external;text-align:start;letter-spacing:-10.72px;word-spacing:0px;writing-mode:lr-tb;direction:ltr;text-anchor:start;fill:#000000;fill-opacity:1;stroke:#000000;stroke-opacity:0"
       x="63.884632"
       y="438.38074"
       id="text1"><tspan
         sodipodi:role="line"
         id="tspan1" /></text>
    <path
       id="text23"
       style="font-size:500px;line-height:1.2;font-family:jw-icons-external;-inkscape-font-specification:jw-icons-external;letter-spacing:5.8px;word-spacing:0px;stroke:#000000;stroke-opacity:0"
       d="m 36.318767,77.730602 c -2.60417,0 -5.20833,0.97655 -7.8125,2.92968 -1.95313,1.95312 -2.92969,4.55729 -2.92969,7.8125 V 489.29862 c 0,2.60417 0.97656,5.20832 2.92969,7.8125 2.60417,1.95313 5.20833,2.92968 7.8125,2.92968 H 406.00075 c 2.60417,0 4.88281,-0.97656 6.83594,-2.92968 2.60417,-2.60418 3.90625,-5.20833 3.90625,-7.8125 l 0,-230.49516 h -21.48437 l 0,219.75297 H 47.060947 V 98.238412 l 213.108583,0 v -20.50781 z"
       sodipodi:nodetypes="scsscsssscccccccs" />
    <path
       d="m 499.11906,79.787311 c 1.00639,-1.05186 0.0805,2.7801 -0.34123,4.01198 -0.42174,1.23189 -1.15144,2.35836 -2.18911,3.3794 L 267.84596,324.70207 c -1.03774,1.0209 -2.38336,1.9366 -4.03696,2.7467 l -102.57167,43.3333 c -2.48042,1.2153 -4.95253,1.4012 -7.41633,0.5577 -1.84786,-0.6325 -3.2823,-1.4677 -4.30333,-2.5053 -3.06311,-3.1131 -3.85665,-6.8254 -2.38061,-11.137 l 40.06933,-104.986 c 0.42172,-1.23187 1.15142,-2.35835 2.18909,-3.37938 L 418.13828,11.808785 c 2.49707,-3.2739502 5.90142,-4.1729202 10.21306,-2.6969002 1.84784,0.6326 3.28229,1.4677202 4.30333,2.5053902 l 63.74254,61.045046 c 2.04208,2.07532 0.86612,9.06455 2.72184,7.125 z M 182.9617,319.38367 l -7.90732,23.0981 22.0076,-10.0135 z m 69.885,-11.1707 181.07374,-185.71684 c -1.2319,-0.42172 -2.35837,-1.15141 -3.3794,-2.18908 L 387.94889,78.888951 c -1.02105,-1.03766 -1.62866,-2.2779 -1.82289,-3.72064 l -180.46611,186.957059 -13.89192,37.5646 2.77178,0.9489 20.83411,20.5508 c 1.02104,1.0377 1.73408,1.97 2.13919,2.7968 z M 445.76487,109.00349 474.41458,79.587681 426.30385,33.183785 399.21064,61.068031 c 1.02104,1.03767 2.04202,2.07541 3.06311,3.11302 l 40.7443,40.785509 c 1.02104,1.03766 1.93662,2.38334 2.74682,4.03693 z"
       id="text2-2"
       style="font-size:500px;line-height:73.9;font-family:jw-icons-external;-inkscape-font-specification:jw-icons-external;letter-spacing:-10.72px;word-spacing:0px;stroke:#000000;stroke-opacity:0"
       aria-label=""
       sodipodi:nodetypes="ssccccssccccsccsscccccccccccccccccccccc" />
  </g>
</svg>
