<?xml version="1.0" encoding="UTF-8" standalone="no"?>
<!-- Created with Inkscape (http://www.inkscape.org/) -->

<svg
   width="512"
   height="512"
   viewBox="0 0 512 512"
   version="1.1"
   id="svg1"
   inkscape:version="1.4 (e7c3feb1, 2024-10-09)"
   sodipodi:docname="expand.svg"
   xmlns:inkscape="http://www.inkscape.org/namespaces/inkscape"
   xmlns:sodipodi="http://sodipodi.sourceforge.net/DTD/sodipodi-0.dtd"
   xmlns="http://www.w3.org/2000/svg"
   xmlns:svg="http://www.w3.org/2000/svg">
  <sodipodi:namedview
     id="namedview1"
     pagecolor="#ffffff"
     bordercolor="#000000"
     borderopacity="0.25"
     inkscape:showpageshadow="2"
     inkscape:pageopacity="0.0"
     inkscape:pagecheckerboard="0"
     inkscape:deskcolor="#d1d1d1"
     inkscape:document-units="mm"
     inkscape:zoom="0.77637443"
     inkscape:cx="160.36077"
     inkscape:cy="329.09378"
     inkscape:window-width="1440"
     inkscape:window-height="872"
     inkscape:window-x="0"
     inkscape:window-y="28"
     inkscape:window-maximized="0"
     inkscape:current-layer="layer1" />
  <defs
     id="defs1">
    <rect
       x="-565.05473"
       y="1313.1998"
       width="312.51631"
       height="186.24709"
       id="rect18" />
    <rect
       x="969.52799"
       y="405.43898"
       width="8849.1464"
       height="7562.3184"
       id="rect17" />
    <rect
       x="706.79119"
       y="232.00016"
       width="2654.5135"
       height="2012.4665"
       id="rect16" />
    <rect
       x="-604.24005"
       y="1404.9918"
       width="13.368143"
       height="28.0731"
       id="rect15" />
    <rect
       x="-6320.921"
       y="2061.5927"
       width="8032.4319"
       height="5173.4307"
       id="rect14" />
    <rect
       x="-5873.5943"
       y="1789.3069"
       width="8752.0445"
       height="8051.8809"
       id="rect13" />
    <rect
       x="-5562.4105"
       y="1361.4291"
       width="8401.9627"
       height="4920.5939"
       id="rect12" />
    <rect
       x="-957.89726"
       y="1529.5456"
       width="7647.7281"
       height="4279.6377"
       id="rect11" />
    <rect
       x="-99.109596"
       y="454.25232"
       width="887.85681"
       height="396.43839"
       id="rect3" />
    <rect
       x="53.684364"
       y="70.202637"
       width="1763.325"
       height="1788.1024"
       id="rect1" />
  </defs>
  <g
     inkscape:label="Layer 1"
     inkscape:groupmode="layer"
     id="layer1">
    <path
       d="m 141.12442,214.70151 c 0.004,3.2552 1.30898,5.85784 3.91546,7.80791 1.95465,1.29976 3.90854,1.94852 5.86165,1.94621 3.25522,-0.004 6.18338,-1.30936 8.78448,-3.91658 l 95.91498,-118.227 96.36449,118.30386 c 2.60722,2.60109 5.53843,3.89972 8.79364,3.8959 2.60416,-0.003 4.88166,-0.98231 6.83249,-2.93774 1.95082,-1.95541 2.92472,-4.23519 2.92164,-6.83936 -0.003,-2.60417 -0.65679,-4.88205 -1.96117,-6.83365 L 263.38592,78.865377 c -1.9562,-2.601861 -4.56189,-3.900887 -7.8171,-3.897058 -3.25521,0.0038 -5.85784,1.308974 -7.8079,3.915451 l -104.6914,128.97951 c -1.29979,1.95467 -1.94815,4.23407 -1.9451,6.83823 z"
       id="text35-3"
       style="font-size:500px;line-height:1.2;font-family:jw-icons-external;-inkscape-font-specification:jw-icons-external;letter-spacing:5.8px;word-spacing:0px;stroke:#000000;stroke-opacity:0"
       aria-label=""
       sodipodi:nodetypes="scscccsssccsccs" />
    <path
       d="m 370.90705,295.04316 c -0.004,-3.2552 -1.30898,-5.85784 -3.91546,-7.80791 -1.95465,-1.29976 -3.90854,-1.94852 -5.86165,-1.94621 -3.25522,0.004 -6.18338,1.30936 -8.78448,3.91658 l -95.91498,118.227 -96.36449,-118.30386 c -2.60722,-2.60109 -5.53843,-3.89972 -8.79364,-3.8959 -2.60416,0.003 -4.88166,0.98231 -6.8325,2.93774 -1.95082,1.95541 -2.92472,4.23519 -2.92164,6.83936 0.003,2.60416 0.65679,4.88205 1.96117,6.83365 L 248.64555,430.8793 c 1.9562,2.60186 4.56189,3.90089 7.8171,3.89706 3.25521,-0.004 5.85784,-1.30897 7.8079,-3.91545 l 104.6914,-128.97952 c 1.29979,-1.95466 1.94815,-4.23407 1.9451,-6.83823 z"
       id="text35-3-6"
       style="font-size:500px;line-height:1.2;font-family:jw-icons-external;-inkscape-font-specification:jw-icons-external;letter-spacing:5.8px;word-spacing:0px;stroke:#000000;stroke-opacity:0"
       aria-label=""
       sodipodi:nodetypes="scscccsssccsccs" />
  </g>
</svg>
