<?xml version="1.0" encoding="UTF-8" standalone="no"?>
<!-- Created with Inkscape (http://www.inkscape.org/) -->

<svg
   width="512"
   height="512"
   viewBox="0 0 512 512"
   version="1.1"
   id="svg1"
   inkscape:version="1.4 (e7c3feb1, 2024-10-09)"
   sodipodi:docname="fast.svg"
   xmlns:inkscape="http://www.inkscape.org/namespaces/inkscape"
   xmlns:sodipodi="http://sodipodi.sourceforge.net/DTD/sodipodi-0.dtd"
   xmlns="http://www.w3.org/2000/svg"
   xmlns:svg="http://www.w3.org/2000/svg">
  <sodipodi:namedview
     id="namedview1"
     pagecolor="#ffffff"
     bordercolor="#000000"
     borderopacity="0.25"
     inkscape:showpageshadow="2"
     inkscape:pageopacity="0.0"
     inkscape:pagecheckerboard="0"
     inkscape:deskcolor="#d1d1d1"
     inkscape:document-units="mm"
     inkscape:zoom="0.76150443"
     inkscape:cx="227.18187"
     inkscape:cy="181.87681"
     inkscape:window-width="1440"
     inkscape:window-height="900"
     inkscape:window-x="0"
     inkscape:window-y="0"
     inkscape:window-maximized="0"
     inkscape:current-layer="layer1" />
  <defs
     id="defs1">
    <rect
       x="-572.24641"
       y="250.71666"
       width="849.75722"
       height="602.8683"
       id="rect53" />
    <rect
       x="-565.05473"
       y="1313.1998"
       width="312.51631"
       height="186.24709"
       id="rect18" />
    <rect
       x="969.52799"
       y="405.43898"
       width="8849.1464"
       height="7562.3184"
       id="rect17" />
    <rect
       x="706.79119"
       y="232.00016"
       width="2654.5135"
       height="2012.4665"
       id="rect16" />
    <rect
       x="-604.24005"
       y="1404.9918"
       width="13.368143"
       height="28.0731"
       id="rect15" />
    <rect
       x="-6320.921"
       y="2061.5927"
       width="8032.4319"
       height="5173.4307"
       id="rect14" />
    <rect
       x="-5873.5943"
       y="1789.3069"
       width="8752.0445"
       height="8051.8809"
       id="rect13" />
    <rect
       x="-5562.4105"
       y="1361.4291"
       width="8401.9627"
       height="4920.5939"
       id="rect12" />
    <rect
       x="-957.89726"
       y="1529.5456"
       width="7647.7281"
       height="4279.6377"
       id="rect11" />
    <rect
       x="-99.109596"
       y="454.25232"
       width="887.85681"
       height="396.43839"
       id="rect3" />
    <rect
       x="53.684364"
       y="70.202637"
       width="1763.325"
       height="1788.1024"
       id="rect1" />
  </defs>
  <g
     inkscape:label="Layer 1"
     inkscape:groupmode="layer"
     id="layer1">
    <path
       d="m 421.90832,85.426453 q 34.17969,0 58.59375,24.414067 24.41406,24.41406 24.41406,59.57031 0,0.97656 0,2.92969 0,8.78906 -2.92968,19.53125 -1.95313,9.76562 -6.83594,19.53125 -4.88281,8.78906 -11.71875,17.57812 -5.85938,8.78906 -12.69531,14.64844 -17.57813,12.69531 -40.03907,12.69531 -10.74218,0 -20.50781,-3.90625 -15.625,-3.90625 -30.27344,-11.71875 -2.92968,45.89844 -21.48437,87.89063 -15.625,34.17968 -39.0625,62.5 -2.92969,3.90625 -7.8125,3.90625 -3.90625,0 -6.83594,-2.92969 -2.92969,-2.92969 -2.92969,-7.8125 0,-3.90625 1.95313,-6.83594 21.48437,-27.34375 36.13281,-58.59375 20.50781,-45.89844 20.50781,-95.70312 0,-1.95313 0,-2.92969 0,-4.88281 2.92969,-7.8125 2.92969,-2.92969 6.83594,-2.92969 3.90625,0 6.83594,2.92969 18.55468,13.67187 40.03906,20.50781 6.83594,2.92969 14.64844,2.92969 15.625,0 27.34375,-8.78906 10.74218,-8.78907 17.57812,-24.41407 7.8125,-16.60156 7.8125,-30.27343 0,-1.95313 0,-2.92969 0,-26.36719 -18.55469,-43.94531 -18.55468,-18.55469 -43.94531,-18.55469 -25.39062,0 -43.94531,18.55469 -18.55469,18.55468 -18.55469,43.94531 0,0 0,0.97656 0,8.78906 0.97656,17.57813 0,0.97656 0,1.95312 0,3.90625 -2.92968,7.8125 -2.92969,2.92969 -6.83594,2.92969 -4.88281,0 -8.78906,-3.90625 -9.76563,-12.69531 -26.36719,-24.41406 -15.625,-11.71875 -34.17969,-18.55469 -18.55469,-7.8125 -34.17969,-9.76563 -3.90625,0 -8.78906,0 -17.57812,0 -39.0625,5.85938 -20.50781,5.85937 -40.03906,15.625 -19.53125,9.76562 -33.20313,21.48437 -11.71875,11.71875 -21.48437,31.25 -8.789064,18.55469 -8.789064,35.15625 0,4.88282 0.976562,8.78907 0,16.60156 9.765622,36.13281 9.76563,19.53125 23.4375,29.29687 9.76563,5.85938 20.50782,9.76563 15.625,7.8125 23.4375,11.71875 7.8125,3.90625 17.57812,13.67187 9.76563,9.76563 12.69531,21.48438 0.97657,3.90625 0.97657,7.8125 0,13.67187 -7.8125,25.39062 l 117.1875,62.5 q 15.625,-21.48437 5.85937,-31.25 -30.27344,-22.46093 -67.38281,-28.32031 -5.85938,-1.95312 -7.8125,-6.83594 -0.97656,-1.95312 -0.97656,-3.90625 0,-3.90625 2.92968,-6.83593 11.71875,-17.57813 19.53125,-44.92188 8.78907,-28.32031 8.78907,-49.80469 0,-0.97656 0,-2.92968 0,-14.64844 -7.8125,-26.36719 -6.83594,-12.69531 -17.57813,-18.55469 -9.76562,-6.83594 -21.48437,-10.74219 -10.74219,-3.90625 -17.57813,-4.88281 -6.83594,-1.95312 -8.78906,-1.95312 -9.76563,-0.97657 -9.76563,-9.76563 0,-0.97656 0,-0.97656 0,-4.88281 2.92969,-7.8125 2.92969,-2.92969 7.8125,-2.92969 0,0 0.97656,0 18.55469,1.95313 38.08594,9.76563 19.53125,7.8125 37.10938,27.34375 17.57812,19.53125 17.57812,45.89843 0,1.95313 0,3.90625 0,20.50782 -7.8125,48.82813 -6.83594,27.34375 -16.60156,44.92187 35.15625,8.78907 62.5,31.25 11.71875,9.76563 9.76562,23.4375 -0.97656,14.64844 -6.83593,24.41407 -4.88282,10.74218 -13.67188,18.55468 -2.92969,2.92969 -6.83594,2.92969 -0.97656,0 -0.97656,0 -1.95312,0 -3.90625,-0.97656 L 176.79113,429.17645 q -3.90625,-2.92968 -4.88281,-7.8125 0,-0.97656 0,-1.95312 0,-2.92969 1.95313,-5.85938 9.76562,-9.76562 9.76562,-24.41406 0,-0.97656 0,-1.95312 -2.92969,-12.69532 -41.01562,-29.29688 -12.69532,-4.88281 -23.4375,-11.71875 Q 101.59582,333.47333 88.900508,310.03583 76.205196,285.62177 76.205196,264.13739 v -1.95312 q -12.695313,11.71875 -30.273438,11.71875 -16.601562,0 -29.296875,-11.71875 -11.7187498,-12.69532 -11.7187498,-29.29688 0,-17.57812 11.7187498,-29.29687 12.695313,-12.69532 30.273438,-12.69532 6.835937,0 13.671875,2.92969 7.8125,2.92969 13.671875,8.78906 5.859375,4.88282 8.789062,10.74219 9.765625,-24.41406 29.296877,-41.99219 22.46094,-19.53125 58.59375,-33.20312 37.10937,-14.64844 67.38281,-14.64844 4.88281,0 10.74219,0 20.50781,1.95313 46.875,13.67188 26.36719,10.74218 41.99219,25.39062 1.95312,-14.64844 9.76562,-29.29687 8.78906,-15.625 21.48438,-27.34375 12.69531,-11.718755 27.34375,-16.601567 -10.74219,-18.554688 -31.25,-32.226563 -19.53125,-13.671875 -41.99219,-19.53125 -21.48438,-5.859375 -42.96875,-5.859375 -38.08594,0.976563 -72.26563,14.648438 -6.83593,4.882812 -6.83593,12.695312 0,1.953125 0,2.929688 5.85937,5.859375 13.67187,5.859375 3.90625,0 7.8125,-1.953125 27.34375,-9.765625 56.64063,-12.695313 6.83593,-0.976562 14.64843,-0.976562 37.10938,0 68.35938,19.53125 4.88281,2.929687 4.88281,8.789062 0,2.929688 -1.95312,5.859375 -2.92969,4.882813 -8.78907,4.882813 -2.92968,0 -5.85937,-1.953125 -26.36719,-16.601563 -56.64063,-16.601563 -5.85937,0 -11.71875,0.976563 -27.34375,2.929687 -52.73437,11.71875 -6.83594,2.929687 -14.64844,2.929687 -8.78906,0 -18.55469,-4.882812 -8.78906,-4.882813 -13.67187,-12.695313 -1.95313,-4.882812 -1.95313,-10.742187 0,-18.554688 15.625,-29.296875 40.03907,-18.554688 83.98438,-18.554688 41.01562,0 80.07812,19.53125 40.03907,18.554688 57.61719,53.710938 z M 31.283321,246.55927 q 6.835937,5.85937 14.648437,5.85937 8.789063,0 14.648438,-5.85937 6.835937,-6.83594 6.835937,-14.64844 0,-8.78906 -6.835937,-14.64844 -5.859375,-6.83594 -14.648438,-6.83594 -7.8125,0 -14.648437,6.83594 -5.859375,5.85938 -5.859375,14.64844 0,7.8125 5.859375,14.64844 z M 462.92395,179.17645 q 0,4.88282 -2.92969,7.8125 -2.92969,2.92969 -7.8125,2.92969 -3.90625,0 -6.83594,-2.92969 -2.92969,-2.92968 -2.92969,-7.8125 v -9.76562 q 0,-4.88281 2.92969,-7.8125 2.92969,-2.92969 6.83594,-2.92969 4.88281,0 7.8125,2.92969 2.92969,2.92969 2.92969,7.8125 z"
       id="text1"
       style="-inkscape-font-specification:jw-icons-external;fill-opacity:1"
       aria-label="" />
  </g>
</svg>
