<?xml version="1.0" encoding="UTF-8" standalone="no"?>
<!-- Created with Inkscape (http://www.inkscape.org/) -->

<svg
   width="512"
   height="512"
   viewBox="0 0 512 512"
   version="1.1"
   id="svg1"
   inkscape:version="1.4 (e7c3feb1, 2024-10-09)"
   sodipodi:docname="girl.svg"
   xmlns:inkscape="http://www.inkscape.org/namespaces/inkscape"
   xmlns:sodipodi="http://sodipodi.sourceforge.net/DTD/sodipodi-0.dtd"
   xmlns="http://www.w3.org/2000/svg"
   xmlns:svg="http://www.w3.org/2000/svg">
  <sodipodi:namedview
     id="namedview1"
     pagecolor="#ffffff"
     bordercolor="#000000"
     borderopacity="0.25"
     inkscape:showpageshadow="2"
     inkscape:pageopacity="0.0"
     inkscape:pagecheckerboard="0"
     inkscape:deskcolor="#d1d1d1"
     inkscape:document-units="mm"
     inkscape:zoom="0.80970762"
     inkscape:cx="90.773506"
     inkscape:cy="154.99422"
     inkscape:window-width="1440"
     inkscape:window-height="872"
     inkscape:window-x="0"
     inkscape:window-y="28"
     inkscape:window-maximized="0"
     inkscape:current-layer="layer1" />
  <defs
     id="defs1">
    <rect
       x="-572.24641"
       y="250.71666"
       width="849.75722"
       height="602.8683"
       id="rect53" />
    <rect
       x="-565.05473"
       y="1313.1998"
       width="312.51631"
       height="186.24709"
       id="rect18" />
    <rect
       x="969.52799"
       y="405.43898"
       width="8849.1464"
       height="7562.3184"
       id="rect17" />
    <rect
       x="706.79119"
       y="232.00016"
       width="2654.5135"
       height="2012.4665"
       id="rect16" />
    <rect
       x="-604.24005"
       y="1404.9918"
       width="13.368143"
       height="28.0731"
       id="rect15" />
    <rect
       x="-6320.921"
       y="2061.5927"
       width="8032.4319"
       height="5173.4307"
       id="rect14" />
    <rect
       x="-5873.5943"
       y="1789.3069"
       width="8752.0445"
       height="8051.8809"
       id="rect13" />
    <rect
       x="-5562.4105"
       y="1361.4291"
       width="8401.9627"
       height="4920.5939"
       id="rect12" />
    <rect
       x="-957.89726"
       y="1529.5456"
       width="7647.7281"
       height="4279.6377"
       id="rect11" />
    <rect
       x="-99.109596"
       y="454.25232"
       width="887.85681"
       height="396.43839"
       id="rect3" />
    <rect
       x="53.684364"
       y="70.202637"
       width="1763.325"
       height="1788.1024"
       id="rect1" />
  </defs>
  <g
     inkscape:label="Layer 1"
     inkscape:groupmode="layer"
     id="layer1">
    <text
       xml:space="preserve"
       transform="matrix(0.27093333,0,0,0.27093333,26.992401,-5.3984803)"
       id="text3"
       style="font-style:normal;font-variant:normal;font-weight:normal;font-stretch:normal;font-size:146.667px;line-height:0;font-family:jw-icons-external;-inkscape-font-specification:jw-icons-external;text-align:center;letter-spacing:5.8px;word-spacing:0px;writing-mode:lr-tb;direction:ltr;white-space:pre;shape-inside:url(#rect3);display:inline;fill:#000000;stroke-width:755.906" />
    <text
       xml:space="preserve"
       style="font-size:173.333px;line-height:0;font-family:jw-icons-external;-inkscape-font-specification:jw-icons-external;text-align:center;letter-spacing:5.8px;word-spacing:0px;writing-mode:lr-tb;direction:ltr;text-anchor:middle;fill:#000000;stroke:#000000;stroke-opacity:0"
       x="-595.15155"
       y="1062.416"
       id="text7"><tspan
         sodipodi:role="line"
         id="tspan7"
         x="-595.15155"
         y="1062.416"></tspan><tspan
         sodipodi:role="line"
         id="tspan8"
         x="-595.15155"
         y="1062.416" /><tspan
         sodipodi:role="line"
         x="-595.15155"
         y="1062.416"
         id="tspan9" /><tspan
         sodipodi:role="line"
         x="-595.15155"
         y="1062.416"
         id="tspan10" /></text>
    <text
       xml:space="preserve"
       id="text11"
       style="font-size:173.333px;line-height:0;font-family:jw-icons-external;-inkscape-font-specification:jw-icons-external;text-align:center;letter-spacing:5.8px;word-spacing:0px;writing-mode:lr-tb;direction:ltr;white-space:pre;shape-inside:url(#rect11);display:inline;fill:#000000;stroke:#000000;stroke-opacity:0"
       transform="translate(26.992401,-5.3984803)" />
    <text
       xml:space="preserve"
       id="text13"
       style="font-size:173.333px;line-height:0;font-family:jw-icons-external;-inkscape-font-specification:jw-icons-external;text-align:center;letter-spacing:5.8px;word-spacing:0px;writing-mode:lr-tb;direction:ltr;white-space:pre;shape-inside:url(#rect13);display:inline;fill:#000000;stroke:#000000;stroke-opacity:0"
       transform="translate(26.992401,-5.3984803)" />
    <text
       xml:space="preserve"
       id="text14"
       style="font-size:16px;line-height:0;font-family:jw-icons-external;-inkscape-font-specification:jw-icons-external;text-align:start;letter-spacing:5.8px;word-spacing:0px;writing-mode:lr-tb;direction:ltr;white-space:pre;shape-inside:url(#rect15);display:inline;fill:#000000;stroke:#000000;stroke-opacity:0"
       transform="translate(26.992401,-5.3984803)" />
    <text
       xml:space="preserve"
       id="text15"
       style="font-size:16px;line-height:0;font-family:jw-icons-external;-inkscape-font-specification:jw-icons-external;text-align:start;letter-spacing:5.8px;word-spacing:0px;writing-mode:lr-tb;direction:ltr;white-space:pre;shape-inside:url(#rect16);display:inline;fill:#000000;stroke:#000000;stroke-opacity:0"
       transform="translate(26.992401,-5.3984803)" />
    <text
       xml:space="preserve"
       id="text16"
       style="font-size:16px;line-height:1.5;font-family:jw-icons-external;-inkscape-font-specification:jw-icons-external;text-align:start;letter-spacing:5.8px;word-spacing:0px;writing-mode:lr-tb;direction:ltr;white-space:pre;shape-inside:url(#rect17);display:inline;fill:#000000;stroke:#000000;stroke-opacity:0"
       transform="translate(26.992401,-5.3984803)" />
    <text
       xml:space="preserve"
       id="text17"
       style="font-size:16px;line-height:1.5;font-family:jw-icons-external;-inkscape-font-specification:jw-icons-external;text-align:start;letter-spacing:5.8px;word-spacing:0px;writing-mode:lr-tb;direction:ltr;white-space:pre;shape-inside:url(#rect18);display:inline;fill:#000000;stroke:#000000;stroke-opacity:0"
       transform="translate(26.992401,-5.3984803)" />
    <text
       xml:space="preserve"
       style="font-size:533.333px;line-height:1.2;font-family:jw-icons-external;-inkscape-font-specification:jw-icons-external;text-align:start;letter-spacing:5.8px;word-spacing:0px;writing-mode:lr-tb;direction:ltr;text-anchor:start;fill:#000000;stroke:#000000;stroke-opacity:0"
       x="170.78011"
       y="302.49475"
       id="text20"><tspan
         sodipodi:role="line"
         id="tspan19"
         x="170.78011"
         y="302.49475"></tspan></text>
    <text
       xml:space="preserve"
       id="text53"
       style="font-style:normal;font-variant:normal;font-weight:normal;font-stretch:normal;font-size:133.333px;line-height:73.9;font-family:sans-serif;-inkscape-font-specification:sans-serif;text-align:start;letter-spacing:-10.72px;word-spacing:0px;writing-mode:lr-tb;direction:ltr;white-space:pre;shape-inside:url(#rect53);display:inline;fill:#000000;fill-opacity:1;stroke:#000000;stroke-opacity:0"><tspan
         x="-572.24609"
         y="5818.5488"
         id="tspan2"><tspan
           dx="0 102.73412 104.94765"
           id="tspan1">DOC</tspan></tspan></text>
    <path
       d="m 292.68538,280.38869 c 18.88021,13.02083 36.78386,27.34375 53.71094,42.96875 15.625,15.625 27.01823,59.57031 34.17969,131.83594 0,4.50285 -0.64261,10.80645 -9.76563,11.71875 h -0.97656 c -5.85937,0 -9.11458,-3.25521 -9.76562,-9.76563 -2.60417,-24.08854 -6.51042,-48.5026 -11.71875,-73.24218 -5.20833,-24.73959 -10.74219,-39.71355 -16.60157,-44.92188 -5.20833,-5.20833 -11.71875,-11.06771 -19.53125,-17.57812 -16.27604,27.34375 -35.15625,41.01562 -56.64062,41.01562 -21.48437,0 -40.6901,-13.34635 -57.61719,-40.03906 -7.16145,5.85937 -13.34635,11.39323 -18.55468,16.60156 -3.90625,3.90625 -7.8125,13.02084 -11.71875,27.34375 -3.90625,13.67187 -7.48698,28.64583 -10.74219,44.92188 -2.60417,15.625 -4.55729,30.92448 -5.85938,45.89843 -0.65104,6.51042 -3.90625,9.76563 -9.76562,9.76563 h -0.97656 c -6.51042,-0.65104 -9.76563,-4.23177 -9.76563,-10.74219 v -0.97656 c 7.16146,-72.26563 18.55469,-116.21094 34.17969,-131.83594 16.92708,-15.625 34.83073,-29.94792 53.71093,-42.96875 1.95313,-0.65104 3.90625,-0.97656 5.85938,-0.97656 2.60417,0 4.88281,0.97656 6.83594,2.92969 2.60417,1.95312 3.90625,4.23176 3.90625,6.83593 0,3.90625 -1.62761,6.83594 -4.88282,8.78907 -3.90625,2.60417 -9.11458,6.51042 -15.625,11.71875 13.02083,21.48437 26.69271,32.22656 41.01563,32.22656 14.32291,0 27.99479,-11.06771 41.01562,-33.20313 -7.8125,-5.20833 -13.02083,-8.78906 -15.625,-10.74218 -3.25521,-1.95313 -4.88281,-4.88282 -4.88281,-8.78907 0,-2.60417 0.97656,-4.88281 2.92969,-6.83593 2.60417,-1.95313 5.20833,-2.92969 7.8125,-2.92969 1.95313,0 3.90625,0.32552 5.85937,0.97656 z M 411.82601,154.41213 c -304.62681,-136.327232 -304.62681,-136.327232 0,0 z M 150.10726,286.24807 c -3.25521,-1.30209 -5.20833,-3.25521 -5.85937,-5.85938 -2.60417,-5.85937 -3.90625,-11.71875 -3.90625,-17.57812 0,-13.02083 4.55729,-24.08854 13.67187,-33.20313 8.46354,-7.8125 18.55469,-12.04427 30.27344,-12.69531 -5.85938,-16.92709 -9.76563,-34.50521 -11.71875,-52.73438 1.95312,-18.88021 10.09114,-34.83073 24.41406,-47.85156 6.51042,-6.51041 15.29948,-12.04426 26.36719,-16.601552 11.71875,-5.208333 22.46093,-7.8125 32.22656,-7.8125 8.46354,0 17.90364,1.953125 28.32031,5.859375 11.06771,3.906247 19.85677,9.114577 26.36719,15.624997 0.65104,0 1.30208,0.32552 1.95312,0.97656 2.60417,1.30208 4.23177,3.25521 4.88282,5.85937 12.36979,12.36979 19.53124,27.01823 21.48437,43.94531 -1.95313,18.22917 -6.1849,35.80729 -12.69531,52.73438 11.71875,0.65104 21.80989,4.88281 30.27344,12.69531 9.11458,9.11459 13.67187,20.1823 13.67187,33.20313 0,5.85937 -0.97656,11.71875 -2.92969,17.57812 -1.30208,2.60417 -3.2552,4.55729 -5.85937,5.85938 -5.85937,1.95312 -11.71875,2.92968 -17.57813,2.92968 -13.02083,0 -24.08854,-4.23177 -33.20312,-12.69531 -3.90625,-3.90625 -6.83594,-8.46354 -8.78906,-13.67187 -12.36979,11.06771 -27.01823,16.60156 -43.94532,16.60156 h -2.92968 -1.95313 c -16.92708,0 -31.57552,-5.53385 -43.94531,-16.60156 -1.95312,5.20833 -4.88281,9.76562 -8.78906,13.67187 -9.11458,8.46354 -19.85677,12.69531 -32.22656,12.69531 -6.51042,0 -12.3698,-0.97656 -17.57813,-2.92968 z m 105.46875,-28.32032 c 1.30208,0.65105 2.60416,0.97657 3.90625,0.97657 7.16146,0 14.32292,-2.27865 21.48437,-6.83594 7.8125,-5.20833 13.34636,-11.06771 16.60157,-17.57813 v -0.97656 c 0.65104,-1.30208 1.30208,-2.92968 1.95312,-4.88281 v -0.97656 c 0.65104,-0.65105 0.97656,-1.30209 0.97656,-1.95313 0,-0.65104 0.32552,-0.97656 0.97657,-0.97656 3.25521,-9.11459 6.18489,-17.90365 8.78906,-26.36719 l -35.15625,-29.29687 c -21.48437,13.67187 -44.92187,22.46093 -70.3125,26.36718 h -0.97656 -3.90625 c 2.60417,9.11459 5.85937,18.88021 9.76562,29.29688 v 0.97656 c 0.65104,0 0.97656,0.32552 0.97656,0.97656 v 0.97657 c 0.65105,2.60417 1.30209,4.55729 1.95313,5.85937 3.25521,7.16146 8.46354,13.34636 15.625,18.55469 7.8125,4.55729 15.625,6.83594 23.4375,6.83594 1.30208,0 2.60416,-0.32552 3.90625,-0.97657 z m 93.75,4.88282 c 0,-7.16146 -2.60417,-13.02084 -7.8125,-17.57813 -5.20833,-5.20833 -11.06771,-7.8125 -17.57813,-7.8125 -1.95312,0 -3.90624,0.32552 -5.85937,0.97656 v 4.88282 c 0,7.16145 2.27865,13.34635 6.83594,18.55468 5.20833,4.55729 11.39323,6.83594 18.55468,6.83594 1.30209,0 2.92969,-0.32552 4.88282,-0.97656 0.65104,-1.30209 0.97656,-2.92969 0.97656,-4.88281 z M 316.12288,175.8965 c 0.65105,-3.90625 1.30209,-7.8125 1.95313,-11.71875 -1.30209,-8.46354 -4.88282,-16.27604 -10.74219,-23.4375 -4.55729,5.20833 -9.44011,10.41667 -14.64844,15.625 z M 211.6307,131.95119 c -10.41667,8.46354 -16.60156,19.20573 -18.55469,32.22656 0,5.20833 0.65104,10.09115 1.95313,14.64844 1.95312,-1.95313 4.23177,-3.25521 6.83593,-3.90625 14.97396,-2.60417 31.25,-8.46354 48.82813,-17.57812 18.22917,-9.76563 32.22656,-20.18229 41.99218,-31.25 -11.06771,-9.11458 -23.4375,-13.67188 -37.10937,-13.67188 h -0.97656 c -16.92709,0 -31.25,6.51042 -42.96875,19.53125 z m -24.41406,105.46875 c -7.16146,0 -13.34636,2.60417 -18.55469,7.8125 -4.55729,4.55729 -6.83594,10.41667 -6.83594,17.57813 v 4.88281 c 1.95313,0.65104 3.90625,0.97656 5.85938,0.97656 7.16145,0 13.02083,-2.27865 17.57812,-6.83594 5.20833,-5.20833 7.8125,-11.39323 7.8125,-18.55468 0,-1.95313 -0.32552,-3.58073 -0.97656,-4.88282 -1.95313,-0.65104 -3.58073,-0.97656 -4.88281,-0.97656 z"
       id="text54"
       style="font-size:500px;line-height:73.9;font-family:jw-icons-external;-inkscape-font-specification:jw-icons-external;letter-spacing:-10.72px;word-spacing:0px;fill-opacity:0.809195;stroke:#000000;stroke-opacity:0"
       aria-label=""
       sodipodi:nodetypes="ccccscsccscscccscscccscsccsccscscccccscccccscccccccsccsccscsccsccscccccsccccccccscccscscscscscscccccccccccsscssscssscs" />
  </g>
</svg>
