<?xml version="1.0" encoding="UTF-8" standalone="no"?>
<!-- Created with Inkscape (http://www.inkscape.org/) -->

<svg
   width="512"
   height="512"
   viewBox="0 0 512 512"
   version="1.1"
   id="svg1"
   inkscape:version="1.4 (e7c3feb1, 2024-10-09)"
   sodipodi:docname="letter-writing.svg"
   xmlns:inkscape="http://www.inkscape.org/namespaces/inkscape"
   xmlns:sodipodi="http://sodipodi.sourceforge.net/DTD/sodipodi-0.dtd"
   xmlns="http://www.w3.org/2000/svg"
   xmlns:svg="http://www.w3.org/2000/svg">
  <sodipodi:namedview
     id="namedview1"
     pagecolor="#ffffff"
     bordercolor="#000000"
     borderopacity="0.25"
     inkscape:showpageshadow="2"
     inkscape:pageopacity="0.0"
     inkscape:pagecheckerboard="0"
     inkscape:deskcolor="#d1d1d1"
     inkscape:document-units="mm"
     inkscape:zoom="0.8382894"
     inkscape:cx="255.87822"
     inkscape:cy="319.10221"
     inkscape:window-width="1440"
     inkscape:window-height="900"
     inkscape:window-x="0"
     inkscape:window-y="0"
     inkscape:window-maximized="0"
     inkscape:current-layer="layer1" />
  <defs
     id="defs1">
    <rect
       x="-565.05473"
       y="1313.1998"
       width="312.51631"
       height="186.24709"
       id="rect18" />
    <rect
       x="969.52799"
       y="405.43898"
       width="8849.1464"
       height="7562.3184"
       id="rect17" />
    <rect
       x="706.79119"
       y="232.00016"
       width="2654.5135"
       height="2012.4665"
       id="rect16" />
    <rect
       x="-604.24005"
       y="1404.9918"
       width="13.368143"
       height="28.0731"
       id="rect15" />
    <rect
       x="-6320.921"
       y="2061.5927"
       width="8032.4319"
       height="5173.4307"
       id="rect14" />
    <rect
       x="-5873.5943"
       y="1789.3069"
       width="8752.0445"
       height="8051.8809"
       id="rect13" />
    <rect
       x="-5562.4105"
       y="1361.4291"
       width="8401.9627"
       height="4920.5939"
       id="rect12" />
    <rect
       x="-957.89726"
       y="1529.5456"
       width="7647.7281"
       height="4279.6377"
       id="rect11" />
    <rect
       x="-99.109596"
       y="454.25232"
       width="887.85681"
       height="396.43839"
       id="rect3" />
    <rect
       x="53.684364"
       y="70.202637"
       width="1763.325"
       height="1788.1024"
       id="rect1" />
  </defs>
  <g
     inkscape:label="Layer 1"
     inkscape:groupmode="layer"
     id="layer1">
    <text
       xml:space="preserve"
       transform="scale(0.27093333)"
       id="text3"
       style="font-style:normal;font-variant:normal;font-weight:normal;font-stretch:normal;font-size:146.667px;line-height:0;font-family:jw-icons-external;-inkscape-font-specification:jw-icons-external;text-align:center;letter-spacing:5.8px;word-spacing:0px;writing-mode:lr-tb;direction:ltr;white-space:pre;shape-inside:url(#rect3);display:inline;fill:#000000;stroke-width:755.906" />
    <text
       xml:space="preserve"
       style="font-size:173.333px;line-height:0;font-family:jw-icons-external;-inkscape-font-specification:jw-icons-external;text-align:center;letter-spacing:5.8px;word-spacing:0px;writing-mode:lr-tb;direction:ltr;text-anchor:middle;fill:#000000;stroke:#000000;stroke-opacity:0"
       x="-622.14398"
       y="1067.8145"
       id="text7"><tspan
         sodipodi:role="line"
         id="tspan7"
         x="-622.14398"
         y="1067.8145"></tspan><tspan
         sodipodi:role="line"
         id="tspan8"
         x="-622.14398"
         y="1067.8145" /><tspan
         sodipodi:role="line"
         x="-622.14398"
         y="1067.8145"
         id="tspan9" /><tspan
         sodipodi:role="line"
         x="-622.14398"
         y="1067.8145"
         id="tspan10" /></text>
    <text
       xml:space="preserve"
       id="text11"
       style="font-size:173.333px;line-height:0;font-family:jw-icons-external;-inkscape-font-specification:jw-icons-external;text-align:center;letter-spacing:5.8px;word-spacing:0px;writing-mode:lr-tb;direction:ltr;white-space:pre;shape-inside:url(#rect11);display:inline;fill:#000000;stroke:#000000;stroke-opacity:0" />
    <text
       xml:space="preserve"
       id="text13"
       style="font-size:173.333px;line-height:0;font-family:jw-icons-external;-inkscape-font-specification:jw-icons-external;text-align:center;letter-spacing:5.8px;word-spacing:0px;writing-mode:lr-tb;direction:ltr;white-space:pre;shape-inside:url(#rect13);display:inline;fill:#000000;stroke:#000000;stroke-opacity:0" />
    <text
       xml:space="preserve"
       id="text14"
       style="font-size:16px;line-height:0;font-family:jw-icons-external;-inkscape-font-specification:jw-icons-external;text-align:start;letter-spacing:5.8px;word-spacing:0px;writing-mode:lr-tb;direction:ltr;white-space:pre;shape-inside:url(#rect15);display:inline;fill:#000000;stroke:#000000;stroke-opacity:0" />
    <text
       xml:space="preserve"
       id="text15"
       style="font-size:16px;line-height:0;font-family:jw-icons-external;-inkscape-font-specification:jw-icons-external;text-align:start;letter-spacing:5.8px;word-spacing:0px;writing-mode:lr-tb;direction:ltr;white-space:pre;shape-inside:url(#rect16);display:inline;fill:#000000;stroke:#000000;stroke-opacity:0" />
    <text
       xml:space="preserve"
       id="text16"
       style="font-size:16px;line-height:1.5;font-family:jw-icons-external;-inkscape-font-specification:jw-icons-external;text-align:start;letter-spacing:5.8px;word-spacing:0px;writing-mode:lr-tb;direction:ltr;white-space:pre;shape-inside:url(#rect17);display:inline;fill:#000000;stroke:#000000;stroke-opacity:0" />
    <text
       xml:space="preserve"
       id="text17"
       style="font-size:16px;line-height:1.5;font-family:jw-icons-external;-inkscape-font-specification:jw-icons-external;text-align:start;letter-spacing:5.8px;word-spacing:0px;writing-mode:lr-tb;direction:ltr;white-space:pre;shape-inside:url(#rect18);display:inline;fill:#000000;stroke:#000000;stroke-opacity:0" />
    <text
       xml:space="preserve"
       style="font-size:533.333px;line-height:1.2;font-family:jw-icons-external;-inkscape-font-specification:jw-icons-external;text-align:start;letter-spacing:5.8px;word-spacing:0px;writing-mode:lr-tb;direction:ltr;text-anchor:start;fill:#000000;stroke:#000000;stroke-opacity:0"
       x="143.7877"
       y="307.89322"
       id="text20"><tspan
         sodipodi:role="line"
         id="tspan19"></tspan></text>
    <path
       d="M 258.3443,461.88284 H 92.328674 q -0.976562,0 -0.976562,0 -7.8125,0 -9.765625,-6.83593 l -41.992188,-125 q 0,-1.95313 0,-3.90625 0,-2.92969 1.953125,-5.85938 2.929688,-3.90625 8.789063,-3.90625 H 217.32867 q 6.83594,0 9.76563,6.83594 l 41.01562,125 q 0.97657,1.95312 0.97657,3.90625 0,2.92969 -1.95313,5.85937 -2.92969,3.90625 -8.78906,3.90625 z M 99.164612,441.37503 H 245.64899 L 209.51617,336.88284 H 64.008362 Z M 467.32867,461.88284 H 320.8443 q -3.90625,0 -6.83594,-2.92968 -2.92969,-2.92969 -2.92969,-7.8125 0,-3.90625 2.92969,-6.83594 2.92969,-2.92969 6.83594,-2.92969 h 146.48437 q 3.90625,0 6.83594,2.92969 2.92969,2.92969 2.92969,6.83594 0,4.88281 -2.92969,7.8125 -2.92969,2.92968 -6.83594,2.92968 z m -7.8125,-117.1875 q 6.83594,4.88282 11.71875,15.625 5.85938,9.76563 5.85938,18.55469 0,17.57813 -12.69531,30.27344 -11.71875,11.71875 -28.32032,11.71875 -6.83593,-0.97656 -13.67187,-2.92969 l -8.78906,17.57813 q -2.92969,5.85937 -8.78907,5.85937 -2.92968,0 -4.88281,-0.97656 -5.85937,-2.92969 -5.85937,-9.76563 0,-1.95312 0.97656,-3.90625 l 9.76562,-19.53125 q -10.74218,-12.69531 -10.74218,-28.32031 0,-17.57812 11.71875,-29.29687 12.69531,-12.69532 30.27343,-12.69532 h 3.90625 l 18.55469,-35.15625 q 2.92969,-5.85937 9.76563,-5.85937 3.90625,0 6.83593,2.92969 2.92969,2.92968 2.92969,6.83593 0,2.92969 -0.97656,4.88282 z m -39.0625,48.82813 q 6.83594,5.85937 14.64844,5.85937 8.78906,0 14.64844,-5.85937 6.83594,-5.85938 6.83594,-14.64844 0,-5.85937 -2.92969,-10.74219 -2.92969,-4.88281 -7.8125,-6.83593 -4.88281,-2.92969 -9.76563,-2.92969 -8.78906,0 -15.625,5.85937 -5.85937,5.85938 -5.85937,14.64844 0,8.78906 5.85937,14.64844 z m -15.625,-77.14844 q -4.88281,0 -7.8125,-2.92969 -2.92968,-2.92968 -2.92968,-7.8125 v -9.76562 L 297.4068,245.08597 q -4.88281,-2.92969 -4.88281,-8.78906 v -24.41407 q 0,-2.92968 0.97656,-5.85937 l 31.25,-43.94531 v -59.57032 q -7.8125,-13.671872 -24.41406,-23.437497 -15.625,-10.742187 -31.25,-12.695312 -15.625,1.953125 -32.22657,12.695312 -15.625,9.765625 -23.4375,23.437497 v 58.59375 l 31.25,44.92188 q 0.97657,1.95312 0.97657,5.85937 v 23.4375 q 0,5.85938 -4.88282,9.76563 l -102.53906,52.73437 q -1.95312,0.97657 -4.88281,0.97657 -5.85938,0 -8.78906,-5.85938 -0.97657,-1.95312 -0.97657,-4.88281 0,-5.85938 4.88282,-8.78906 l 96.67968,-49.80469 v -14.64844 l -30.27343,-43.94531 q -1.95313,-2.92969 -1.95313,-5.85938 V 99.578156 q 0,-2.929688 0.97656,-4.882813 2.92969,-4.882812 9.76563,-13.671875 6.83594,-9.765625 25.39062,-22.460937 19.53125,-12.695313 40.03907,-12.695313 44.92187,0 74.21875,48.828125 1.95312,1.953125 1.95312,4.882813 v 64.453124 q 0,3.90625 -1.95312,5.85938 l -30.27344,44.92187 v 14.64844 l 95.70312,49.80469 q 5.85938,2.92968 5.85938,8.78906 v 17.57812 q 0,10.74219 -9.76563,10.74219 z"
       id="text23"
       style="font-size:500px;line-height:1.2;font-family:jw-icons-external;-inkscape-font-specification:jw-icons-external;letter-spacing:5.8px;word-spacing:0px;stroke:#000000;stroke-opacity:0"
       aria-label="" />
  </g>
</svg>
