<?xml version="1.0" encoding="UTF-8" standalone="no"?>
<!-- Created with Inkscape (http://www.inkscape.org/) -->

<svg
   width="512"
   height="512"
   viewBox="0 0 512 512"
   version="1.1"
   id="svg1"
   inkscape:version="1.4 (e7c3feb1, 2024-10-09)"
   sodipodi:docname="memorial.svg"
   xmlns:inkscape="http://www.inkscape.org/namespaces/inkscape"
   xmlns:sodipodi="http://sodipodi.sourceforge.net/DTD/sodipodi-0.dtd"
   xmlns="http://www.w3.org/2000/svg"
   xmlns:svg="http://www.w3.org/2000/svg">
  <sodipodi:namedview
     id="namedview1"
     pagecolor="#ffffff"
     bordercolor="#000000"
     borderopacity="0.25"
     inkscape:showpageshadow="2"
     inkscape:pageopacity="0.0"
     inkscape:pagecheckerboard="0"
     inkscape:deskcolor="#d1d1d1"
     inkscape:document-units="mm"
     inkscape:zoom="0.54162325"
     inkscape:cx="222.47937"
     inkscape:cy="152.3199"
     inkscape:window-width="1440"
     inkscape:window-height="900"
     inkscape:window-x="0"
     inkscape:window-y="0"
     inkscape:window-maximized="0"
     inkscape:current-layer="layer1" />
  <defs
     id="defs1">
    <rect
       x="-565.05473"
       y="1313.1998"
       width="312.51631"
       height="186.24709"
       id="rect18" />
    <rect
       x="969.52799"
       y="405.43898"
       width="8849.1464"
       height="7562.3184"
       id="rect17" />
    <rect
       x="706.79119"
       y="232.00016"
       width="2654.5135"
       height="2012.4665"
       id="rect16" />
    <rect
       x="-604.24005"
       y="1404.9918"
       width="13.368143"
       height="28.0731"
       id="rect15" />
    <rect
       x="-6320.921"
       y="2061.5927"
       width="8032.4319"
       height="5173.4307"
       id="rect14" />
    <rect
       x="-5873.5943"
       y="1789.3069"
       width="8752.0445"
       height="8051.8809"
       id="rect13" />
    <rect
       x="-5562.4105"
       y="1361.4291"
       width="8401.9627"
       height="4920.5939"
       id="rect12" />
    <rect
       x="-957.89726"
       y="1529.5456"
       width="7647.7281"
       height="4279.6377"
       id="rect11" />
    <rect
       x="-99.109596"
       y="454.25232"
       width="887.85681"
       height="396.43839"
       id="rect3" />
    <rect
       x="53.684364"
       y="70.202637"
       width="1763.325"
       height="1788.1024"
       id="rect1" />
  </defs>
  <g
     inkscape:label="Layer 1"
     inkscape:groupmode="layer"
     id="layer1">
    <text
       xml:space="preserve"
       transform="scale(0.27093333)"
       id="text3"
       style="font-style:normal;font-variant:normal;font-weight:normal;font-stretch:normal;font-size:146.667px;line-height:0;font-family:jw-icons-external;-inkscape-font-specification:jw-icons-external;text-align:center;letter-spacing:5.8px;word-spacing:0px;writing-mode:lr-tb;direction:ltr;white-space:pre;shape-inside:url(#rect3);display:inline;fill:#000000;stroke-width:755.906" />
    <text
       xml:space="preserve"
       style="font-size:173.333px;line-height:0;font-family:jw-icons-external;-inkscape-font-specification:jw-icons-external;text-align:center;letter-spacing:5.8px;word-spacing:0px;writing-mode:lr-tb;direction:ltr;text-anchor:middle;fill:#000000;stroke:#000000;stroke-opacity:0"
       x="-622.14398"
       y="1067.8145"
       id="text7"><tspan
         sodipodi:role="line"
         id="tspan7"
         x="-622.14398"
         y="1067.8145"></tspan><tspan
         sodipodi:role="line"
         id="tspan8"
         x="-622.14398"
         y="1067.8145" /><tspan
         sodipodi:role="line"
         x="-622.14398"
         y="1067.8145"
         id="tspan9" /><tspan
         sodipodi:role="line"
         x="-622.14398"
         y="1067.8145"
         id="tspan10" /></text>
    <text
       xml:space="preserve"
       id="text11"
       style="font-size:173.333px;line-height:0;font-family:jw-icons-external;-inkscape-font-specification:jw-icons-external;text-align:center;letter-spacing:5.8px;word-spacing:0px;writing-mode:lr-tb;direction:ltr;white-space:pre;shape-inside:url(#rect11);display:inline;fill:#000000;stroke:#000000;stroke-opacity:0" />
    <text
       xml:space="preserve"
       id="text13"
       style="font-size:173.333px;line-height:0;font-family:jw-icons-external;-inkscape-font-specification:jw-icons-external;text-align:center;letter-spacing:5.8px;word-spacing:0px;writing-mode:lr-tb;direction:ltr;white-space:pre;shape-inside:url(#rect13);display:inline;fill:#000000;stroke:#000000;stroke-opacity:0" />
    <text
       xml:space="preserve"
       id="text14"
       style="font-size:16px;line-height:0;font-family:jw-icons-external;-inkscape-font-specification:jw-icons-external;text-align:start;letter-spacing:5.8px;word-spacing:0px;writing-mode:lr-tb;direction:ltr;white-space:pre;shape-inside:url(#rect15);display:inline;fill:#000000;stroke:#000000;stroke-opacity:0" />
    <text
       xml:space="preserve"
       id="text15"
       style="font-size:16px;line-height:0;font-family:jw-icons-external;-inkscape-font-specification:jw-icons-external;text-align:start;letter-spacing:5.8px;word-spacing:0px;writing-mode:lr-tb;direction:ltr;white-space:pre;shape-inside:url(#rect16);display:inline;fill:#000000;stroke:#000000;stroke-opacity:0" />
    <text
       xml:space="preserve"
       id="text16"
       style="font-size:16px;line-height:1.5;font-family:jw-icons-external;-inkscape-font-specification:jw-icons-external;text-align:start;letter-spacing:5.8px;word-spacing:0px;writing-mode:lr-tb;direction:ltr;white-space:pre;shape-inside:url(#rect17);display:inline;fill:#000000;stroke:#000000;stroke-opacity:0" />
    <text
       xml:space="preserve"
       id="text17"
       style="font-size:16px;line-height:1.5;font-family:jw-icons-external;-inkscape-font-specification:jw-icons-external;text-align:start;letter-spacing:5.8px;word-spacing:0px;writing-mode:lr-tb;direction:ltr;white-space:pre;shape-inside:url(#rect18);display:inline;fill:#000000;stroke:#000000;stroke-opacity:0" />
    <text
       xml:space="preserve"
       style="font-size:533.333px;line-height:1.2;font-family:jw-icons-external;-inkscape-font-specification:jw-icons-external;text-align:start;letter-spacing:5.8px;word-spacing:0px;writing-mode:lr-tb;direction:ltr;text-anchor:start;fill:#000000;stroke:#000000;stroke-opacity:0"
       x="143.7877"
       y="307.89322"
       id="text20"><tspan
         sodipodi:role="line"
         id="tspan19"></tspan></text>
    <path
       d="m 205.62739,463.62024 q 3.90625,0 6.83594,2.92969 2.92969,3.90625 2.92969,7.8125 0,3.90625 -2.92969,6.83593 -2.92969,3.90625 -6.83594,3.90625 H 80.627394 q -4.882812,0 -7.8125,-3.90625 -2.929687,-2.92968 -2.929687,-6.83593 0,-3.90625 2.929687,-7.8125 2.929688,-2.92969 7.8125,-2.92969 H 132.38521 V 296.62805 q -41.015628,-3.90625 -72.265628,-36.13281 -30.273438,-33.20313 -31.25,-75.19531 -0.976563,-0.97657 -0.976563,-2.92969 0,-0.97656 0.976563,-0.97656 -0.976563,-6.83594 -0.976563,-7.8125 1.953125,-71.28907 21.484375,-139.648441 1.953125,-7.8125 9.765625,-7.8125 H 226.13521 q 7.8125,0 9.76562,7.8125 19.53125,68.359371 21.48438,139.648441 0,0.97656 0,7.8125 0,0 0,0.97656 0,1.95312 -0.97657,2.92969 -0.97656,41.99218 -31.25,75.19531 -30.27343,32.22656 -72.26562,36.13281 V 463.62024 Z M 66.955519,47.604614 Q 50.353957,109.12805 49.377394,172.60461 H 236.87739 Q 234.92427,109.12805 218.32271,47.604614 Z M 50.353957,193.11243 q 3.90625,34.17968 30.273437,58.59375 27.343746,24.41406 62.499996,24.41406 22.46094,0 42.96875,-10.74219 20.50782,-11.71875 33.20313,-30.27344 13.67187,-19.53125 15.625,-41.99218 z M 484.92427,406.97961 q 1.95312,1.95313 1.95312,4.88282 0,2.92968 -1.95312,5.85937 -21.48438,27.34375 -62.5,46.875 -40.03906,20.50781 -75.19531,20.50781 -2.92969,0 -6.83594,0 -2.92969,0 -6.83594,0 -35.15625,0 -75.19531,-20.50781 -40.03906,-19.53125 -61.52344,-46.875 -1.95312,-2.92969 -1.95312,-5.85937 0,-3.90625 2.92968,-6.83594 2.92969,-3.90625 7.8125,-3.90625 h 270.50782 q 5.85937,0 8.78906,5.85937 z m -148.4375,56.64063 q 1.95312,0 3.90625,0 1.95312,0 4.88281,0 16.60156,0 37.10938,-5.85938 20.50781,-4.88281 39.0625,-14.64843 19.53125,-9.76563 31.25,-20.50782 H 228.08833 q 19.53125,16.60157 50.78125,28.32032 32.22656,12.69531 57.61719,12.69531 z M 218.32271,357.17493 q -2.92969,-3.90625 -2.92969,-7.8125 0,-3.90625 2.92969,-6.83594 3.90625,-3.90625 7.8125,-3.90625 h 229.49218 q 2.92969,0 4.88282,1.95312 1.95312,0.97657 2.92968,3.90625 1.95313,1.95313 1.95313,4.88282 0,3.90625 -2.92969,7.8125 -2.92969,2.92968 -6.83594,2.92968 H 226.13521 q -3.90625,0 -7.8125,-2.92968 z"
       id="text35"
       style="font-size:500px;line-height:1.2;font-family:jw-icons-external;-inkscape-font-specification:jw-icons-external;letter-spacing:5.8px;word-spacing:0px;stroke:#000000;stroke-opacity:0"
       aria-label="" />
  </g>
</svg>
