<?xml version="1.0" encoding="UTF-8" standalone="no"?>
<!-- Created with Inkscape (http://www.inkscape.org/) -->

<svg
   width="512"
   height="512"
   viewBox="0 0 512 512"
   version="1.1"
   id="svg1"
   inkscape:version="1.4 (e7c3feb1, 2024-10-09)"
   sodipodi:docname="midweek-meeting.svg"
   xmlns:inkscape="http://www.inkscape.org/namespaces/inkscape"
   xmlns:sodipodi="http://sodipodi.sourceforge.net/DTD/sodipodi-0.dtd"
   xmlns="http://www.w3.org/2000/svg"
   xmlns:svg="http://www.w3.org/2000/svg">
  <sodipodi:namedview
     id="namedview1"
     pagecolor="#ffffff"
     bordercolor="#000000"
     borderopacity="0.25"
     inkscape:showpageshadow="2"
     inkscape:pageopacity="0.0"
     inkscape:pagecheckerboard="0"
     inkscape:deskcolor="#d1d1d1"
     inkscape:document-units="mm"
     inkscape:zoom="0.8382894"
     inkscape:cx="255.87822"
     inkscape:cy="319.10221"
     inkscape:window-width="1440"
     inkscape:window-height="900"
     inkscape:window-x="0"
     inkscape:window-y="0"
     inkscape:window-maximized="0"
     inkscape:current-layer="layer1" />
  <defs
     id="defs1">
    <rect
       x="-565.05473"
       y="1313.1998"
       width="312.51631"
       height="186.24709"
       id="rect18" />
    <rect
       x="969.52799"
       y="405.43898"
       width="8849.1464"
       height="7562.3184"
       id="rect17" />
    <rect
       x="706.79119"
       y="232.00016"
       width="2654.5135"
       height="2012.4665"
       id="rect16" />
    <rect
       x="-604.24005"
       y="1404.9918"
       width="13.368143"
       height="28.0731"
       id="rect15" />
    <rect
       x="-6320.921"
       y="2061.5927"
       width="8032.4319"
       height="5173.4307"
       id="rect14" />
    <rect
       x="-5873.5943"
       y="1789.3069"
       width="8752.0445"
       height="8051.8809"
       id="rect13" />
    <rect
       x="-5562.4105"
       y="1361.4291"
       width="8401.9627"
       height="4920.5939"
       id="rect12" />
    <rect
       x="-957.89726"
       y="1529.5456"
       width="7647.7281"
       height="4279.6377"
       id="rect11" />
    <rect
       x="-99.109596"
       y="454.25232"
       width="887.85681"
       height="396.43839"
       id="rect3" />
    <rect
       x="53.684364"
       y="70.202637"
       width="1763.325"
       height="1788.1024"
       id="rect1" />
  </defs>
  <g
     inkscape:label="Layer 1"
     inkscape:groupmode="layer"
     id="layer1">
    <text
       xml:space="preserve"
       transform="scale(0.27093333)"
       id="text3"
       style="font-style:normal;font-variant:normal;font-weight:normal;font-stretch:normal;font-size:146.667px;line-height:0;font-family:jw-icons-external;-inkscape-font-specification:jw-icons-external;text-align:center;letter-spacing:5.8px;word-spacing:0px;writing-mode:lr-tb;direction:ltr;white-space:pre;shape-inside:url(#rect3);display:inline;fill:#000000;stroke-width:755.906" />
    <text
       xml:space="preserve"
       style="font-size:173.333px;line-height:0;font-family:jw-icons-external;-inkscape-font-specification:jw-icons-external;text-align:center;letter-spacing:5.8px;word-spacing:0px;writing-mode:lr-tb;direction:ltr;text-anchor:middle;fill:#000000;stroke:#000000;stroke-opacity:0"
       x="-622.14398"
       y="1067.8145"
       id="text7"><tspan
         sodipodi:role="line"
         id="tspan7"
         x="-622.14398"
         y="1067.8145"></tspan><tspan
         sodipodi:role="line"
         id="tspan8"
         x="-622.14398"
         y="1067.8145" /><tspan
         sodipodi:role="line"
         x="-622.14398"
         y="1067.8145"
         id="tspan9" /><tspan
         sodipodi:role="line"
         x="-622.14398"
         y="1067.8145"
         id="tspan10" /></text>
    <text
       xml:space="preserve"
       id="text11"
       style="font-size:173.333px;line-height:0;font-family:jw-icons-external;-inkscape-font-specification:jw-icons-external;text-align:center;letter-spacing:5.8px;word-spacing:0px;writing-mode:lr-tb;direction:ltr;white-space:pre;shape-inside:url(#rect11);display:inline;fill:#000000;stroke:#000000;stroke-opacity:0" />
    <text
       xml:space="preserve"
       id="text13"
       style="font-size:173.333px;line-height:0;font-family:jw-icons-external;-inkscape-font-specification:jw-icons-external;text-align:center;letter-spacing:5.8px;word-spacing:0px;writing-mode:lr-tb;direction:ltr;white-space:pre;shape-inside:url(#rect13);display:inline;fill:#000000;stroke:#000000;stroke-opacity:0" />
    <text
       xml:space="preserve"
       id="text14"
       style="font-size:16px;line-height:0;font-family:jw-icons-external;-inkscape-font-specification:jw-icons-external;text-align:start;letter-spacing:5.8px;word-spacing:0px;writing-mode:lr-tb;direction:ltr;white-space:pre;shape-inside:url(#rect15);display:inline;fill:#000000;stroke:#000000;stroke-opacity:0" />
    <text
       xml:space="preserve"
       id="text15"
       style="font-size:16px;line-height:0;font-family:jw-icons-external;-inkscape-font-specification:jw-icons-external;text-align:start;letter-spacing:5.8px;word-spacing:0px;writing-mode:lr-tb;direction:ltr;white-space:pre;shape-inside:url(#rect16);display:inline;fill:#000000;stroke:#000000;stroke-opacity:0" />
    <text
       xml:space="preserve"
       id="text16"
       style="font-size:16px;line-height:1.5;font-family:jw-icons-external;-inkscape-font-specification:jw-icons-external;text-align:start;letter-spacing:5.8px;word-spacing:0px;writing-mode:lr-tb;direction:ltr;white-space:pre;shape-inside:url(#rect17);display:inline;fill:#000000;stroke:#000000;stroke-opacity:0" />
    <text
       xml:space="preserve"
       id="text17"
       style="font-size:16px;line-height:1.5;font-family:jw-icons-external;-inkscape-font-specification:jw-icons-external;text-align:start;letter-spacing:5.8px;word-spacing:0px;writing-mode:lr-tb;direction:ltr;white-space:pre;shape-inside:url(#rect18);display:inline;fill:#000000;stroke:#000000;stroke-opacity:0" />
    <text
       xml:space="preserve"
       style="font-size:533.333px;line-height:1.2;font-family:jw-icons-external;-inkscape-font-specification:jw-icons-external;text-align:start;letter-spacing:5.8px;word-spacing:0px;writing-mode:lr-tb;direction:ltr;text-anchor:start;fill:#000000;stroke:#000000;stroke-opacity:0"
       x="143.7877"
       y="307.89322"
       id="text20"><tspan
         sodipodi:role="line"
         id="tspan19"></tspan></text>
    <path
       d="m 501.08171,485.20917 -0.97656,-0.97657 q 4.88281,2.92969 4.88281,7.8125 0,4.88282 -2.92968,7.8125 -2.92969,2.92969 -7.8125,2.92969 -2.92969,0 -4.88282,-0.97656 l -36.13281,-22.46094 q -4.88281,-2.92969 -4.88281,-8.78906 v -10.74219 q 0,-2.92969 1.95312,-5.85937 l 12.69532,-17.57813 v -20.50781 q -6.83594,-10.74219 -19.53125,-11.71875 -13.67188,1.95312 -20.50782,12.69531 v 20.50781 l 12.69532,17.57813 q 1.95312,2.92969 1.95312,6.83594 v 9.76562 q 0,6.83594 -5.85937,9.76563 l -46.875,22.46093 q -1.95313,0.97657 -4.88282,0.97657 -6.83593,0 -8.78906,-5.85938 -0.97656,-0.97656 -0.97656,-1.95312 0,-0.97657 0.97656,-0.97657 -1.95312,-0.97656 -2.92969,-2.92968 l -10.74218,-11.71875 q -4.88282,-3.90625 -4.88282,-10.74219 0,0 0,-0.97656 v -10.74219 q 0,-3.90625 1.95313,-7.8125 1.95312,-3.90625 4.88281,-5.85938 3.90625,-2.92968 7.8125,-2.92968 0,-0.97657 0,-0.97657 0,-17.57812 -9.76562,-31.25 -3.90625,-4.88281 -9.76563,-4.88281 -5.85937,0 -9.76562,3.90625 -9.76563,14.64844 -9.76563,32.22656 v 0.97657 q 3.90625,0 6.83594,2.92968 3.90625,1.95313 5.85937,5.85938 1.95313,3.90625 1.95313,7.8125 v 10.74219 0.97656 q 0,6.83594 -4.88281,10.74219 l -10.74219,11.71875 q 0.97656,1.95312 0.97656,2.92968 0,0.97657 -0.97656,2.92969 -2.92969,5.85938 -8.78906,5.85938 -2.92969,0 -4.88282,-1.95313 l -46.875,-22.46094 q -5.85937,-2.92968 -5.85937,-8.78906 V 460.7951 q 0,-2.92968 1.95312,-5.85937 l 12.69532,-17.57813 v -20.50781 q -7.8125,-9.76562 -19.53125,-11.71875 -11.71875,1.95313 -18.55469,11.71875 v 20.50781 l 12.69531,17.57813 q 1.95313,2.92969 1.95313,6.83594 v 9.76562 q 0,6.83594 -5.85938,9.76563 l -46.875,22.46093 q -1.95312,0.97657 -3.90625,0.97657 -6.83594,0 -9.76562,-5.85938 0,-0.97656 0,-1.95312 0,-0.97657 0,-0.97657 -1.95313,-0.97656 -2.92969,-2.92968 l -9.76563,-11.71875 q -4.88281,-3.90625 -4.88281,-10.74219 0,-0.97656 0,-1.95313 v -10.74218 q 0,-5.85938 3.90625,-10.74219 4.88281,-4.88281 10.74219,-5.85938 0,0 0,-0.97656 0,-16.60156 -9.76563,-31.25 -3.90625,-4.88281 -9.76562,-4.88281 h -0.97656 q -4.88282,0 -8.78907,4.88281 -9.76562,14.64844 -9.76562,32.22656 5.85937,0.97657 9.76562,5.85938 3.90625,4.88281 3.90625,10.74219 v 10.74218 0.97657 q 0,6.83593 -4.88281,11.71875 l -9.76562,11.71875 q -1.95313,0.97656 -3.90625,1.95312 0,0.97656 0,0.97656 0,0.97657 0,1.95313 -2.92969,5.85937 -8.78907,5.85937 -2.92968,0 -4.88281,-0.97656 L 78.230152,480.32635 q -5.859375,-2.92968 -5.859375,-9.76562 v -9.76563 -0.97656 q 0,-2.92969 1.953125,-5.85937 l 12.695312,-17.57813 v -20.50781 q -7.8125,-9.76563 -19.53125,-11.71875 -11.71875,2.92969 -18.554687,12.69531 v 20.50781 l 12.695312,17.57813 q 1.953125,2.92969 1.953125,5.85937 v 10.74219 q 0,5.85938 -4.882812,8.78906 l -37.109375,22.46094 q -1.953125,0.97656 -4.882813,0.97656 -5.859375,0 -9.7656248,-4.88281 -0.9765625,-1.95312 -0.9765625,-4.88281 0,-5.85938 4.8828123,-9.76563 L 43.073902,463.72479 30.378589,446.14667 q -1.953125,-2.92969 -1.953125,-5.85938 v -27.34375 -0.97656 q 0,-1.95313 1.953125,-4.88281 4.882813,-8.78907 15.625,-15.625 10.742188,-6.83594 21.484375,-7.8125 10.742188,0.97656 22.460938,7.8125 11.718748,6.83593 16.601558,16.60156 1.95313,2.92969 1.95313,4.88281 v 0.97656 26.36719 q 0,2.92969 -1.95313,5.85938 l -12.695308,17.57812 33.203128,16.60156 q 0,-0.97656 0,-0.97656 0,0 0,-0.97656 l 9.76562,-10.74219 v -5.85937 h -3.90625 q -3.90625,0 -7.8125,-2.92969 -2.92969,-2.92969 -2.92969,-7.8125 0,-2.92969 0,-5.85938 0,-27.34375 15.625,-50.78125 10.74219,-10.74218 25.39063,-10.74218 13.67187,0 23.4375,8.78906 l -0.97656,-0.97656 q -0.97657,-1.95313 -0.97657,-2.92969 l 3.90625,6.83594 q 15.625,21.48437 15.625,48.82812 0,3.90625 0,7.8125 -0.97656,9.76563 -10.74218,9.76563 h -2.92969 v 5.85937 l 9.76562,10.74219 v 1.95312 l 33.20313,-16.60156 -12.69531,-17.57812 q -1.95313,-2.92969 -1.95313,-5.85938 v -27.34375 q 0,-2.92969 0.97656,-5.85937 5.85938,-8.78907 16.60157,-15.625 10.74218,-6.83594 20.50781,-7.8125 11.71875,0.97656 23.4375,7.8125 11.71875,6.83593 16.60156,16.60156 0.97656,2.92969 0.97656,4.88281 v 0.97656 26.36719 q 0,2.92969 -1.95312,5.85938 l -11.71875,17.57812 30.27344,14.64844 9.76562,-10.74219 v -5.85937 h -3.90625 q -9.76562,0 -10.74219,-10.74219 0,-2.92969 0,-5.85938 0,-27.34375 15.625,-50.78125 10.74219,-10.74218 25.39063,-10.74218 13.67187,0 23.4375,8.78906 l 1.95312,2.92969 q 15.625,22.46093 15.625,48.82812 0,3.90625 0,7.8125 -0.97656,9.76563 -10.74218,9.76563 h -4.88282 v 5.85937 l 9.76563,10.74219 v 1.95312 l 33.20312,-16.60156 -12.69531,-17.57812 q -1.95312,-2.92969 -1.95312,-5.85938 v -27.34375 q 0,-2.92969 1.95312,-5.85937 2.92969,-5.85938 8.78906,-10.74219 6.83594,-5.85938 13.67188,-8.78906 7.8125,-2.92969 14.64844,-3.90625 6.83593,0 14.64843,3.90625 8.78907,2.92968 14.64844,8.78906 6.83594,5.85937 10.74219,11.71875 0.97656,2.92969 0.97656,4.88281 v 0.97656 27.34375 q 0,2.92969 -1.95312,5.85938 l -12.69532,18.55469 z M 496.1989,8.6466675 q 3.90625,0 6.83594,2.9296875 3.90625,2.929687 3.90625,7.8125 V 331.88885 q 0,3.90625 -3.90625,6.83594 -2.92969,2.92969 -6.83594,2.92969 H 255.96453 v 10.74219 q 0,3.90625 -2.92969,7.8125 -2.92969,2.92968 -7.8125,2.92968 -2.92969,0 -4.88281,-0.97656 -1.95313,-1.95312 -3.90625,-3.90625 -0.97657,-2.92969 -0.97657,-5.85937 V 224.46698 l -56.64062,-25.39063 q -5.85938,-2.92968 -5.85938,-9.76562 v -13.67188 q 0,-0.97656 0,-1.95312 0,-1.95313 0.97657,-3.90625 l 17.57812,-26.36719 v -33.20312 q -10.74219,-16.601565 -30.27344,-18.55469 -18.55468,2.929687 -28.32031,18.55469 v 33.20312 l 18.55469,26.36719 q 0.97656,0.97656 0.97656,2.92969 0,0.97656 -0.97656,2.92968 v 13.67188 0.97656 q 0,5.85938 -4.88281,8.78906 l -57.617191,28.32032 v 125 q 0,3.90625 -2.929687,7.8125 -2.929688,2.92968 -7.8125,2.92968 -3.90625,0 -6.835938,-2.92968 -2.929687,-3.90625 -2.929687,-7.8125 V 341.65448 H 16.706714 q -4.882812,0 -7.8124998,-2.92969 -2.9296875,-2.92969 -2.9296875,-6.83594 V 19.388855 q 0,-4.882813 2.9296875,-7.8125 Q 11.823902,8.6466675 16.706714,8.6466675 Z M 485.45671,321.14667 V 29.15448 H 26.472339 v 291.99219 h 41.992188 v -99.60938 q 0,-6.83594 5.859375,-9.76562 l 56.640628,-28.32032 v -4.88281 l -16.60157,-26.36719 q -1.95312,-1.95312 -1.95312,-5.85937 v -39.0625 q 0,-1.95313 1.95312,-4.88281 5.85938,-11.718753 19.53125,-20.507815 13.67188,-9.765625 27.34375,-10.742188 13.67188,0.976563 28.32032,10.742188 14.64843,8.789062 21.48437,20.507815 0.97656,2.92968 0.97656,4.88281 v 39.0625 q 0,3.90625 -1.95312,5.85937 l -16.60156,26.36719 v 3.90625 l 56.64062,25.39063 q 5.85938,1.95312 5.85938,8.78906 V 321.14667 Z M 154.40203,209.81854 q 3.90625,-2.92969 7.8125,-2.92969 3.90625,0 6.83593,2.92969 3.90625,2.92969 3.90625,6.83594 v 104.49219 q 0,3.90625 -3.90625,7.8125 -2.92968,2.92968 -6.83593,2.92968 -3.90625,0 -7.8125,-2.92968 -2.92969,-3.90625 -2.92969,-7.8125 V 216.65448 q 0,-3.90625 2.92969,-6.83594 z m 153.32031,-96.67969 q -3.90625,0 -6.83594,-2.92968 -2.92969,-3.90625 -2.92969,-7.8125 0,-3.906253 2.92969,-6.83594 2.92969,-3.90625 6.83594,-3.90625 h 125 q 4.88281,0 7.8125,3.90625 2.92969,2.929687 2.92969,6.83594 0,2.92968 -1.95313,5.85937 -0.97656,1.95313 -3.90625,3.90625 -1.95312,0.97656 -4.88281,0.97656 z m 0,62.5 q -3.90625,0 -6.83594,-2.92968 -2.92969,-3.90625 -2.92969,-7.8125 0,-3.90625 2.92969,-6.83594 2.92969,-3.90625 6.83594,-3.90625 h 125 q 4.88281,0 7.8125,3.90625 2.92969,2.92969 2.92969,6.83594 0,2.92968 -1.95313,5.85937 -0.97656,1.95313 -3.90625,3.90625 -1.95312,0.97656 -4.88281,0.97656 z m 0,62.5 q -3.90625,0 -6.83594,-2.92968 -2.92969,-3.90625 -2.92969,-7.8125 0,-3.90625 2.92969,-6.83594 2.92969,-3.90625 6.83594,-3.90625 h 125 q 4.88281,0 7.8125,3.90625 2.92969,2.92969 2.92969,6.83594 0,2.92968 -1.95313,5.85937 -0.97656,1.95313 -3.90625,3.90625 -1.95312,0.97656 -4.88281,0.97656 z"
       id="text23"
       style="font-size:500px;line-height:1.2;font-family:jw-icons-external;-inkscape-font-specification:jw-icons-external;letter-spacing:5.8px;word-spacing:0px;stroke:#000000;stroke-opacity:0"
       aria-label="" />
  </g>
</svg>
