<?xml version="1.0" encoding="UTF-8" standalone="no"?>
<!-- Created with Inkscape (http://www.inkscape.org/) -->

<svg
   width="512"
   height="512"
   viewBox="0 0 512 512"
   version="1.1"
   id="svg1"
   inkscape:version="1.4 (e7c3feb1, 2024-10-09)"
   sodipodi:docname="ministry.svg"
   xmlns:inkscape="http://www.inkscape.org/namespaces/inkscape"
   xmlns:sodipodi="http://sodipodi.sourceforge.net/DTD/sodipodi-0.dtd"
   xmlns="http://www.w3.org/2000/svg"
   xmlns:svg="http://www.w3.org/2000/svg">
  <sodipodi:namedview
     id="namedview1"
     pagecolor="#ffffff"
     bordercolor="#000000"
     borderopacity="0.25"
     inkscape:showpageshadow="2"
     inkscape:pageopacity="0.0"
     inkscape:pagecheckerboard="0"
     inkscape:deskcolor="#d1d1d1"
     inkscape:document-units="mm"
     inkscape:zoom="0.63983222"
     inkscape:cx="249.2841"
     inkscape:cy="280.5423"
     inkscape:window-width="1440"
     inkscape:window-height="900"
     inkscape:window-x="0"
     inkscape:window-y="0"
     inkscape:window-maximized="0"
     inkscape:current-layer="layer1" />
  <defs
     id="defs1">
    <rect
       x="-565.05473"
       y="1313.1998"
       width="312.51631"
       height="186.24709"
       id="rect18" />
    <rect
       x="969.52799"
       y="405.43898"
       width="8849.1464"
       height="7562.3184"
       id="rect17" />
    <rect
       x="706.79119"
       y="232.00016"
       width="2654.5135"
       height="2012.4665"
       id="rect16" />
    <rect
       x="-604.24005"
       y="1404.9918"
       width="13.368143"
       height="28.0731"
       id="rect15" />
    <rect
       x="-6320.921"
       y="2061.5927"
       width="8032.4319"
       height="5173.4307"
       id="rect14" />
    <rect
       x="-5873.5943"
       y="1789.3069"
       width="8752.0445"
       height="8051.8809"
       id="rect13" />
    <rect
       x="-5562.4105"
       y="1361.4291"
       width="8401.9627"
       height="4920.5939"
       id="rect12" />
    <rect
       x="-957.89726"
       y="1529.5456"
       width="7647.7281"
       height="4279.6377"
       id="rect11" />
    <rect
       x="-99.109596"
       y="454.25232"
       width="887.85681"
       height="396.43839"
       id="rect3" />
    <rect
       x="53.684364"
       y="70.202637"
       width="1763.325"
       height="1788.1024"
       id="rect1" />
  </defs>
  <g
     inkscape:label="Layer 1"
     inkscape:groupmode="layer"
     id="layer1">
    <text
       xml:space="preserve"
       transform="scale(0.27093333)"
       id="text3"
       style="font-style:normal;font-variant:normal;font-weight:normal;font-stretch:normal;font-size:146.667px;line-height:0;font-family:jw-icons-external;-inkscape-font-specification:jw-icons-external;text-align:center;letter-spacing:5.8px;word-spacing:0px;writing-mode:lr-tb;direction:ltr;white-space:pre;shape-inside:url(#rect3);display:inline;fill:#000000;stroke-width:755.906" />
    <text
       xml:space="preserve"
       style="font-size:173.333px;line-height:0;font-family:jw-icons-external;-inkscape-font-specification:jw-icons-external;text-align:center;letter-spacing:5.8px;word-spacing:0px;writing-mode:lr-tb;direction:ltr;text-anchor:middle;fill:#000000;stroke:#000000;stroke-opacity:0"
       x="-622.14398"
       y="1067.8145"
       id="text7"><tspan
         sodipodi:role="line"
         id="tspan7"
         x="-622.14398"
         y="1067.8145"></tspan><tspan
         sodipodi:role="line"
         id="tspan8"
         x="-622.14398"
         y="1067.8145" /><tspan
         sodipodi:role="line"
         x="-622.14398"
         y="1067.8145"
         id="tspan9" /><tspan
         sodipodi:role="line"
         x="-622.14398"
         y="1067.8145"
         id="tspan10" /></text>
    <text
       xml:space="preserve"
       id="text11"
       style="font-size:173.333px;line-height:0;font-family:jw-icons-external;-inkscape-font-specification:jw-icons-external;text-align:center;letter-spacing:5.8px;word-spacing:0px;writing-mode:lr-tb;direction:ltr;white-space:pre;shape-inside:url(#rect11);display:inline;fill:#000000;stroke:#000000;stroke-opacity:0" />
    <text
       xml:space="preserve"
       id="text13"
       style="font-size:173.333px;line-height:0;font-family:jw-icons-external;-inkscape-font-specification:jw-icons-external;text-align:center;letter-spacing:5.8px;word-spacing:0px;writing-mode:lr-tb;direction:ltr;white-space:pre;shape-inside:url(#rect13);display:inline;fill:#000000;stroke:#000000;stroke-opacity:0" />
    <text
       xml:space="preserve"
       id="text14"
       style="font-size:16px;line-height:0;font-family:jw-icons-external;-inkscape-font-specification:jw-icons-external;text-align:start;letter-spacing:5.8px;word-spacing:0px;writing-mode:lr-tb;direction:ltr;white-space:pre;shape-inside:url(#rect15);display:inline;fill:#000000;stroke:#000000;stroke-opacity:0" />
    <text
       xml:space="preserve"
       id="text15"
       style="font-size:16px;line-height:0;font-family:jw-icons-external;-inkscape-font-specification:jw-icons-external;text-align:start;letter-spacing:5.8px;word-spacing:0px;writing-mode:lr-tb;direction:ltr;white-space:pre;shape-inside:url(#rect16);display:inline;fill:#000000;stroke:#000000;stroke-opacity:0" />
    <text
       xml:space="preserve"
       id="text16"
       style="font-size:16px;line-height:1.5;font-family:jw-icons-external;-inkscape-font-specification:jw-icons-external;text-align:start;letter-spacing:5.8px;word-spacing:0px;writing-mode:lr-tb;direction:ltr;white-space:pre;shape-inside:url(#rect17);display:inline;fill:#000000;stroke:#000000;stroke-opacity:0" />
    <text
       xml:space="preserve"
       id="text17"
       style="font-size:16px;line-height:1.5;font-family:jw-icons-external;-inkscape-font-specification:jw-icons-external;text-align:start;letter-spacing:5.8px;word-spacing:0px;writing-mode:lr-tb;direction:ltr;white-space:pre;shape-inside:url(#rect18);display:inline;fill:#000000;stroke:#000000;stroke-opacity:0" />
    <path
       d="m 248.43915,210.0777 q 2.92969,-4.88281 8.78906,-4.88281 2.92969,0 4.88281,1.95312 4.88282,2.92969 4.88282,8.78906 0,2.92969 -1.95313,5.85938 l -50.78125,71.28906 q -3.90625,4.88281 -8.78906,4.88281 -6.83594,0 -9.76563,-6.83593 -14.64843,-36.13282 -35.15625,-70.3125 l -41.01562,-15.625 q -6.83594,-2.92969 -6.83594,-9.76563 v -12.69531 q 0,-3.90625 1.95313,-5.85938 l 16.60156,-25.39062 v -32.22656 q -1.95313,-2.92969 -4.88281,-5.85938 -1.95313,-3.90625 -5.85938,-6.83594 -2.92969,-2.92968 -6.83594,-4.88281 -3.90625,-2.929687 -7.8125,-3.90625 -3.90625,-0.976562 -7.812496,-1.953125 -9.765625,0.976563 -19.53125,7.812505 -9.765625,6.83593 -13.671875,15.625 v 32.22656 l 16.601562,25.39062 q 1.953125,1.95313 1.953125,5.85938 v 12.69531 q 0,0.97656 0,1.95313 0,5.85937 -4.882812,8.78906 l -41.992188,21.48437 q -8.789062,3.90625 -8.789062,13.67188 v 97.65625 l 19.53125,38.08594 q 0.976562,1.95312 1.953125,3.90625 l 8.789062,115.23437 q 0.976563,0.97656 0.976563,0.97656 0,9.76563 -9.765625,10.74219 -8.789063,-0.97656 -9.765625,-9.76562 L 28.712586,384.88239 8.2047739,345.81989 Q 7.2282114,343.86676 7.2282114,340.93707 V 241.3277 q 0,-9.76563 5.8593746,-18.55469 6.835938,-9.76562 14.648438,-13.67187 l 36.132812,-19.53125 v -3.90625 L 47.267274,161.24957 q -1.953125,-2.92968 -1.953125,-5.85937 v -38.08594 q -0.976563,-0.97656 -0.976563,-1.95312 0,-0.97657 0.976563,-1.95313 5.859375,-14.648437 21.484375,-25.390625 15.625,-11.71875 31.25,-12.695312 16.601566,0.976562 32.226566,12.695312 15.625,10.742188 21.48437,25.390625 0,0.97656 0,1.95313 0,0.97656 0,1.95312 v 38.08594 q 0,2.92969 -1.95312,5.85937 l -16.60157,24.41407 v 2.92968 l 37.10938,13.67188 q 12.69531,7.8125 38.08594,64.45312 z M 496.48602,7.9292603 q 9.76563,0.9765625 9.76563,10.7421877 V 497.18707 q 0,4.88282 -2.92969,7.8125 -2.92969,2.92969 -7.8125,2.92969 -3.90625,0 -6.83594,-2.92969 -2.92968,-2.92968 -2.92968,-7.8125 V 232.53864 q -13.67188,-5.85938 -57.61719,-26.36719 -5.85938,-2.92969 -5.85938,-9.76563 v -13.67187 q 0,-2.92969 1.95313,-5.85938 l 17.57812,-24.41406 v -32.22656 q -3.90625,-9.76563 -13.67187,-16.60156 -9.76563,-6.835942 -19.53125,-6.835942 -9.76563,0.976562 -19.53125,7.812502 -9.76563,6.83594 -13.67188,15.625 v 32.22656 l 16.60157,24.41406 q 1.95312,2.92969 1.95312,5.85938 v 13.67187 q 0,5.85938 -4.88281,8.78907 l -39.0625,23.4375 q -9.76563,3.90625 -9.76563,14.64843 v 95.70313 l 20.50782,40.03906 q 0,1.95313 0.97656,3.90625 l 8.78906,113.28125 q 0.97656,0.97656 0.97656,0.97656 0,9.76563 -9.76562,10.74219 -8.78906,-0.97656 -9.76563,-9.76562 l -9.76562,-112.30469 -21.48438,-40.03906 q -0.97656,-1.95313 -0.97656,-4.88282 v -97.65625 q 0,-9.76562 5.85938,-19.53125 6.83593,-9.76562 14.64843,-13.67187 l 35.15625,-19.53125 v -4.88281 l -16.60156,-24.41407 q -1.95312,-1.95312 -1.95312,-5.85937 v -38.08594 q 0,-0.97656 0,-0.97656 0,-0.97656 0,-1.95313 3.90625,-9.76562 12.69531,-18.554685 8.78906,-8.789062 19.53125,-13.671875 10.74219,-5.859375 21.48437,-5.859375 7.8125,0 15.625,3.90625 8.78907,2.929688 15.625,7.8125 6.83594,4.882813 12.69532,11.71875 5.85937,6.835935 8.78906,14.648435 0,0.97657 0,1.95313 0,0 0,0.97656 v 38.08594 q 0,2.92969 -1.95313,5.85937 l -16.60156,24.41407 v 3.90625 L 486.7204,210.0777 V 28.437073 h -187.5 v 93.749997 q 0,4.88282 -3.90625,7.8125 -2.92969,2.92969 -6.83594,2.92969 -2.92969,0 -5.85937,-0.97656 -1.95313,-1.95313 -3.90625,-3.90625 -0.97657,-2.92969 -0.97657,-5.85938 V 18.671448 q 0,-4.882813 2.92969,-7.8125 3.90625,-2.9296877 7.8125,-2.9296877 z M 164.45477,372.18707 q 9.76563,0.97657 9.76563,10.74219 0,0.97656 0,0.97656 l -10.74219,114.25782 q -0.97656,9.76562 -10.74219,9.76562 -9.76562,0 -9.76562,-10.74219 l 9.76562,-114.25781 q 0.97657,-10.74219 11.71875,-10.74219 z"
       id="text20"
       style="font-size:500px;line-height:1.2;font-family:jw-icons-external;-inkscape-font-specification:jw-icons-external;letter-spacing:5.8px;word-spacing:0px;stroke:#000000;stroke-opacity:0"
       aria-label="" />
  </g>
</svg>
