<?xml version="1.0" encoding="UTF-8" standalone="no"?>
<!-- Created with Inkscape (http://www.inkscape.org/) -->

<svg
   width="512"
   height="512"
   viewBox="0 0 512 512"
   version="1.1"
   id="svg1"
   inkscape:version="1.4 (e7c3feb1, 2024-10-09)"
   sodipodi:docname="outline.svg"
   xmlns:inkscape="http://www.inkscape.org/namespaces/inkscape"
   xmlns:sodipodi="http://sodipodi.sourceforge.net/DTD/sodipodi-0.dtd"
   xmlns="http://www.w3.org/2000/svg"
   xmlns:svg="http://www.w3.org/2000/svg">
  <sodipodi:namedview
     id="namedview1"
     pagecolor="#ffffff"
     bordercolor="#000000"
     borderopacity="0.25"
     inkscape:showpageshadow="2"
     inkscape:pageopacity="0.0"
     inkscape:pagecheckerboard="0"
     inkscape:deskcolor="#d1d1d1"
     inkscape:document-units="mm"
     inkscape:zoom="0.8382894"
     inkscape:cx="255.87822"
     inkscape:cy="319.10221"
     inkscape:window-width="1440"
     inkscape:window-height="900"
     inkscape:window-x="0"
     inkscape:window-y="0"
     inkscape:window-maximized="0"
     inkscape:current-layer="layer1" />
  <defs
     id="defs1">
    <rect
       x="-565.05473"
       y="1313.1998"
       width="312.51631"
       height="186.24709"
       id="rect18" />
    <rect
       x="969.52799"
       y="405.43898"
       width="8849.1464"
       height="7562.3184"
       id="rect17" />
    <rect
       x="706.79119"
       y="232.00016"
       width="2654.5135"
       height="2012.4665"
       id="rect16" />
    <rect
       x="-604.24005"
       y="1404.9918"
       width="13.368143"
       height="28.0731"
       id="rect15" />
    <rect
       x="-6320.921"
       y="2061.5927"
       width="8032.4319"
       height="5173.4307"
       id="rect14" />
    <rect
       x="-5873.5943"
       y="1789.3069"
       width="8752.0445"
       height="8051.8809"
       id="rect13" />
    <rect
       x="-5562.4105"
       y="1361.4291"
       width="8401.9627"
       height="4920.5939"
       id="rect12" />
    <rect
       x="-957.89726"
       y="1529.5456"
       width="7647.7281"
       height="4279.6377"
       id="rect11" />
    <rect
       x="-99.109596"
       y="454.25232"
       width="887.85681"
       height="396.43839"
       id="rect3" />
    <rect
       x="53.684364"
       y="70.202637"
       width="1763.325"
       height="1788.1024"
       id="rect1" />
  </defs>
  <g
     inkscape:label="Layer 1"
     inkscape:groupmode="layer"
     id="layer1">
    <text
       xml:space="preserve"
       transform="scale(0.27093333)"
       id="text3"
       style="font-style:normal;font-variant:normal;font-weight:normal;font-stretch:normal;font-size:146.667px;line-height:0;font-family:jw-icons-external;-inkscape-font-specification:jw-icons-external;text-align:center;letter-spacing:5.8px;word-spacing:0px;writing-mode:lr-tb;direction:ltr;white-space:pre;shape-inside:url(#rect3);display:inline;fill:#000000;stroke-width:755.906" />
    <text
       xml:space="preserve"
       style="font-size:173.333px;line-height:0;font-family:jw-icons-external;-inkscape-font-specification:jw-icons-external;text-align:center;letter-spacing:5.8px;word-spacing:0px;writing-mode:lr-tb;direction:ltr;text-anchor:middle;fill:#000000;stroke:#000000;stroke-opacity:0"
       x="-622.14398"
       y="1067.8145"
       id="text7"><tspan
         sodipodi:role="line"
         id="tspan7"
         x="-622.14398"
         y="1067.8145"></tspan><tspan
         sodipodi:role="line"
         id="tspan8"
         x="-622.14398"
         y="1067.8145" /><tspan
         sodipodi:role="line"
         x="-622.14398"
         y="1067.8145"
         id="tspan9" /><tspan
         sodipodi:role="line"
         x="-622.14398"
         y="1067.8145"
         id="tspan10" /></text>
    <text
       xml:space="preserve"
       id="text11"
       style="font-size:173.333px;line-height:0;font-family:jw-icons-external;-inkscape-font-specification:jw-icons-external;text-align:center;letter-spacing:5.8px;word-spacing:0px;writing-mode:lr-tb;direction:ltr;white-space:pre;shape-inside:url(#rect11);display:inline;fill:#000000;stroke:#000000;stroke-opacity:0" />
    <text
       xml:space="preserve"
       id="text13"
       style="font-size:173.333px;line-height:0;font-family:jw-icons-external;-inkscape-font-specification:jw-icons-external;text-align:center;letter-spacing:5.8px;word-spacing:0px;writing-mode:lr-tb;direction:ltr;white-space:pre;shape-inside:url(#rect13);display:inline;fill:#000000;stroke:#000000;stroke-opacity:0" />
    <text
       xml:space="preserve"
       id="text14"
       style="font-size:16px;line-height:0;font-family:jw-icons-external;-inkscape-font-specification:jw-icons-external;text-align:start;letter-spacing:5.8px;word-spacing:0px;writing-mode:lr-tb;direction:ltr;white-space:pre;shape-inside:url(#rect15);display:inline;fill:#000000;stroke:#000000;stroke-opacity:0" />
    <text
       xml:space="preserve"
       id="text15"
       style="font-size:16px;line-height:0;font-family:jw-icons-external;-inkscape-font-specification:jw-icons-external;text-align:start;letter-spacing:5.8px;word-spacing:0px;writing-mode:lr-tb;direction:ltr;white-space:pre;shape-inside:url(#rect16);display:inline;fill:#000000;stroke:#000000;stroke-opacity:0" />
    <text
       xml:space="preserve"
       id="text16"
       style="font-size:16px;line-height:1.5;font-family:jw-icons-external;-inkscape-font-specification:jw-icons-external;text-align:start;letter-spacing:5.8px;word-spacing:0px;writing-mode:lr-tb;direction:ltr;white-space:pre;shape-inside:url(#rect17);display:inline;fill:#000000;stroke:#000000;stroke-opacity:0" />
    <text
       xml:space="preserve"
       id="text17"
       style="font-size:16px;line-height:1.5;font-family:jw-icons-external;-inkscape-font-specification:jw-icons-external;text-align:start;letter-spacing:5.8px;word-spacing:0px;writing-mode:lr-tb;direction:ltr;white-space:pre;shape-inside:url(#rect18);display:inline;fill:#000000;stroke:#000000;stroke-opacity:0" />
    <text
       xml:space="preserve"
       style="font-size:533.333px;line-height:1.2;font-family:jw-icons-external;-inkscape-font-specification:jw-icons-external;text-align:start;letter-spacing:5.8px;word-spacing:0px;writing-mode:lr-tb;direction:ltr;text-anchor:start;fill:#000000;stroke:#000000;stroke-opacity:0"
       x="143.7877"
       y="307.89322"
       id="text20"><tspan
         sodipodi:role="line"
         id="tspan19"></tspan></text>
    <path
       d="m 416.55347,496.71155 q -3.90625,0 -6.83594,-1.95313 -3.90625,-2.92968 -3.90625,-7.8125 0,-3.90625 2.92969,-6.83593 L 454.6394,424.44592 H 228.0769 l 46.875,55.66407 q 2.92969,2.92968 2.92969,6.83593 0,4.88282 -3.90625,7.8125 -2.92969,1.95313 -6.83594,1.95313 -4.88281,0 -7.8125,-3.90625 l -60.54687,-72.26563 q -2.92969,-2.92968 -2.92969,-6.83593 0,-1.95313 0.97656,-3.90625 2.92969,-6.83594 9.76563,-6.83594 h 270.50781 q 6.83594,0 9.76563,6.83594 0.97656,1.95312 0.97656,3.90625 0,3.90625 -2.92969,6.83593 l -59.57031,72.26563 q -3.90625,3.90625 -8.78906,3.90625 z M 341.35815,393.19592 q -2.92968,0 -4.88281,-0.97656 -1.95312,-1.95312 -3.90625,-3.90625 -0.97656,-2.92969 -0.97656,-5.85937 v -58.59375 q 0,-4.88282 2.92969,-7.8125 2.92968,-2.92969 6.83593,-2.92969 4.88282,0 7.8125,2.92969 2.92969,2.92968 2.92969,7.8125 v 58.59375 q 0,3.90625 -2.92969,7.8125 -2.92968,2.92968 -7.8125,2.92968 z m 115.23438,0 q -4.88281,0 -7.8125,-2.92968 -2.92969,-3.90625 -2.92969,-7.8125 v -41.99219 l -81.05469,-41.01563 q -4.88281,-2.92968 -4.88281,-9.76562 v -20.50781 q 0,-2.92969 0.97656,-5.85938 l 25.39063,-39.0625 v -49.80469 q -5.85938,-11.71875 -19.53125,-20.50781 -12.69531,-9.76562 -25.39063,-10.74219 -7.8125,0.97657 -17.57812,5.85938 -8.78906,3.90625 -16.60156,10.74219 -6.83594,6.83593 -10.74219,14.64843 v 50.78125 l 25.39062,38.08594 q 1.95313,2.92969 1.95313,5.85938 v 20.50781 q 0,6.83594 -5.85938,9.76562 l -80.07812,41.01563 v 41.99219 q 0,3.90625 -3.90625,7.8125 -2.92969,2.92968 -6.83594,2.92968 -3.90625,0 -7.8125,-2.92968 -2.92969,-3.90625 -2.92969,-7.8125 v -46.875 q 0,-6.83594 5.85938,-9.76563 l 81.05469,-42.96875 v -11.71875 l -25.39063,-38.08594 q -1.95312,-2.92968 -1.95312,-5.85937 v -56.64063 q 0,-2.92968 0.97656,-4.88281 0,-1.95312 6.83594,-11.71875 6.83593,-9.76562 22.46093,-20.50781 16.60157,-11.71875 35.15625,-11.71875 17.57813,1.95312 36.13282,14.64844 19.53125,12.69531 28.32031,29.29687 0.97656,1.95313 0.97656,4.88281 v 56.64063 q 0,2.92969 -1.95312,5.85937 l -25.39063,38.08594 v 11.71875 l 81.05469,42.96875 q 4.88281,2.92969 4.88281,9.76563 v 46.875 q 0,9.76562 -8.78906,10.74218 z m -218.75,-187.5 H 102.10034 q -3.906249,0 -7.812499,-2.92968 -2.929688,-3.90625 -2.929688,-7.8125 0,-3.90625 2.929688,-6.83594 3.90625,-3.90625 7.812499,-3.90625 h 135.74219 q 3.90625,0 6.83594,3.90625 2.92968,2.92969 2.92968,6.83594 0,3.90625 -2.92968,7.8125 -2.92969,2.92968 -6.83594,2.92968 z m 0,62.5 h -93.75 q -4.88281,0 -7.8125,-2.92968 -2.92969,-3.90625 -2.92969,-7.8125 0,-3.90625 2.92969,-6.83594 2.92969,-3.90625 7.8125,-3.90625 h 93.75 q 3.90625,0 6.83594,3.90625 2.92968,2.92969 2.92968,6.83594 0,3.90625 -2.92968,7.8125 -2.92969,2.92968 -6.83594,2.92968 z m -41.99219,62.5 h -93.75 q -3.906249,0 -7.812499,-2.92968 -2.929688,-3.90625 -2.929688,-7.8125 0,-3.90625 2.929688,-6.83594 3.90625,-3.90625 7.812499,-3.90625 h 93.75 q 3.90625,0 6.83594,3.90625 3.90625,2.92969 3.90625,6.83594 0,3.90625 -3.90625,7.8125 -2.92969,2.92968 -6.83594,2.92968 z m -20.50781,62.5 h -31.25 q -4.88281,0 -7.8125,-2.92968 -2.92969,-3.90625 -2.92969,-7.8125 0,-3.90625 2.92969,-6.83594 2.92969,-3.90625 7.8125,-3.90625 h 31.25 q 2.92969,0 4.88281,1.95312 1.95313,0.97657 2.92969,3.90625 1.95312,1.95313 1.95312,4.88282 0,3.90625 -2.92968,7.8125 -2.92969,2.92968 -6.83594,2.92968 z M 317.92065,83.62561 q 2.92969,2.929688 2.92969,7.8125 0,3.90625 -2.92969,6.835938 -2.92968,2.929692 -7.8125,2.929692 -3.90625,0 -6.83593,-2.929692 L 258.35034,53.352173 v 79.101567 q 3.90625,0 6.83594,2.92968 3.90625,2.92969 3.90625,7.8125 0,3.90625 -3.90625,6.83594 -2.92969,2.92969 -6.83594,2.92969 h -10.74219 q -3.90625,0 -6.83593,-2.92969 -2.92969,-2.92969 -2.92969,-6.83594 V 38.703735 H 50.342528 V 455.69592 H 185.10815 q 4.88282,0 7.8125,2.92969 2.92969,2.92969 2.92969,6.83594 0,4.88281 -2.92969,7.8125 -2.92968,2.92969 -7.8125,2.92969 H 39.600341 q -3.90625,0 -7.8125,-2.92969 -2.929688,-2.92969 -2.929688,-7.8125 V 27.961548 q 0,-2.929688 0.976563,-4.882813 1.953125,-1.953125 3.90625,-2.929687 2.929687,-1.953125 5.859375,-1.953125 H 247.60815 q 4.88282,0 7.8125,2.929687 z"
       id="text23"
       style="font-size:500px;line-height:1.2;font-family:jw-icons-external;-inkscape-font-specification:jw-icons-external;letter-spacing:5.8px;word-spacing:0px;stroke:#000000;stroke-opacity:0"
       aria-label="" />
  </g>
</svg>
