<?xml version="1.0" encoding="UTF-8" standalone="no"?>
<!-- Created with Inkscape (http://www.inkscape.org/) -->

<svg
   width="512"
   height="512"
   viewBox="0 0 512 512"
   version="1.1"
   id="svg1"
   inkscape:version="1.4 (e7c3feb1, 2024-10-09)"
   sodipodi:docname="filetype-pdf.svg"
   xmlns:inkscape="http://www.inkscape.org/namespaces/inkscape"
   xmlns:sodipodi="http://sodipodi.sourceforge.net/DTD/sodipodi-0.dtd"
   xmlns="http://www.w3.org/2000/svg"
   xmlns:svg="http://www.w3.org/2000/svg">
  <sodipodi:namedview
     id="namedview1"
     pagecolor="#ffffff"
     bordercolor="#000000"
     borderopacity="0.25"
     inkscape:showpageshadow="2"
     inkscape:pageopacity="0.0"
     inkscape:pagecheckerboard="0"
     inkscape:deskcolor="#d1d1d1"
     inkscape:document-units="mm"
     inkscape:zoom="0.76150443"
     inkscape:cx="225.86868"
     inkscape:cy="372.28937"
     inkscape:window-width="1440"
     inkscape:window-height="900"
     inkscape:window-x="0"
     inkscape:window-y="0"
     inkscape:window-maximized="0"
     inkscape:current-layer="layer1" />
  <defs
     id="defs1">
    <rect
       x="-572.24641"
       y="250.71666"
       width="849.75722"
       height="602.8683"
       id="rect53" />
    <rect
       x="-565.05473"
       y="1313.1998"
       width="312.51631"
       height="186.24709"
       id="rect18" />
    <rect
       x="969.52799"
       y="405.43898"
       width="8849.1464"
       height="7562.3184"
       id="rect17" />
    <rect
       x="706.79119"
       y="232.00016"
       width="2654.5135"
       height="2012.4665"
       id="rect16" />
    <rect
       x="-604.24005"
       y="1404.9918"
       width="13.368143"
       height="28.0731"
       id="rect15" />
    <rect
       x="-6320.921"
       y="2061.5927"
       width="8032.4319"
       height="5173.4307"
       id="rect14" />
    <rect
       x="-5873.5943"
       y="1789.3069"
       width="8752.0445"
       height="8051.8809"
       id="rect13" />
    <rect
       x="-5562.4105"
       y="1361.4291"
       width="8401.9627"
       height="4920.5939"
       id="rect12" />
    <rect
       x="-957.89726"
       y="1529.5456"
       width="7647.7281"
       height="4279.6377"
       id="rect11" />
    <rect
       x="-99.109596"
       y="454.25232"
       width="887.85681"
       height="396.43839"
       id="rect3" />
    <rect
       x="53.684364"
       y="70.202637"
       width="1763.325"
       height="1788.1024"
       id="rect1" />
  </defs>
  <g
     inkscape:label="Layer 1"
     inkscape:groupmode="layer"
     id="layer1">
    <path
       style="font-size:191.044px;line-height:73.9;-inkscape-font-specification:sans-serif;letter-spacing:-10.72px;word-spacing:0px;display:inline;stroke:#000000;stroke-width:1.61003;stroke-opacity:0"
       d="m 139.38996,360.54668 c 0,7.71968 -1.0959,14.89353 -3.2877,21.52155 -2.12916,6.55004 -5.13505,12.24233 -9.01765,17.07687 -4.82194,6.0042 -10.52059,10.52684 -17.09596,13.56793 -6.57537,2.96312 -14.872864,4.44468 -24.892484,4.44468 h -18.59892 v 64.91552 H 47.898336 V 307.91248 h 37.9493 c 8.39143,0 15.499094,0.89672 21.322984,2.69017 5.82391,1.7155 10.99027,4.44468 15.4991,8.18755 5.32292,4.44468 9.4247,9.98102 12.30533,16.60902 2.94328,6.62802 4.41491,15.01051 4.41491,25.14746 z m -19.3504,0.58483 c 0,-6.0042 -0.8454,-11.22864 -2.53621,-15.67331 -1.69081,-4.44467 -4.25833,-8.07057 -7.70257,-10.87771 -3.00588,-2.41729 -6.45013,-4.13278 -10.332734,-5.14647 -3.81998,-1.09167 -8.67323,-1.63751 -14.55975,-1.63751 h -18.41105 v 69.59412 h 15.68697 c 7.51471,0 13.62041,-0.81876 18.317104,-2.45627 4.6967,-1.71547 8.51669,-4.40567 11.45995,-8.07058 2.94325,-3.74286 5.00979,-7.68067 6.19962,-11.81344 1.25245,-4.13277 1.87867,-8.77238 1.87867,-13.91883 z m 142.34475,34.03678 c 0,15.82927 -2.7867,30.17697 -8.36011,43.04311 -5.5108,12.86613 -12.86895,22.84714 -22.07446,29.94301 -6.38751,4.91253 -13.5265,8.46046 -21.41695,10.64381 -7.82781,2.18334 -13.78605,3.27501 -26.6237,3.27501 H 159.5951 V 307.91248 h 23.93825 c 13.65173,0 20.11097,1.24762 28.12666,3.74287 8.07831,2.41727 14.90418,5.77025 20.4776,10.05896 9.51863,7.40779 16.9394,17.27184 22.26232,29.59215 5.32292,12.3203 7.98438,26.94091 7.98438,43.86183 z M 242.94,394.81742 c 0,-13.64591 -1.90999,-25.14747 -5.72997,-34.50467 -3.81998,-9.35719 -9.51864,-16.72598 -17.09598,-22.10636 -5.51079,-3.89883 -11.366,-6.58902 -17.56563,-8.07059 -6.19965,-1.55953 -9.24594,-2.33929 -17.88785,-2.33929 h -6.46654 v 134.39268 h 6.46654 c 8.95503,0 12.37706,-0.81875 19.01505,-2.45625 6.70063,-1.63751 12.83764,-4.6786 18.41104,-9.12327 6.95111,-5.53634 12.14879,-12.82715 15.59303,-21.87242 3.50687,-9.04529 5.26031,-20.3519 5.26031,-33.91983 z m 129.61224,-66.31913 h -70.73223 v 49.12528 h 60.77526 v 20.58582 h -60.77526 v 83.86384 H 283.2211 V 307.91248 h 89.33114 z"
       id="text50"
       aria-label="PDF"
       sodipodi:nodetypes="scscsccccscccsssccsccscccsscccsccsccssssccsccscccsccccccccccc" />
    <path
       id="text36-0"
       d="m 159.27323,21.441652 c -2.60417,0 -5.20834,1.30208 -7.8125,3.90625 -1.95313,1.95312 -2.92969,4.23177 -2.92969,6.83594 V 282.56193 h 21.48438 V 42.926022 h 187.5 v 93.749998 c 0,2.60417 0.97656,4.88282 2.92968,6.83594 1.95313,1.95312 4.23177,2.92969 6.83594,2.92969 h 93.75 v 312.5 h -81.2704 v 21.48437 h 92.01259 c 2.60416,0 4.88281,-1.30208 6.83594,-3.90625 2.60416,-1.95312 3.90625,-4.23177 3.90625,-6.83593 V 136.67602 c 0,-1.30208 -0.32553,-2.60416 -0.97657,-3.90625 L 479.58573,128.86352 375.09354,24.371342 c -1.95312,-1.95313 -4.55729,-2.92969 -7.8125,-2.92969 z m 218.75,36.13281 68.35937,68.359378 h -68.35937 z"
       sodipodi:nodetypes="sssccccsssccccscsssccsscccc"
       inkscape:label="document"
       style="display:inline" />
  </g>
</svg>
