<?xml version="1.0" encoding="UTF-8" standalone="no"?>
<!-- Created with Inkscape (http://www.inkscape.org/) -->

<svg
   width="512"
   height="512"
   viewBox="0 0 512 512"
   version="1.1"
   id="svg1"
   inkscape:version="1.4 (e7c3feb1, 2024-10-09)"
   sodipodi:docname="publishers.svg"
   xmlns:inkscape="http://www.inkscape.org/namespaces/inkscape"
   xmlns:sodipodi="http://sodipodi.sourceforge.net/DTD/sodipodi-0.dtd"
   xmlns="http://www.w3.org/2000/svg"
   xmlns:svg="http://www.w3.org/2000/svg">
  <sodipodi:namedview
     id="namedview1"
     pagecolor="#ffffff"
     bordercolor="#000000"
     borderopacity="0.25"
     inkscape:showpageshadow="2"
     inkscape:pageopacity="0.0"
     inkscape:pagecheckerboard="0"
     inkscape:deskcolor="#d1d1d1"
     inkscape:document-units="mm"
     inkscape:zoom="0.63983222"
     inkscape:cx="246.15828"
     inkscape:cy="280.5423"
     inkscape:window-width="1440"
     inkscape:window-height="900"
     inkscape:window-x="0"
     inkscape:window-y="0"
     inkscape:window-maximized="0"
     inkscape:current-layer="layer1" />
  <defs
     id="defs1">
    <rect
       x="-565.05473"
       y="1313.1998"
       width="312.51631"
       height="186.24709"
       id="rect18" />
    <rect
       x="969.52799"
       y="405.43898"
       width="8849.1464"
       height="7562.3184"
       id="rect17" />
    <rect
       x="706.79119"
       y="232.00016"
       width="2654.5135"
       height="2012.4665"
       id="rect16" />
    <rect
       x="-604.24005"
       y="1404.9918"
       width="13.368143"
       height="28.0731"
       id="rect15" />
    <rect
       x="-6320.921"
       y="2061.5927"
       width="8032.4319"
       height="5173.4307"
       id="rect14" />
    <rect
       x="-5873.5943"
       y="1789.3069"
       width="8752.0445"
       height="8051.8809"
       id="rect13" />
    <rect
       x="-5562.4105"
       y="1361.4291"
       width="8401.9627"
       height="4920.5939"
       id="rect12" />
    <rect
       x="-957.89726"
       y="1529.5456"
       width="7647.7281"
       height="4279.6377"
       id="rect11" />
    <rect
       x="-99.109596"
       y="454.25232"
       width="887.85681"
       height="396.43839"
       id="rect3" />
    <rect
       x="53.684364"
       y="70.202637"
       width="1763.325"
       height="1788.1024"
       id="rect1" />
  </defs>
  <g
     inkscape:label="Layer 1"
     inkscape:groupmode="layer"
     id="layer1">
    <text
       xml:space="preserve"
       transform="scale(0.27093333)"
       id="text3"
       style="font-style:normal;font-variant:normal;font-weight:normal;font-stretch:normal;font-size:146.667px;line-height:0;font-family:jw-icons-external;-inkscape-font-specification:jw-icons-external;text-align:center;letter-spacing:5.8px;word-spacing:0px;writing-mode:lr-tb;direction:ltr;white-space:pre;shape-inside:url(#rect3);display:inline;fill:#000000;stroke-width:755.906" />
    <text
       xml:space="preserve"
       style="font-size:173.333px;line-height:0;font-family:jw-icons-external;-inkscape-font-specification:jw-icons-external;text-align:center;letter-spacing:5.8px;word-spacing:0px;writing-mode:lr-tb;direction:ltr;text-anchor:middle;fill:#000000;stroke:#000000;stroke-opacity:0"
       x="-622.14398"
       y="1067.8145"
       id="text7"><tspan
         sodipodi:role="line"
         id="tspan7"
         x="-622.14398"
         y="1067.8145"></tspan><tspan
         sodipodi:role="line"
         id="tspan8"
         x="-622.14398"
         y="1067.8145" /><tspan
         sodipodi:role="line"
         x="-622.14398"
         y="1067.8145"
         id="tspan9" /><tspan
         sodipodi:role="line"
         x="-622.14398"
         y="1067.8145"
         id="tspan10" /></text>
    <text
       xml:space="preserve"
       id="text11"
       style="font-size:173.333px;line-height:0;font-family:jw-icons-external;-inkscape-font-specification:jw-icons-external;text-align:center;letter-spacing:5.8px;word-spacing:0px;writing-mode:lr-tb;direction:ltr;white-space:pre;shape-inside:url(#rect11);display:inline;fill:#000000;stroke:#000000;stroke-opacity:0" />
    <text
       xml:space="preserve"
       id="text13"
       style="font-size:173.333px;line-height:0;font-family:jw-icons-external;-inkscape-font-specification:jw-icons-external;text-align:center;letter-spacing:5.8px;word-spacing:0px;writing-mode:lr-tb;direction:ltr;white-space:pre;shape-inside:url(#rect13);display:inline;fill:#000000;stroke:#000000;stroke-opacity:0" />
    <text
       xml:space="preserve"
       id="text14"
       style="font-size:16px;line-height:0;font-family:jw-icons-external;-inkscape-font-specification:jw-icons-external;text-align:start;letter-spacing:5.8px;word-spacing:0px;writing-mode:lr-tb;direction:ltr;white-space:pre;shape-inside:url(#rect15);display:inline;fill:#000000;stroke:#000000;stroke-opacity:0" />
    <text
       xml:space="preserve"
       id="text15"
       style="font-size:16px;line-height:0;font-family:jw-icons-external;-inkscape-font-specification:jw-icons-external;text-align:start;letter-spacing:5.8px;word-spacing:0px;writing-mode:lr-tb;direction:ltr;white-space:pre;shape-inside:url(#rect16);display:inline;fill:#000000;stroke:#000000;stroke-opacity:0" />
    <text
       xml:space="preserve"
       id="text16"
       style="font-size:16px;line-height:1.5;font-family:jw-icons-external;-inkscape-font-specification:jw-icons-external;text-align:start;letter-spacing:5.8px;word-spacing:0px;writing-mode:lr-tb;direction:ltr;white-space:pre;shape-inside:url(#rect17);display:inline;fill:#000000;stroke:#000000;stroke-opacity:0" />
    <text
       xml:space="preserve"
       id="text17"
       style="font-size:16px;line-height:1.5;font-family:jw-icons-external;-inkscape-font-specification:jw-icons-external;text-align:start;letter-spacing:5.8px;word-spacing:0px;writing-mode:lr-tb;direction:ltr;white-space:pre;shape-inside:url(#rect18);display:inline;fill:#000000;stroke:#000000;stroke-opacity:0" />
    <text
       xml:space="preserve"
       style="font-size:533.333px;line-height:1.2;font-family:jw-icons-external;-inkscape-font-specification:jw-icons-external;text-align:start;letter-spacing:5.8px;word-spacing:0px;writing-mode:lr-tb;direction:ltr;text-anchor:start;fill:#000000;stroke:#000000;stroke-opacity:0"
       x="143.7877"
       y="307.89322"
       id="text20"><tspan
         sodipodi:role="line"
         id="tspan19"></tspan></text>
    <path
       d="m 101.56454,401.87418 q 7.8125,0.97656 13.67187,6.83593 5.85938,5.85938 6.83594,13.67188 l 10.74219,72.26562 q 0,0.97657 0,0.97657 0,4.88281 -2.92969,7.8125 -2.92969,2.92968 -7.8125,2.92968 -8.78906,0 -9.76562,-8.78906 l -10.74219,-73.24219 q 0,-0.97656 -0.97656,-1.95312 l -50.781253,0.97656 q -4.882812,0 -7.8125,-2.92969 -2.929687,-3.90625 -2.929687,-7.8125 0,-0.97656 0,-2.92968 L 81.056727,243.67105 q 1.953125,-7.8125 9.765625,-7.8125 4.882813,0 7.8125,2.92969 2.929688,2.92969 2.929688,6.83594 0,1.95312 0,2.92968 l -39.0625,153.32032 z m 83.00781,-158.20313 41.99219,166.01563 q 0,1.95312 0,2.92968 0,3.90625 -2.92969,7.8125 -2.92969,2.92969 -7.8125,2.92969 h -51.75781 q 0.97656,0 0,0.97656 l -10.74219,73.24219 q -0.97656,8.78906 -9.76562,8.78906 -4.88282,0 -7.8125,-2.92968 -2.92969,-2.92969 -2.92969,-7.8125 0,0 0,-0.97657 l 10.74219,-73.24218 q 0,-3.90625 1.95312,-6.83594 1.95313,-3.90625 4.88281,-5.85938 2.92969,-2.92968 5.85938,-3.90625 3.90625,-1.95312 7.8125,-2.92968 h 39.0625 l -39.0625,-153.32032 q 0,-0.97656 0,-2.92968 0,-3.90625 2.92969,-6.83594 2.92968,-2.92969 7.8125,-2.92969 7.8125,0 9.76562,7.8125 z M 322.26766,104.99918 341.79891,75.702301 V 50.311676 q -13.67187,-23.4375 -31.25,-23.4375 h -0.97656 q -17.57812,0 -31.25,23.4375 v 25.390625 l 19.53125,29.296879 q 1.95313,1.95312 1.95313,5.85937 v 20.50781 q 0,6.83594 -5.85938,9.76563 l -56.64062,28.32031 v 136.71875 l 19.53125,39.0625 q 0.97656,1.95313 0.97656,4.88281 v 145.50782 q 0,4.88281 -2.92969,7.8125 -2.92969,2.92968 -7.8125,2.92968 -3.90625,0 -6.83594,-2.92968 -2.92968,-2.92969 -2.92968,-7.8125 V 353.04605 l -12.69532,-24.41406 q -5.85937,-0.97656 -7.8125,-6.83594 L 175.78329,188.98355 145.50985,153.8273 q -4.88281,-5.85937 -4.88281,-12.69531 v -0.97656 -17.57813 q 0,-7.8125 5.85937,-12.69531 5.85938,-5.85938 13.67188,-6.83594 0,-0.97656 0,-1.95312 0,-25.390629 -14.64844,-46.875004 -5.85937,-5.859375 -13.67187,-5.859375 -0.97657,0 -0.97657,0 l -1.95312,-10.742187 v 10.742187 q -0.97656,0 -0.97656,0 -8.78907,0 -14.64844,5.859375 -13.671875,21.484375 -13.671875,46.875004 0,0.97656 0,1.95312 7.812495,0.97656 12.695315,6.83594 5.85937,4.88281 5.85937,12.69531 v 17.57813 q 0,8.78906 -4.88281,13.67187 l -33.203125,35.15625 -31.25,131.83594 q -1.953125,8.78906 -9.765625,8.78906 -3.90625,0 -7.8125,-2.92969 -2.929688,-3.90625 -2.929688,-7.8125 0,-0.97656 0.976563,-1.95312 l 31.25,-135.74219 q 0,-2.92969 1.953125,-4.88281 L 97.65829,139.17886 V 122.5773 l -8.789063,1.95313 q -3.90625,0 -7.8125,-2.92969 -2.929687,-2.92969 -2.929687,-7.8125 0,-3.90625 0,-7.8125 0,-36.132814 20.507812,-65.429689 Q 110.3536,26.874176 127.93173,26.874176 h 2.92968 0.97657 q 17.57812,0 29.29687,13.671875 20.50781,29.296875 20.50781,64.453129 0,4.88281 -0.97656,8.78906 0,4.88281 -2.92969,7.8125 -2.92968,2.92969 -6.83593,2.92969 h -10.74219 l 1.95312,15.625 30.27344,36.13281 q 1.95313,1.95312 2.92969,3.90625 l 20.50781,69.33594 v -86.91407 q 0,-6.83593 5.85938,-9.76562 l 56.64062,-28.32031 V 113.78824 L 259.76766,85.467926 q -1.95312,-2.929687 -1.95312,-5.859375 v -31.25 q 0,-2.929687 0.97656,-4.882812 5.85938,-13.671875 20.50781,-24.414063 15.625,-10.7421875 30.27344,-12.6953125 h 0.97656 q 14.64844,1.953125 29.29688,12.6953125 14.64844,10.742188 21.48437,24.414063 0.97657,1.953125 0.97657,4.882812 v 31.25 q 0,2.929688 -1.95313,5.859375 l -19.53125,28.320314 v 10.74219 l 36.13281,18.55468 q 5.85938,2.92969 5.85938,8.78907 0,4.88281 -2.92969,7.8125 -2.92969,2.92968 -7.8125,2.92968 -1.95312,0 -3.90625,-0.97656 l -41.99219,-20.50781 q -5.85937,-2.92969 -5.85937,-9.76563 v -20.50781 q 0,-3.90625 1.95312,-5.85937 z m 66.40625,170.89843 -28.32031,18.55469 -19.53125,79.10156 q -1.95312,7.8125 -9.76562,7.8125 -4.88282,0 -7.8125,-2.92968 -2.92969,-2.92969 -2.92969,-7.8125 0,-0.97657 0,-1.95313 l 21.48437,-83.98437 q 0.97657,-3.90625 3.90625,-5.85938 l 31.25,-20.50781 q 2.92969,-1.95313 5.85938,-1.95313 3.90625,0 6.83594,2.92969 3.90625,2.92969 3.90625,7.8125 0,4.88281 -4.88282,8.78906 z m 97.65625,92.77344 q 0.97657,0.97656 0.97657,1.95313 0,4.88281 -3.90625,7.8125 -2.92969,2.92968 -6.83594,2.92968 -7.8125,0 -9.76563,-7.8125 L 446.2911,294.4523 418.94735,275.89761 q -4.88281,-3.90625 -4.88281,-8.78906 0,-4.88281 2.92969,-7.8125 2.92968,-2.92969 7.8125,-2.92969 2.92968,0 5.85937,1.95313 l 31.25,20.50781 q 2.92969,1.95313 3.90625,5.85938 z m -114.25781,54.6875 h 0.97656 q 7.8125,0 13.67188,5.85938 6.83594,5.85937 6.83594,14.64843 l 9.76562,49.80469 q 0,0.97656 0,1.95313 0,8.78906 -7.8125,10.74218 -0.97656,0 -1.95312,0 -8.78907,0 -10.74219,-8.78906 l -10.74219,-54.6875 -20.50781,0.97656 q -3.90625,0 -7.8125,-2.92968 -2.92969,-2.92969 -2.92969,-7.8125 0,-0.97657 0.97656,-1.95313 l 20.50782,-103.51562 q 1.95312,-8.78907 9.76562,-8.78907 4.88281,0 7.8125,2.92969 2.92969,2.92969 2.92969,7.8125 0,0.97656 0,1.95313 l -18.55469,91.79687 z m 60.54688,-104.49219 q 0.97656,0 1.95312,0 8.78906,0 10.74219,8.78907 l 20.50781,103.51562 q 0,0.97656 0,1.95313 0,4.88281 -2.92969,7.8125 -2.92968,2.92968 -6.83593,2.92968 h -21.48438 l -10.74219,53.71094 q -0.97656,8.78906 -9.76562,8.78906 -0.97656,0 -1.95313,0 -8.78906,-1.95312 -8.78906,-10.74218 0,-0.97657 0.97656,-1.95313 l 9.76563,-51.75781 q 0.97656,-7.8125 5.85937,-12.69531 5.85938,-5.85938 13.67188,-5.85938 0.97656,0 0.97656,0 h 8.78906 l -18.55468,-91.79687 q 0,-0.97657 0,-1.95313 0,-8.78906 7.8125,-10.74219 z m 15.625,-64.45312 -17.57813,-18.55469 q -11.71875,9.76563 -27.34375,9.76563 -14.64844,0 -26.36719,-9.76563 l -17.57812,18.55469 q -2.92969,2.92969 -7.8125,2.92969 -3.90625,0 -7.8125,-2.92969 -2.92969,-2.92969 -2.92969,-6.83594 0,-4.88281 2.92969,-7.8125 l 20.50781,-21.48437 q -1.95312,-6.83594 -1.95312,-13.67188 0,-11.71875 4.88281,-21.48437 5.85937,-9.76563 15.625,-14.64844 9.76562,-5.85938 20.50781,-5.85938 17.57813,0 29.29688,12.69532 12.69531,11.71875 12.69531,29.29687 0,6.83594 -2.92969,13.67188 l 20.50781,21.48437 q 2.92969,2.92969 2.92969,7.8125 0,3.90625 -2.92969,6.83594 -2.92968,2.92969 -7.8125,2.92969 -3.90625,0 -6.83593,-2.92969 z m -59.57032,-35.15625 q 6.83594,5.85937 14.64844,5.85937 8.78906,0 14.64844,-5.85937 6.83594,-6.83594 6.83594,-14.64844 0,-8.78906 -6.83594,-14.64844 -5.85938,-6.83593 -14.64844,-6.83593 -7.8125,0 -14.64844,6.83593 -5.85937,5.85938 -5.85937,14.64844 0,7.8125 5.85937,14.64844 z"
       id="text23"
       style="font-size:500px;line-height:1.2;font-family:jw-icons-external;-inkscape-font-specification:jw-icons-external;letter-spacing:5.8px;word-spacing:0px;stroke:#000000;stroke-opacity:0"
       aria-label="" />
  </g>
</svg>
