<?xml version="1.0" encoding="UTF-8" standalone="no"?>
<!-- Created with Inkscape (http://www.inkscape.org/) -->

<svg
   width="512"
   height="512"
   viewBox="0 0 512 512"
   version="1.1"
   id="svg1"
   inkscape:version="1.4 (e7c3feb1, 2024-10-09)"
   sodipodi:docname="settings.svg"
   xmlns:inkscape="http://www.inkscape.org/namespaces/inkscape"
   xmlns:sodipodi="http://sodipodi.sourceforge.net/DTD/sodipodi-0.dtd"
   xmlns="http://www.w3.org/2000/svg"
   xmlns:svg="http://www.w3.org/2000/svg">
  <sodipodi:namedview
     id="namedview1"
     pagecolor="#ffffff"
     bordercolor="#000000"
     borderopacity="0.25"
     inkscape:showpageshadow="2"
     inkscape:pageopacity="0.0"
     inkscape:pagecheckerboard="0"
     inkscape:deskcolor="#d1d1d1"
     inkscape:document-units="mm"
     inkscape:zoom="0.63983222"
     inkscape:cx="246.15828"
     inkscape:cy="280.5423"
     inkscape:window-width="1440"
     inkscape:window-height="900"
     inkscape:window-x="0"
     inkscape:window-y="0"
     inkscape:window-maximized="0"
     inkscape:current-layer="layer1" />
  <defs
     id="defs1">
    <rect
       x="-565.05473"
       y="1313.1998"
       width="312.51631"
       height="186.24709"
       id="rect18" />
    <rect
       x="969.52799"
       y="405.43898"
       width="8849.1464"
       height="7562.3184"
       id="rect17" />
    <rect
       x="706.79119"
       y="232.00016"
       width="2654.5135"
       height="2012.4665"
       id="rect16" />
    <rect
       x="-604.24005"
       y="1404.9918"
       width="13.368143"
       height="28.0731"
       id="rect15" />
    <rect
       x="-6320.921"
       y="2061.5927"
       width="8032.4319"
       height="5173.4307"
       id="rect14" />
    <rect
       x="-5873.5943"
       y="1789.3069"
       width="8752.0445"
       height="8051.8809"
       id="rect13" />
    <rect
       x="-5562.4105"
       y="1361.4291"
       width="8401.9627"
       height="4920.5939"
       id="rect12" />
    <rect
       x="-957.89726"
       y="1529.5456"
       width="7647.7281"
       height="4279.6377"
       id="rect11" />
    <rect
       x="-99.109596"
       y="454.25232"
       width="887.85681"
       height="396.43839"
       id="rect3" />
    <rect
       x="53.684364"
       y="70.202637"
       width="1763.325"
       height="1788.1024"
       id="rect1" />
  </defs>
  <g
     inkscape:label="Layer 1"
     inkscape:groupmode="layer"
     id="layer1">
    <text
       xml:space="preserve"
       transform="scale(0.27093333)"
       id="text3"
       style="font-style:normal;font-variant:normal;font-weight:normal;font-stretch:normal;font-size:146.667px;line-height:0;font-family:jw-icons-external;-inkscape-font-specification:jw-icons-external;text-align:center;letter-spacing:5.8px;word-spacing:0px;writing-mode:lr-tb;direction:ltr;white-space:pre;shape-inside:url(#rect3);display:inline;fill:#000000;stroke-width:755.906" />
    <text
       xml:space="preserve"
       style="font-size:173.333px;line-height:0;font-family:jw-icons-external;-inkscape-font-specification:jw-icons-external;text-align:center;letter-spacing:5.8px;word-spacing:0px;writing-mode:lr-tb;direction:ltr;text-anchor:middle;fill:#000000;stroke:#000000;stroke-opacity:0"
       x="-622.14398"
       y="1067.8145"
       id="text7"><tspan
         sodipodi:role="line"
         id="tspan7"
         x="-622.14398"
         y="1067.8145"></tspan><tspan
         sodipodi:role="line"
         id="tspan8"
         x="-622.14398"
         y="1067.8145" /><tspan
         sodipodi:role="line"
         x="-622.14398"
         y="1067.8145"
         id="tspan9" /><tspan
         sodipodi:role="line"
         x="-622.14398"
         y="1067.8145"
         id="tspan10" /></text>
    <text
       xml:space="preserve"
       id="text11"
       style="font-size:173.333px;line-height:0;font-family:jw-icons-external;-inkscape-font-specification:jw-icons-external;text-align:center;letter-spacing:5.8px;word-spacing:0px;writing-mode:lr-tb;direction:ltr;white-space:pre;shape-inside:url(#rect11);display:inline;fill:#000000;stroke:#000000;stroke-opacity:0" />
    <text
       xml:space="preserve"
       id="text13"
       style="font-size:173.333px;line-height:0;font-family:jw-icons-external;-inkscape-font-specification:jw-icons-external;text-align:center;letter-spacing:5.8px;word-spacing:0px;writing-mode:lr-tb;direction:ltr;white-space:pre;shape-inside:url(#rect13);display:inline;fill:#000000;stroke:#000000;stroke-opacity:0" />
    <text
       xml:space="preserve"
       id="text14"
       style="font-size:16px;line-height:0;font-family:jw-icons-external;-inkscape-font-specification:jw-icons-external;text-align:start;letter-spacing:5.8px;word-spacing:0px;writing-mode:lr-tb;direction:ltr;white-space:pre;shape-inside:url(#rect15);display:inline;fill:#000000;stroke:#000000;stroke-opacity:0" />
    <text
       xml:space="preserve"
       id="text15"
       style="font-size:16px;line-height:0;font-family:jw-icons-external;-inkscape-font-specification:jw-icons-external;text-align:start;letter-spacing:5.8px;word-spacing:0px;writing-mode:lr-tb;direction:ltr;white-space:pre;shape-inside:url(#rect16);display:inline;fill:#000000;stroke:#000000;stroke-opacity:0" />
    <text
       xml:space="preserve"
       id="text16"
       style="font-size:16px;line-height:1.5;font-family:jw-icons-external;-inkscape-font-specification:jw-icons-external;text-align:start;letter-spacing:5.8px;word-spacing:0px;writing-mode:lr-tb;direction:ltr;white-space:pre;shape-inside:url(#rect17);display:inline;fill:#000000;stroke:#000000;stroke-opacity:0" />
    <text
       xml:space="preserve"
       id="text17"
       style="font-size:16px;line-height:1.5;font-family:jw-icons-external;-inkscape-font-specification:jw-icons-external;text-align:start;letter-spacing:5.8px;word-spacing:0px;writing-mode:lr-tb;direction:ltr;white-space:pre;shape-inside:url(#rect18);display:inline;fill:#000000;stroke:#000000;stroke-opacity:0" />
    <text
       xml:space="preserve"
       style="font-size:533.333px;line-height:1.2;font-family:jw-icons-external;-inkscape-font-specification:jw-icons-external;text-align:start;letter-spacing:5.8px;word-spacing:0px;writing-mode:lr-tb;direction:ltr;text-anchor:start;fill:#000000;stroke:#000000;stroke-opacity:0"
       x="143.7877"
       y="307.89322"
       id="text20"><tspan
         sodipodi:role="line"
         id="tspan19"></tspan></text>
    <path
       d="m 313.28248,316.52301 q -24.41406,24.41406 -58.59375,24.41406 -34.17969,0 -58.59375,-24.41406 -24.41406,-24.41406 -24.41406,-58.59375 0,-34.17969 24.41406,-58.59375 24.41406,-24.41406 58.59375,-24.41406 34.17969,0 58.59375,24.41406 24.41406,24.41406 24.41406,58.59375 0,34.17969 -24.41406,58.59375 z M 298.63404,213.98395 q -18.55469,-18.55469 -43.94531,-18.55469 -25.39063,0 -43.94531,18.55469 -18.55469,18.55469 -18.55469,43.94531 0,25.39063 18.55469,43.94531 18.55468,18.55469 43.94531,18.55469 25.39062,0 43.94531,-18.55469 18.55469,-18.55468 18.55469,-43.94531 0,-25.39062 -18.55469,-43.94531 z m 7.8125,273.4375 H 202.93092 q -4.88282,0 -7.8125,-3.90625 -2.92969,-2.92969 -2.92969,-6.83594 V 423.94489 Q 164.84498,413.2027 142.38404,394.64801 L 96.485604,421.0152 q -1.953125,1.95312 -4.882812,1.95312 -5.859375,0 -9.765625,-4.88281 L 30.079354,327.2652 q -0.976562,-1.95313 -0.976562,-4.88281 0,-5.85938 4.882812,-8.78907 l 45.898438,-27.34375 q -1.953125,-13.67187 -1.953125,-28.32031 0,-14.64844 1.953125,-28.32031 L 33.985604,202.2652 q -4.882812,-2.92969 -4.882812,-8.78906 0,-2.92969 0.976562,-4.88282 L 81.837167,97.77301 q 3.90625,-4.882812 9.765625,-4.882812 2.929687,0 4.882812,1.953125 l 45.898436,26.367187 q 22.46094,-18.55469 49.80469,-29.296875 V 39.17926 q 0,-3.90625 2.92969,-6.835937 2.92968,-3.90625 7.8125,-3.90625 h 103.51562 q 4.88281,0 7.8125,3.90625 2.92969,2.929687 2.92969,6.835937 v 52.734375 q 27.34375,10.742185 49.80469,29.296875 l 45.89843,-26.367187 q 1.95313,-1.953125 4.88282,-1.953125 6.83593,0 9.76562,4.882812 l 51.75781,90.82031 q 0.97657,1.95313 0.97657,4.88282 0,5.85937 -4.88282,8.78906 l -45.89843,27.34375 q 1.95312,13.67187 1.95312,28.32031 0,14.64844 -1.95312,28.32031 l 45.89843,27.34375 q 4.88282,2.92969 4.88282,8.78907 0,2.92968 -0.97657,4.88281 l -51.75781,90.82031 q -2.92969,4.88281 -9.76562,4.88281 -2.92969,0 -4.88282,-1.95312 l -45.89843,-26.36719 q -22.46094,18.55469 -49.80469,29.29688 v 52.73437 q 0,2.92969 -1.95313,4.88281 -0.97656,2.92969 -3.90625,3.90625 -1.95312,1.95313 -4.88281,1.95313 z m -93.75,-21.48438 h 83.98438 v -49.80468 q 0,-7.8125 6.83593,-9.76563 31.25,-10.74219 54.6875,-32.22656 3.90625,-2.92969 7.8125,-2.92969 1.95313,0 4.88282,1.95313 l 42.96875,25.39062 41.99218,-72.26562 -42.96875,-25.39063 q -5.85937,-2.92969 -5.85937,-8.78906 0,-0.97656 0.97656,-1.95313 2.92969,-15.625 2.92969,-32.22656 0,-16.60156 -2.92969,-32.22656 -0.97656,-0.97656 -0.97656,-1.95313 0,-5.85937 5.85937,-8.78906 l 42.96875,-25.39062 -41.99218,-72.26563 -42.96875,25.39063 q -2.92969,1.95312 -4.88282,1.95312 -4.88281,0 -7.8125,-2.92969 -23.4375,-21.48437 -54.6875,-32.22656 -6.83593,-1.95312 -6.83593,-9.765625 V 49.921448 h -83.98438 v 49.804687 q 0,7.812505 -6.83594,9.765625 -31.25,10.74219 -54.6875,32.22656 -2.92968,2.92969 -7.8125,2.92969 -1.95312,0 -4.88281,-1.95312 l -42.968748,-25.39063 -41.992188,72.26563 42.96875,25.39062 q 5.859376,2.92969 5.859376,8.78906 0,0.97657 -0.97656,1.95313 -2.929691,15.625 -2.929691,32.22656 0,16.60156 2.929691,32.22656 0.97656,0.97657 0.97656,1.95313 0,5.85937 -5.859376,8.78906 l -42.96875,25.39063 41.992188,72.26562 42.968748,-25.39062 q 2.92969,-1.95313 4.88281,-1.95313 4.88282,0 7.8125,2.92969 23.4375,21.48437 54.6875,32.22656 6.83594,1.95313 6.83594,9.76563 z"
       id="text23"
       style="font-size:500px;line-height:1.2;font-family:jw-icons-external;-inkscape-font-specification:jw-icons-external;letter-spacing:5.8px;word-spacing:0px;stroke:#000000;stroke-opacity:0"
       aria-label="" />
  </g>
</svg>
