<?xml version="1.0" encoding="UTF-8" standalone="no"?>
<!-- Created with Inkscape (http://www.inkscape.org/) -->

<svg
   width="512"
   height="512"
   viewBox="0 0 512 512"
   version="1.1"
   id="svg1"
   inkscape:version="1.4 (e7c3feb1, 2024-10-09)"
   sodipodi:docname="sheep.svg"
   xmlns:inkscape="http://www.inkscape.org/namespaces/inkscape"
   xmlns:sodipodi="http://sodipodi.sourceforge.net/DTD/sodipodi-0.dtd"
   xmlns="http://www.w3.org/2000/svg"
   xmlns:svg="http://www.w3.org/2000/svg">
  <sodipodi:namedview
     id="namedview1"
     pagecolor="#ffffff"
     bordercolor="#000000"
     borderopacity="0.25"
     inkscape:showpageshadow="2"
     inkscape:pageopacity="0.0"
     inkscape:pagecheckerboard="0"
     inkscape:deskcolor="#d1d1d1"
     inkscape:document-units="mm"
     inkscape:zoom="0.8382894"
     inkscape:cx="255.87822"
     inkscape:cy="319.10221"
     inkscape:window-width="1440"
     inkscape:window-height="900"
     inkscape:window-x="0"
     inkscape:window-y="0"
     inkscape:window-maximized="0"
     inkscape:current-layer="layer1" />
  <defs
     id="defs1">
    <rect
       x="-565.05473"
       y="1313.1998"
       width="312.51631"
       height="186.24709"
       id="rect18" />
    <rect
       x="969.52799"
       y="405.43898"
       width="8849.1464"
       height="7562.3184"
       id="rect17" />
    <rect
       x="706.79119"
       y="232.00016"
       width="2654.5135"
       height="2012.4665"
       id="rect16" />
    <rect
       x="-604.24005"
       y="1404.9918"
       width="13.368143"
       height="28.0731"
       id="rect15" />
    <rect
       x="-6320.921"
       y="2061.5927"
       width="8032.4319"
       height="5173.4307"
       id="rect14" />
    <rect
       x="-5873.5943"
       y="1789.3069"
       width="8752.0445"
       height="8051.8809"
       id="rect13" />
    <rect
       x="-5562.4105"
       y="1361.4291"
       width="8401.9627"
       height="4920.5939"
       id="rect12" />
    <rect
       x="-957.89726"
       y="1529.5456"
       width="7647.7281"
       height="4279.6377"
       id="rect11" />
    <rect
       x="-99.109596"
       y="454.25232"
       width="887.85681"
       height="396.43839"
       id="rect3" />
    <rect
       x="53.684364"
       y="70.202637"
       width="1763.325"
       height="1788.1024"
       id="rect1" />
  </defs>
  <g
     inkscape:label="Layer 1"
     inkscape:groupmode="layer"
     id="layer1">
    <text
       xml:space="preserve"
       transform="scale(0.27093333)"
       id="text3"
       style="font-style:normal;font-variant:normal;font-weight:normal;font-stretch:normal;font-size:146.667px;line-height:0;font-family:jw-icons-external;-inkscape-font-specification:jw-icons-external;text-align:center;letter-spacing:5.8px;word-spacing:0px;writing-mode:lr-tb;direction:ltr;white-space:pre;shape-inside:url(#rect3);display:inline;fill:#000000;stroke-width:755.906" />
    <text
       xml:space="preserve"
       style="font-size:173.333px;line-height:0;font-family:jw-icons-external;-inkscape-font-specification:jw-icons-external;text-align:center;letter-spacing:5.8px;word-spacing:0px;writing-mode:lr-tb;direction:ltr;text-anchor:middle;fill:#000000;stroke:#000000;stroke-opacity:0"
       x="-622.14398"
       y="1067.8145"
       id="text7"><tspan
         sodipodi:role="line"
         id="tspan7"
         x="-622.14398"
         y="1067.8145"></tspan><tspan
         sodipodi:role="line"
         id="tspan8"
         x="-622.14398"
         y="1067.8145" /><tspan
         sodipodi:role="line"
         x="-622.14398"
         y="1067.8145"
         id="tspan9" /><tspan
         sodipodi:role="line"
         x="-622.14398"
         y="1067.8145"
         id="tspan10" /></text>
    <text
       xml:space="preserve"
       id="text11"
       style="font-size:173.333px;line-height:0;font-family:jw-icons-external;-inkscape-font-specification:jw-icons-external;text-align:center;letter-spacing:5.8px;word-spacing:0px;writing-mode:lr-tb;direction:ltr;white-space:pre;shape-inside:url(#rect11);display:inline;fill:#000000;stroke:#000000;stroke-opacity:0" />
    <text
       xml:space="preserve"
       id="text13"
       style="font-size:173.333px;line-height:0;font-family:jw-icons-external;-inkscape-font-specification:jw-icons-external;text-align:center;letter-spacing:5.8px;word-spacing:0px;writing-mode:lr-tb;direction:ltr;white-space:pre;shape-inside:url(#rect13);display:inline;fill:#000000;stroke:#000000;stroke-opacity:0" />
    <text
       xml:space="preserve"
       id="text14"
       style="font-size:16px;line-height:0;font-family:jw-icons-external;-inkscape-font-specification:jw-icons-external;text-align:start;letter-spacing:5.8px;word-spacing:0px;writing-mode:lr-tb;direction:ltr;white-space:pre;shape-inside:url(#rect15);display:inline;fill:#000000;stroke:#000000;stroke-opacity:0" />
    <text
       xml:space="preserve"
       id="text15"
       style="font-size:16px;line-height:0;font-family:jw-icons-external;-inkscape-font-specification:jw-icons-external;text-align:start;letter-spacing:5.8px;word-spacing:0px;writing-mode:lr-tb;direction:ltr;white-space:pre;shape-inside:url(#rect16);display:inline;fill:#000000;stroke:#000000;stroke-opacity:0" />
    <text
       xml:space="preserve"
       id="text16"
       style="font-size:16px;line-height:1.5;font-family:jw-icons-external;-inkscape-font-specification:jw-icons-external;text-align:start;letter-spacing:5.8px;word-spacing:0px;writing-mode:lr-tb;direction:ltr;white-space:pre;shape-inside:url(#rect17);display:inline;fill:#000000;stroke:#000000;stroke-opacity:0" />
    <text
       xml:space="preserve"
       id="text17"
       style="font-size:16px;line-height:1.5;font-family:jw-icons-external;-inkscape-font-specification:jw-icons-external;text-align:start;letter-spacing:5.8px;word-spacing:0px;writing-mode:lr-tb;direction:ltr;white-space:pre;shape-inside:url(#rect18);display:inline;fill:#000000;stroke:#000000;stroke-opacity:0" />
    <text
       xml:space="preserve"
       style="font-size:533.333px;line-height:1.2;font-family:jw-icons-external;-inkscape-font-specification:jw-icons-external;text-align:start;letter-spacing:5.8px;word-spacing:0px;writing-mode:lr-tb;direction:ltr;text-anchor:start;fill:#000000;stroke:#000000;stroke-opacity:0"
       x="143.7877"
       y="307.89322"
       id="text20"><tspan
         sodipodi:role="line"
         id="tspan19"></tspan></text>
    <path
       d="m 501.29806,117.37863 q 5.85937,6.83594 5.85937,14.64844 0,0.97656 0,1.95312 -1.95312,16.60157 -14.64843,28.32032 -12.69532,11.71875 -29.29688,11.71875 H 445.634 l -54.6875,113.28125 q -0.97657,2.92968 -2.92969,6.83593 l -1.95313,1.95313 -0.97656,1.95312 -2.92969,4.88282 q -1.95312,4.88281 -5.85937,8.78906 -2.92969,3.90625 -6.83594,6.83594 -4.88281,4.88281 -11.71875,8.78906 l 12.69531,125 q 0,0 0,0.97656 0,3.90625 -2.92968,6.83594 -2.92969,3.90625 -7.8125,3.90625 h -34.17969 q -7.8125,0 -9.76563,-7.8125 l -21.48437,-88.86719 -23.4375,88.86719 q -1.95313,7.8125 -9.76563,7.8125 h -31.25 q -4.88281,0 -7.8125,-2.92969 -2.92968,-2.92969 -2.92968,-7.8125 0,0 0,-0.97656 l 11.71875,-114.25781 h -90.82032 l -7.8125,3.90625 41.99219,106.44531 q 0.97656,2.92969 0.97656,4.88281 0,2.92969 -0.97656,4.88281 -2.92969,4.88282 -8.78906,4.88282 h -35.15625 q -6.83594,0 -9.76563,-5.85938 l -43.94531,-85.9375 -2.929687,0.97656 -14.648438,82.03125 q -0.976562,8.78907 -9.765625,8.78907 h -31.25 q -4.882812,0 -7.8125,-2.92969 -2.9296874,-2.92969 -2.9296874,-7.8125 v -125 q 0,-4.88281 4.8828124,-8.78906 l 57.617188,-35.15625 v -29.29688 l -25.390625,18.55469 q -1.953125,0.97656 -4.882813,0.97656 -2.929687,0 -5.859375,-0.97656 -5.859375,-2.92969 -5.859375,-9.76563 v -62.5 q 0,-19.53125 8.789063,-37.10937 l 1.953125,-3.90625 q 6.835937,-12.69531 17.578125,-22.46094 l 2.929687,-2.92969 6.835938,-4.88281 q 21.484375,-14.64844 47.851567,-14.64844 h 185.54687 l 73.24219,-42.968746 q 19.53125,-13.671875 43.94531,-14.648437 0.97656,0 1.95313,0 10.74218,0 23.4375,5.859375 12.69531,4.882812 19.53125,12.695312 z M 135.08712,442.57394 H 148.759 l -34.17969,-90.82031 -20.507815,9.76563 z m 117.1875,0 27.34375,-104.49218 h -27.34375 l -10.74219,104.49218 z m 209.96094,-289.0625 q 8.78906,-0.97656 15.625,-6.83593 6.83594,-6.83594 6.83594,-15.625 L 444.65743,89.058319 q -10.74218,-11.71875 -26.36718,-11.71875 -18.55469,0.976563 -34.17969,10.742188 l -77.14844,45.898433 q -2.92969,0.97657 -4.88281,0.97657 h -0.97656 -187.5 q -19.531255,0 -36.132817,11.71875 l -4.882813,2.92968 -2.929687,1.95313 q -7.8125,8.78906 -12.695313,19.53125 l -1.953125,2.92969 q -5.859375,13.67187 -5.859375,28.32031 v 41.99219 l 24.414063,-18.55469 q 2.929687,-1.95313 5.859375,-1.95313 2.929687,0 5.859375,1.95313 4.882812,1.95312 4.882812,8.78906 v 53.71094 q 0,6.83594 -5.859375,9.76562 l -56.640625,35.15625 v 109.375 h 11.71875 L 53.05587,363.47238 q 0.976563,-4.88281 5.859375,-7.8125 l 53.710935,-25.39062 q 0.97657,-1.95313 2.92969,-2.92969 h 1.95313 l 16.60156,-8.78906 q 1.95312,-0.97657 4.88281,-0.97657 h 157.22656 q 7.8125,0 9.76563,7.8125 l 27.34375,116.21094 h 14.64844 L 336.259,320.50363 q 0,-0.97656 0,-0.97656 0,-5.85938 5.85937,-8.78906 2.92969,-1.95313 4.88281,-2.92969 3.90625,-2.92969 7.8125,-6.83594 2.92969,-1.95312 4.88282,-3.90625 l 4.88281,-5.85937 3.90625,-5.85938 q 1.95312,-2.92969 3.90625,-6.83594 L 430.009,159.37082 q 2.92968,-5.85938 8.78906,-5.85938 z m -62.5,-33.20312 q -4.88281,6.83594 -4.88281,14.64844 0,10.74218 7.8125,18.55468 2.92968,2.92969 2.92968,7.8125 0,3.90625 -2.92968,6.83594 -2.92969,3.90625 -7.8125,3.90625 -3.90625,-0.97656 -6.83594,-2.92969 -14.64844,-13.67187 -14.64844,-33.20312 0,-16.60156 10.74219,-29.29688 2.92969,-2.92968 6.83594,-2.92968 4.88281,0 7.8125,2.92968 2.92968,2.92969 2.92968,6.83594 0,3.90625 -1.95312,6.83594 z"
       id="text23"
       style="font-size:500px;line-height:1.2;font-family:jw-icons-external;-inkscape-font-specification:jw-icons-external;letter-spacing:5.8px;word-spacing:0px;stroke:#000000;stroke-opacity:0"
       aria-label="" />
  </g>
</svg>
