<?xml version="1.0" encoding="UTF-8" standalone="no"?>
<!-- Created with Inkscape (http://www.inkscape.org/) -->

<svg
   width="512"
   height="512"
   viewBox="0 0 512 512"
   version="1.1"
   id="svg1"
   inkscape:version="1.4 (e7c3feb1, 2024-10-09)"
   sodipodi:docname="shepherd.svg"
   xmlns:inkscape="http://www.inkscape.org/namespaces/inkscape"
   xmlns:sodipodi="http://sodipodi.sourceforge.net/DTD/sodipodi-0.dtd"
   xmlns="http://www.w3.org/2000/svg"
   xmlns:svg="http://www.w3.org/2000/svg">
  <sodipodi:namedview
     id="namedview1"
     pagecolor="#ffffff"
     bordercolor="#000000"
     borderopacity="0.25"
     inkscape:showpageshadow="2"
     inkscape:pageopacity="0.0"
     inkscape:pagecheckerboard="0"
     inkscape:deskcolor="#d1d1d1"
     inkscape:document-units="mm"
     inkscape:zoom="0.45394329"
     inkscape:cx="42.956908"
     inkscape:cy="296.29252"
     inkscape:window-width="1440"
     inkscape:window-height="872"
     inkscape:window-x="0"
     inkscape:window-y="28"
     inkscape:window-maximized="0"
     inkscape:current-layer="layer1" />
  <defs
     id="defs1">
    <rect
       x="-565.05473"
       y="1313.1998"
       width="312.51631"
       height="186.24709"
       id="rect18" />
    <rect
       x="969.52799"
       y="405.43898"
       width="8849.1464"
       height="7562.3184"
       id="rect17" />
    <rect
       x="706.79119"
       y="232.00016"
       width="2654.5135"
       height="2012.4665"
       id="rect16" />
    <rect
       x="-604.24005"
       y="1404.9918"
       width="13.368143"
       height="28.0731"
       id="rect15" />
    <rect
       x="-6320.921"
       y="2061.5927"
       width="8032.4319"
       height="5173.4307"
       id="rect14" />
    <rect
       x="-5873.5943"
       y="1789.3069"
       width="8752.0445"
       height="8051.8809"
       id="rect13" />
    <rect
       x="-5562.4105"
       y="1361.4291"
       width="8401.9627"
       height="4920.5939"
       id="rect12" />
    <rect
       x="-957.89726"
       y="1529.5456"
       width="7647.7281"
       height="4279.6377"
       id="rect11" />
    <rect
       x="-99.109596"
       y="454.25232"
       width="887.85681"
       height="396.43839"
       id="rect3" />
    <rect
       x="53.684364"
       y="70.202637"
       width="1763.325"
       height="1788.1024"
       id="rect1" />
  </defs>
  <g
     inkscape:label="Layer 1"
     inkscape:groupmode="layer"
     id="layer1">
    <text
       xml:space="preserve"
       transform="scale(0.27093333)"
       id="text3"
       style="font-style:normal;font-variant:normal;font-weight:normal;font-stretch:normal;font-size:146.667px;line-height:0;font-family:jw-icons-external;-inkscape-font-specification:jw-icons-external;text-align:center;letter-spacing:5.8px;word-spacing:0px;writing-mode:lr-tb;direction:ltr;white-space:pre;shape-inside:url(#rect3);display:inline;fill:#000000;fill-opacity:1;stroke-width:755.906" />
    <text
       xml:space="preserve"
       style="font-size:173.333px;line-height:0;font-family:jw-icons-external;-inkscape-font-specification:jw-icons-external;text-align:center;letter-spacing:5.8px;word-spacing:0px;writing-mode:lr-tb;direction:ltr;text-anchor:middle;fill:#000000;stroke:#000000;stroke-opacity:0;fill-opacity:1"
       x="-622.14398"
       y="1067.8145"
       id="text7"><tspan
         sodipodi:role="line"
         id="tspan7"
         x="-622.14398"
         y="1067.8145" /><tspan
         sodipodi:role="line"
         id="tspan8"
         x="-622.14398"
         y="1067.8145" /><tspan
         sodipodi:role="line"
         x="-622.14398"
         y="1067.8145"
         id="tspan9" /><tspan
         sodipodi:role="line"
         x="-622.14398"
         y="1067.8145"
         id="tspan10" /></text>
    <text
       xml:space="preserve"
       id="text11"
       style="font-size:173.333px;line-height:0;font-family:jw-icons-external;-inkscape-font-specification:jw-icons-external;text-align:center;letter-spacing:5.8px;word-spacing:0px;writing-mode:lr-tb;direction:ltr;white-space:pre;shape-inside:url(#rect11);display:inline;fill:#000000;fill-opacity:1;stroke:#000000;stroke-opacity:0" />
    <text
       xml:space="preserve"
       id="text13"
       style="font-size:173.333px;line-height:0;font-family:jw-icons-external;-inkscape-font-specification:jw-icons-external;text-align:center;letter-spacing:5.8px;word-spacing:0px;writing-mode:lr-tb;direction:ltr;white-space:pre;shape-inside:url(#rect13);display:inline;fill:#000000;fill-opacity:1;stroke:#000000;stroke-opacity:0" />
    <text
       xml:space="preserve"
       id="text14"
       style="font-size:16px;line-height:0;font-family:jw-icons-external;-inkscape-font-specification:jw-icons-external;text-align:start;letter-spacing:5.8px;word-spacing:0px;writing-mode:lr-tb;direction:ltr;white-space:pre;shape-inside:url(#rect15);display:inline;fill:#000000;fill-opacity:1;stroke:#000000;stroke-opacity:0" />
    <text
       xml:space="preserve"
       id="text15"
       style="font-size:16px;line-height:0;font-family:jw-icons-external;-inkscape-font-specification:jw-icons-external;text-align:start;letter-spacing:5.8px;word-spacing:0px;writing-mode:lr-tb;direction:ltr;white-space:pre;shape-inside:url(#rect16);display:inline;fill:#000000;fill-opacity:1;stroke:#000000;stroke-opacity:0" />
    <text
       xml:space="preserve"
       id="text16"
       style="font-size:16px;line-height:1.5;font-family:jw-icons-external;-inkscape-font-specification:jw-icons-external;text-align:start;letter-spacing:5.8px;word-spacing:0px;writing-mode:lr-tb;direction:ltr;white-space:pre;shape-inside:url(#rect17);display:inline;fill:#000000;fill-opacity:1;stroke:#000000;stroke-opacity:0" />
    <text
       xml:space="preserve"
       id="text17"
       style="font-size:16px;line-height:1.5;font-family:jw-icons-external;-inkscape-font-specification:jw-icons-external;text-align:start;letter-spacing:5.8px;word-spacing:0px;writing-mode:lr-tb;direction:ltr;white-space:pre;shape-inside:url(#rect18);display:inline;fill:#000000;fill-opacity:1;stroke:#000000;stroke-opacity:0" />
    <text
       xml:space="preserve"
       style="font-size:533.333px;line-height:1.2;font-family:jw-icons-external;-inkscape-font-specification:jw-icons-external;text-align:start;letter-spacing:5.8px;word-spacing:0px;writing-mode:lr-tb;direction:ltr;text-anchor:start;fill:#000000;stroke:#000000;stroke-opacity:0;fill-opacity:1"
       x="143.7877"
       y="307.89322"
       id="text20"><tspan
         sodipodi:role="line"
         id="tspan19" /></text>
    <text
       xml:space="preserve"
       style="font-size:500px;line-height:73.9;font-family:jw-icons-external;-inkscape-font-specification:jw-icons-external;text-align:start;letter-spacing:-10.72px;word-spacing:0px;writing-mode:lr-tb;direction:ltr;text-anchor:start;fill:#000000;fill-opacity:1;stroke:#000000;stroke-opacity:0"
       x="63.884632"
       y="438.38074"
       id="text1"><tspan
         sodipodi:role="line"
         id="tspan1"></tspan></text>
    <path
       d="m 418.71813,277.27054 q 5.85937,2.92969 5.85937,9.76562 0,3.90625 -3.90625,6.83594 -2.92968,2.92969 -6.83593,2.92969 -2.92969,0 -4.88282,-0.97656 l -78.125,-40.03907 V 489.1846 q 0,3.90625 -3.90625,6.83594 -2.92968,2.92969 -6.83593,2.92969 -3.90625,0 -7.8125,-2.92969 -2.92969,-2.92969 -2.92969,-6.83594 v -21.48437 h -125 v 21.48437 q 0,3.90625 -2.92969,6.83594 -2.92969,2.92969 -7.8125,2.92969 -3.90625,0 -6.83594,-2.92969 -2.92968,-2.92969 -2.92968,-6.83594 V 255.78616 l -104.492191,52.73438 -31.25,181.64062 q -0.976562,8.78907 -9.765625,8.78907 -0.976562,0 -1.953125,0 -8.7890623,-0.97657 -8.7890623,-9.76563 0,-0.97656 0,-1.95312 l 31.2500003,-187.5 q 0.976562,-4.88282 5.859375,-7.8125 L 159.92907,234.30179 q -16.60157,-19.53125 -16.60157,-45.89844 0,-9.76562 2.92969,-18.55469 -13.67187,-19.53125 -13.67187,-43.94531 0,-21.48437 10.74218,-39.062499 0.97657,-32.226563 31.25,-54.6875 30.27344,-22.4609377 72.26563,-22.4609377 42.96875,0 73.24219,22.4609377 30.27343,22.460937 31.25,54.6875 10.74218,18.554689 10.74218,39.062499 -0.97656,24.41406 -13.67187,43.94531 2.92969,8.78907 2.92969,18.55469 0,26.36719 -17.57813,45.89844 z M 162.85875,94.653351 q -8.78906,14.648439 -9.76562,31.249999 0.97656,20.50781 12.69531,36.13281 1.95313,2.92969 1.95313,5.85938 0,1.95312 -0.97657,3.90625 -2.92968,7.8125 -2.92968,16.60156 0.97656,23.4375 18.55468,40.03906 2.92969,1.95313 2.92969,5.85938 4.88281,19.53125 21.48438,33.20312 16.60156,12.69532 36.13281,12.69532 1.95312,0 3.90625,0 1.95312,0 3.90625,0 19.53125,0 36.13281,-12.69532 17.57813,-13.67187 22.46094,-33.20312 0,-3.90625 2.92969,-5.85938 17.57812,-16.60156 18.55468,-40.03906 -0.97656,-8.78906 -3.90625,-16.60156 0,-1.95313 0,-3.90625 0,-2.92969 1.95313,-5.85938 11.71875,-15.625 11.71875,-36.13281 0,-16.60156 -8.78906,-31.249999 -0.97657,-2.929688 -0.97657,-4.882813 0,-1.953125 0,-2.929687 0,-14.648438 -11.71875,-27.34375 -10.74218,-13.671875 -30.27343,-21.484375 -19.53125,-7.8125 -41.99219,-7.8125 -22.46094,0 -41.99219,7.8125 -18.55469,7.8125 -30.27344,21.484375 -10.74218,13.671875 -10.74218,29.296875 0,2.929687 -0.97657,5.859375 z m 21.48438,352.539059 h 125 V 276.29398 q -10.74219,10.74218 -29.29688,18.55468 -17.57812,6.83594 -33.20312,6.83594 -14.64844,0 -33.20313,-6.83594 -18.55468,-7.8125 -29.29687,-18.55468 z M 83.757192,418.8721 q 2.929687,-2.92969 6.835937,-2.92969 4.882813,0 7.8125,2.92969 2.929691,2.92969 2.929691,7.8125 v 62.5 q 0,3.90625 -2.929691,6.83594 -2.929687,2.92969 -7.8125,2.92969 -3.90625,0 -6.835937,-2.92969 -2.929688,-2.92969 -2.929688,-6.83594 v -62.5 q 0,-4.88281 2.929688,-7.8125 z m 312.499998,0 q 2.92969,-2.92969 6.83594,-2.92969 4.88281,0 7.8125,2.92969 2.92969,2.92969 2.92969,7.8125 v 62.5 q 0,1.95313 -0.97657,3.90625 -0.97656,1.95313 -2.92968,2.92969 -0.97657,1.95312 -2.92969,1.95312 -0.97656,0.97657 -3.90625,0.97657 -3.90625,0 -6.83594,-2.92969 -2.92969,-2.92969 -2.92969,-6.83594 v -62.5 q 0,-4.88281 2.92969,-7.8125 z M 190.2025,180.59085 q -5.85937,-2.92969 -5.85937,-9.76562 v -67.38282 q 0,-5.859372 4.88281,-8.789059 h 0.97656 q 0,-0.976563 0.97657,-0.976563 35.15625,-21.484375 77.14843,-21.484375 3.90625,0 6.83594,2.929688 l 7.8125,7.8125 h 16.60156 q 3.90625,0 6.83594,2.929687 2.92969,2.929688 2.92969,6.835938 v 78.125004 q 0,6.83593 -5.85938,9.76562 -26.36718,13.67188 -56.64062,16.60156 -29.29688,-2.92968 -56.64063,-16.60156 z m 81.05469,-80.07812 -7.8125,-7.812504 q -30.27344,1.953125 -57.61719,16.601564 v 55.66406 q 19.53125,8.78906 41.01563,11.71875 22.46094,-2.92969 41.99219,-11.71875 v -61.52344 h -10.74219 q -3.90625,0 -6.83594,-2.92968 z m 235.35156,214.84375 q 3.90625,9.76562 3.90625,19.53125 0,9.76562 -3.90625,18.55468 0,0.97657 -1.95312,10.74219 -9.76563,37.10938 -15.625,41.99219 -8.78906,5.85937 -19.53125,5.85937 -1.95313,0 -3.90625,-0.97656 l -9.76563,79.10156 q -1.95312,8.78907 -10.74218,8.78907 -0.97657,0 -0.97657,0 -9.76562,-0.97657 -9.76562,-9.76563 0,-0.97656 0,-1.95312 l 9.76562,-78.125 q -8.78906,-0.97657 -16.60156,-6.83594 -6.83594,-6.83594 -7.8125,-41.99219 -0.97656,-35.15625 0.97656,-38.08594 2.92969,-14.64843 14.64844,-22.46093 8.78906,-6.83594 20.50781,-6.83594 0.97657,0 2.92969,0.97656 l 17.57813,-139.64844 q 0.97656,-8.78906 10.74218,-8.78906 3.90625,0 6.83594,2.92969 2.92969,2.92969 2.92969,6.83594 0,0.97656 0,1.95312 l -14.64844,121.09375 23.4375,36.13281 z m -19.53125,31.25 q 1.95313,-5.85938 1.95313,-11.71875 0,-4.88282 -0.97656,-9.76563 -13.67188,-9.76562 -31.25,-10.74219 -0.97657,0 -0.97657,0 -4.88281,0 -8.78906,2.92969 -4.88281,2.92969 -5.85937,7.8125 -0.97657,12.69531 -0.97657,25.39063 0,18.55468 2.92969,37.10937 10.74219,2.92969 23.4375,2.92969 3.90625,0 8.78906,0 1.95313,-4.88281 8.78907,-31.25 1.95312,-10.74219 2.92968,-12.69531 z"
       id="text2"
       style="font-size:500px;line-height:73.9;font-family:jw-icons-external;-inkscape-font-specification:jw-icons-external;letter-spacing:-10.72px;word-spacing:0px;stroke:#000000;stroke-opacity:0"
       aria-label="" />
  </g>
</svg>
