<?xml version="1.0" encoding="UTF-8" standalone="no"?>
<!-- Created with Inkscape (http://www.inkscape.org/) -->

<svg
   width="512"
   height="512"
   viewBox="0 0 512 512"
   version="1.1"
   id="svg1"
   inkscape:version="1.4 (e7c3feb1, 2024-10-09)"
   sodipodi:docname="sister.svg"
   xmlns:inkscape="http://www.inkscape.org/namespaces/inkscape"
   xmlns:sodipodi="http://sodipodi.sourceforge.net/DTD/sodipodi-0.dtd"
   xmlns="http://www.w3.org/2000/svg"
   xmlns:svg="http://www.w3.org/2000/svg">
  <sodipodi:namedview
     id="namedview1"
     pagecolor="#ffffff"
     bordercolor="#000000"
     borderopacity="0.25"
     inkscape:showpageshadow="2"
     inkscape:pageopacity="0.0"
     inkscape:pagecheckerboard="0"
     inkscape:deskcolor="#d1d1d1"
     inkscape:document-units="mm"
     inkscape:zoom="0.93541012"
     inkscape:cx="250.15765"
     inkscape:cy="177.99679"
     inkscape:window-width="1440"
     inkscape:window-height="900"
     inkscape:window-x="0"
     inkscape:window-y="0"
     inkscape:window-maximized="0"
     inkscape:current-layer="layer1" />
  <defs
     id="defs1">
    <rect
       x="-565.05473"
       y="1313.1998"
       width="312.51631"
       height="186.24709"
       id="rect18" />
    <rect
       x="969.52799"
       y="405.43898"
       width="8849.1464"
       height="7562.3184"
       id="rect17" />
    <rect
       x="706.79119"
       y="232.00016"
       width="2654.5135"
       height="2012.4665"
       id="rect16" />
    <rect
       x="-604.24005"
       y="1404.9918"
       width="13.368143"
       height="28.0731"
       id="rect15" />
    <rect
       x="-6320.921"
       y="2061.5927"
       width="8032.4319"
       height="5173.4307"
       id="rect14" />
    <rect
       x="-5873.5943"
       y="1789.3069"
       width="8752.0445"
       height="8051.8809"
       id="rect13" />
    <rect
       x="-5562.4105"
       y="1361.4291"
       width="8401.9627"
       height="4920.5939"
       id="rect12" />
    <rect
       x="-957.89726"
       y="1529.5456"
       width="7647.7281"
       height="4279.6377"
       id="rect11" />
    <rect
       x="-99.109596"
       y="454.25232"
       width="887.85681"
       height="396.43839"
       id="rect3" />
    <rect
       x="53.684364"
       y="70.202637"
       width="1763.325"
       height="1788.1024"
       id="rect1" />
  </defs>
  <g
     inkscape:label="Layer 1"
     inkscape:groupmode="layer"
     id="layer1">
    <path
       d="m 183.2646,479.23355 h -0.97656 q -8.78907,-1.95312 -8.78907,-10.74219 0,-0.97656 0,-1.95312 l 6.83594,-34.17969 q 0.97656,-8.78906 9.76563,-8.78906 0.97656,0 1.95312,0 8.78906,1.95312 8.78906,10.74219 0,0.97656 0,1.95312 l -5.85937,34.17969 q -1.95313,8.78906 -10.74219,8.78906 z m -61.52344,0 h -1.95312 q -8.78907,-1.95312 -8.78907,-10.74219 0,-0.97656 0.97657,-2.92968 l 41.01562,-168.94532 q 0.97656,-2.92968 2.92969,-4.88281 l 52.73437,-54.6875 q 1.95313,-0.97656 1.95313,-2.92969 v -0.97656 -30.27344 q 0,-4.88281 -5.85938,-4.88281 h -16.60156 q -4.88281,0 -7.8125,-2.92969 -2.92969,-3.90625 -2.92969,-7.8125 0,-88.867184 32.22657,-124.999996 4.88281,-5.859375 12.69531,-10.742188 7.8125,-4.882812 16.60156,-6.835937 8.78906,-2.929688 15.625,-2.929688 h 0.97656 4.88282 q 0,0 0.97656,0 10.74219,0 24.41406,5.859375 13.67188,5.859375 20.50781,14.648438 33.20313,37.109375 32.22657,124.999996 0,3.90625 -2.92969,7.8125 -2.92969,2.92969 -7.8125,2.92969 h -17.57813 q -4.88281,0 -4.88281,4.88281 v 31.25 q 0,2.92969 1.95313,3.90625 l 51.75781,53.71094 q 1.95312,1.95313 2.92969,4.88281 l 41.99218,168.94532 q 0,0.97656 0,1.95312 0,7.8125 -7.8125,9.76563 -0.97656,0.97656 -2.92968,0.97656 -7.8125,0 -9.76563,-8.78906 L 343.42085,303.4523 292.6396,250.71793 q -7.8125,-6.83594 -7.8125,-17.57813 v -30.27344 q 0,-4.88281 1.95312,-9.76562 1.95313,-4.88281 4.88282,-7.8125 3.90625,-3.90625 8.78906,-5.85938 4.88281,-1.95312 9.76562,-2.92968 h 7.8125 q 0,-70.3125 -27.34375,-100.585941 -11.71875,-13.671875 -30.27343,-13.671875 h -4.88282 q 0,0 -0.97656,0 -17.57812,0 -29.29687,13.671875 -25.39063,29.296871 -27.34375,100.585941 h 6.83593 q 10.74219,0 18.55469,7.8125 7.8125,7.8125 7.8125,18.55468 v 31.25 q 0,10.74219 -7.8125,18.55469 l -48.82812,51.75781 -41.99219,166.99219 q -1.95313,7.8125 -9.76563,7.8125 z m 210.9375,0 q -8.78906,-0.97656 -10.74219,-8.78906 l -5.85937,-35.15625 q -0.97656,-0.97656 -0.97656,-1.95313 0,-8.78906 8.78906,-9.76562 0.97656,0 1.95312,0 8.78907,0 10.74219,7.8125 l 5.85938,35.15625 q 0,0.97656 0,1.95312 0,8.78907 -7.8125,9.76563 z m -75.19531,-132.8125 q -16.60156,-0.97656 -32.22656,-12.69531 -14.64844,-11.71875 -20.50782,-26.36719 -0.97656,-1.95312 -0.97656,-3.90625 0,-6.83594 5.85938,-9.76562 1.95312,-0.97657 4.88281,-0.97657 6.83594,0 8.78906,5.85938 3.90625,10.74219 13.67188,18.55469 9.76562,6.83593 20.50781,7.8125 10.74219,-0.97657 20.50781,-7.8125 9.76563,-7.8125 13.67188,-18.55469 1.95312,-6.83594 9.76562,-6.83594 3.90625,0 6.83594,3.90625 2.92969,2.92969 2.92969,6.83594 0,2.92969 -0.97657,4.88281 -3.90625,9.76563 -12.69531,18.55469 -7.8125,8.78906 -18.55469,14.64844 -10.74218,4.88281 -21.48437,5.85937 z m -74.21875,132.8125 h -0.97656 q -8.78907,-1.95312 -8.78907,-10.74219 0,-0.97656 0,-1.95312 l 6.83594,-34.17969 q 0.97656,-8.78906 9.76563,-8.78906 0.97656,0 1.95312,0 8.78906,1.95312 8.78906,10.74219 0,0.97656 0,1.95312 l -5.85937,34.17969 q -1.95313,8.78906 -10.74219,8.78906 z m -61.52344,0 h -1.95312 q -8.78907,-1.95312 -8.78907,-10.74219 0,-0.97656 0.97657,-2.92968 l 41.01562,-168.94532 q 0.97656,-2.92968 2.92969,-4.88281 l 52.73437,-54.6875 q 1.95313,-0.97656 1.95313,-2.92969 v -0.97656 -30.27344 q 0,-4.88281 -5.85938,-4.88281 h -16.60156 q -4.88281,0 -7.8125,-2.92969 -2.92969,-3.90625 -2.92969,-7.8125 0,-88.867184 32.22657,-124.999996 4.88281,-5.859375 12.69531,-10.742188 7.8125,-4.882812 16.60156,-6.835937 8.78906,-2.929688 15.625,-2.929688 h 0.97656 4.88282 q 0,0 0.97656,0 10.74219,0 24.41406,5.859375 13.67188,5.859375 20.50781,14.648438 33.20313,37.109375 32.22657,124.999996 0,3.90625 -2.92969,7.8125 -2.92969,2.92969 -7.8125,2.92969 h -17.57813 q -4.88281,0 -4.88281,4.88281 v 31.25 q 0,2.92969 1.95313,3.90625 l 51.75781,53.71094 q 1.95312,1.95313 2.92969,4.88281 l 41.99218,168.94532 q 0,0.97656 0,1.95312 0,7.8125 -7.8125,9.76563 -0.97656,0.97656 -2.92968,0.97656 -7.8125,0 -9.76563,-8.78906 L 343.42085,303.4523 292.6396,250.71793 q -7.8125,-6.83594 -7.8125,-17.57813 v -30.27344 q 0,-4.88281 1.95312,-9.76562 1.95313,-4.88281 4.88282,-7.8125 3.90625,-3.90625 8.78906,-5.85938 4.88281,-1.95312 9.76562,-2.92968 h 7.8125 q 0,-70.3125 -27.34375,-100.585941 -11.71875,-13.671875 -30.27343,-13.671875 h -4.88282 q 0,0 -0.97656,0 -17.57812,0 -29.29687,13.671875 -25.39063,29.296871 -27.34375,100.585941 h 6.83593 q 10.74219,0 18.55469,7.8125 7.8125,7.8125 7.8125,18.55468 v 31.25 q 0,10.74219 -7.8125,18.55469 l -48.82812,51.75781 -41.99219,166.99219 q -1.95313,7.8125 -9.76563,7.8125 z m 210.9375,0 q -8.78906,-0.97656 -10.74219,-8.78906 l -5.85937,-35.15625 q -0.97656,-0.97656 -0.97656,-1.95313 0,-8.78906 8.78906,-9.76562 0.97656,0 1.95312,0 8.78907,0 10.74219,7.8125 l 5.85938,35.15625 q 0,0.97656 0,1.95312 0,8.78907 -7.8125,9.76563 z m -75.19531,-132.8125 q -16.60156,-0.97656 -32.22656,-12.69531 -14.64844,-11.71875 -20.50782,-26.36719 -0.97656,-1.95312 -0.97656,-3.90625 0,-6.83594 5.85938,-9.76562 1.95312,-0.97657 4.88281,-0.97657 6.83594,0 8.78906,5.85938 3.90625,10.74219 13.67188,18.55469 9.76562,6.83593 20.50781,7.8125 10.74219,-0.97657 20.50781,-7.8125 9.76563,-7.8125 13.67188,-18.55469 1.95312,-6.83594 9.76562,-6.83594 3.90625,0 6.83594,3.90625 2.92969,2.92969 2.92969,6.83594 0,2.92969 -0.97657,4.88281 -3.90625,9.76563 -12.69531,18.55469 -7.8125,8.78906 -18.55469,14.64844 -10.74218,4.88281 -21.48437,5.85937 z"
       id="text1"
       style=""
       aria-label="" />
  </g>
</svg>
