<?xml version="1.0" encoding="UTF-8" standalone="no"?>
<!-- Created with Inkscape (http://www.inkscape.org/) -->

<svg
   width="512"
   height="512"
   viewBox="0 0 512 512"
   version="1.1"
   id="svg1"
   inkscape:version="1.4 (e7c3feb1, 2024-10-09)"
   sodipodi:docname="slow.svg"
   xmlns:inkscape="http://www.inkscape.org/namespaces/inkscape"
   xmlns:sodipodi="http://sodipodi.sourceforge.net/DTD/sodipodi-0.dtd"
   xmlns="http://www.w3.org/2000/svg"
   xmlns:svg="http://www.w3.org/2000/svg">
  <sodipodi:namedview
     id="namedview1"
     pagecolor="#ffffff"
     bordercolor="#000000"
     borderopacity="0.25"
     inkscape:showpageshadow="2"
     inkscape:pageopacity="0.0"
     inkscape:pagecheckerboard="0"
     inkscape:deskcolor="#d1d1d1"
     inkscape:document-units="mm"
     inkscape:zoom="0.76150443"
     inkscape:cx="183.8466"
     inkscape:cy="166.77513"
     inkscape:window-width="1440"
     inkscape:window-height="847"
     inkscape:window-x="0"
     inkscape:window-y="25"
     inkscape:window-maximized="0"
     inkscape:current-layer="layer1" />
  <defs
     id="defs1">
    <rect
       x="-572.24641"
       y="250.71666"
       width="849.75722"
       height="602.8683"
       id="rect53" />
    <rect
       x="-565.05473"
       y="1313.1998"
       width="312.51631"
       height="186.24709"
       id="rect18" />
    <rect
       x="969.52799"
       y="405.43898"
       width="8849.1464"
       height="7562.3184"
       id="rect17" />
    <rect
       x="706.79119"
       y="232.00016"
       width="2654.5135"
       height="2012.4665"
       id="rect16" />
    <rect
       x="-604.24005"
       y="1404.9918"
       width="13.368143"
       height="28.0731"
       id="rect15" />
    <rect
       x="-6320.921"
       y="2061.5927"
       width="8032.4319"
       height="5173.4307"
       id="rect14" />
    <rect
       x="-5873.5943"
       y="1789.3069"
       width="8752.0445"
       height="8051.8809"
       id="rect13" />
    <rect
       x="-5562.4105"
       y="1361.4291"
       width="8401.9627"
       height="4920.5939"
       id="rect12" />
    <rect
       x="-957.89726"
       y="1529.5456"
       width="7647.7281"
       height="4279.6377"
       id="rect11" />
    <rect
       x="-99.109596"
       y="454.25232"
       width="887.85681"
       height="396.43839"
       id="rect3" />
    <rect
       x="53.684364"
       y="70.202637"
       width="1763.325"
       height="1788.1024"
       id="rect1" />
  </defs>
  <g
     inkscape:label="Layer 1"
     inkscape:groupmode="layer"
     id="layer1">
    <path
       d="m 505.25276,165.20471 q 0,18.55469 -9.76562,41.99219 -9.76563,22.46094 -22.46094,36.13281 -8.78906,8.78906 -23.4375,16.60156 -13.67188,7.8125 -29.29688,12.69532 -15.625,4.88281 -28.32031,5.85937 12.69531,16.60156 21.48438,44.92188 8.78906,27.34375 8.78906,48.82812 0,0 0,0.97656 v 20.50782 q 0,13.67187 -9.76563,22.46093 -8.78906,8.78907 -21.48437,8.78907 H 286.50276 q -12.69531,0 -22.46094,-8.78907 -8.78906,-8.78906 -8.78906,-22.46093 -2.92969,-29.29688 -14.64844,-56.64063 -18.55468,7.8125 -39.0625,13.67188 -26.36718,6.83593 -53.71093,8.78906 -1.95313,23.4375 -11.71875,43.94531 -4.88282,8.78906 -16.60157,14.64844 -10.74218,5.85937 -20.507809,5.85937 h -62.5 -0.976562 q -12.695313,0 -20.507813,-9.76562 -3.90625,-6.83594 -3.90625,-14.64844 0,-3.90625 0.976563,-8.78906 l 14.648437,-41.99219 h -3.90625 q -4.882812,-0.97656 -6.835937,-6.83594 -6.8359376,-25.39062 -6.8359376,-50.78125 0,-73.24218 51.7578126,-125 51.757816,-51.75781 124.999996,-51.75781 54.6875,0 103.51563,37.10938 49.80469,36.13281 65.42969,88.86718 11.71875,7.8125 21.48437,18.55469 1.95313,0 3.90625,0 12.69531,0 27.34375,-3.90625 14.64844,-3.90625 28.32031,-10.74219 13.67188,-7.8125 22.46094,-15.625 6.83594,-7.8125 12.69531,-18.55468 5.85938,-10.74219 8.78907,-22.46094 3.90625,-12.69531 4.88281,-22.46094 0,-26.36719 -18.55469,-43.94531 -18.55469,-18.55469 -44.92187,-18.55469 -25.39063,0 -43.94532,18.55469 -17.57812,17.57812 -17.57812,43.94531 0,3.90625 -3.90625,6.83594 -2.92969,2.92969 -6.83594,2.92969 -3.90625,0 -7.8125,-2.92969 -2.92969,-2.92969 -2.92969,-6.83594 0,-35.15625 24.41407,-59.57031 24.41406,-24.414063 59.57031,-24.414063 22.46094,0 41.01562,11.71875 19.53125,10.742183 30.27344,30.273433 11.71875,18.55469 11.71875,41.99219 z M 32.596511,403.48596 q 0.976563,0.97656 2.929688,0.97656 0.976562,0 0.976562,0 h 20.507813 q 11.71875,0 19.53125,-8.78906 7.8125,-17.57812 8.789062,-36.13281 -19.53125,-0.97656 -38.085937,-4.88281 l -14.648438,43.94531 q -0.976562,0.97656 -0.976562,1.95312 0,0.97657 0.976562,2.92969 z m 84.960939,-7.8125 q 7.8125,-16.60156 9.76562,-34.17969 h -6.83593 -13.67188 q -1.95312,22.46094 -11.718749,42.96875 h 3.90625 q 11.718749,0 18.554689,-8.78906 z m 79.10156,-64.45312 q 33.20313,-9.76563 74.21875,-33.20313 41.01563,-24.41406 65.42969,-48.82812 -6.83594,-24.41407 -28.32031,-49.80469 -20.50782,-26.36719 -42.96875,-39.0625 -35.15625,-21.48438 -77.14844,-21.48438 -20.50781,0 -41.01563,5.85938 -31.25,7.8125 -58.593746,31.25 -26.367188,23.4375 -41.992188,55.66406 -15.625,31.25 -15.625,63.47656 0,17.57813 4.882813,35.15625 40.039062,10.74219 83.007811,10.74219 39.0625,0 78.125,-9.76562 z m 79.10156,62.5 v 0.97656 q 0,3.90625 2.92969,6.83594 3.90625,2.92968 7.8125,2.92968 h 33.20313 q -1.95313,-4.88281 -1.95313,-9.76562 -3.90625,-44.92188 -26.36719,-83.98438 -2.92968,1.95313 -14.64843,8.78907 -10.74219,5.85937 -17.57813,9.76562 13.67188,30.27344 16.60156,64.45313 z m 125,0 v -20.50782 q 0,-27.34375 -14.64843,-58.59375 -13.67188,-32.22656 -34.17969,-50.78125 -20.50781,19.53125 -42.96875,36.13282 10.74219,18.55468 19.53125,45.89843 8.78906,27.34375 9.76562,47.85157 0,3.90625 2.92969,7.8125 3.90625,2.92968 7.8125,2.92968 h 41.99219 q 3.90625,0 6.83594,-2.92968 2.92968,-3.90625 2.92968,-7.8125 z m 62.5,-228.51563 q 0,3.90625 -2.92968,6.83594 -2.92969,2.92969 -7.8125,2.92969 -3.90625,0 -6.83594,-2.92969 -2.92969,-2.92969 -2.92969,-6.83594 v -10.74219 q 0,-3.90625 2.92969,-6.83593 2.92969,-3.90625 6.83594,-3.90625 4.88281,0 7.8125,3.90625 2.92968,2.92968 2.92968,6.83593 z"
       id="text2"
       style="-inkscape-font-specification:jw-icons-external"
       aria-label="" />
  </g>
</svg>
