<?xml version="1.0" encoding="UTF-8" standalone="no"?>
<!-- Created with Inkscape (http://www.inkscape.org/) -->

<svg
   width="512"
   height="512"
   viewBox="0 0 512 512"
   version="1.1"
   id="svg1"
   inkscape:version="1.4 (e7c3feb1, 2024-10-09)"
   sodipodi:docname="upload.svg"
   xmlns:inkscape="http://www.inkscape.org/namespaces/inkscape"
   xmlns:sodipodi="http://sodipodi.sourceforge.net/DTD/sodipodi-0.dtd"
   xmlns="http://www.w3.org/2000/svg"
   xmlns:svg="http://www.w3.org/2000/svg">
  <sodipodi:namedview
     id="namedview1"
     pagecolor="#ffffff"
     bordercolor="#000000"
     borderopacity="0.25"
     inkscape:showpageshadow="2"
     inkscape:pageopacity="0.0"
     inkscape:pagecheckerboard="0"
     inkscape:deskcolor="#d1d1d1"
     inkscape:document-units="mm"
     inkscape:zoom="0.45394329"
     inkscape:cx="42.956908"
     inkscape:cy="296.29252"
     inkscape:window-width="1440"
     inkscape:window-height="872"
     inkscape:window-x="0"
     inkscape:window-y="28"
     inkscape:window-maximized="0"
     inkscape:current-layer="layer1" />
  <defs
     id="defs1">
    <rect
       x="-565.05473"
       y="1313.1998"
       width="312.51631"
       height="186.24709"
       id="rect18" />
    <rect
       x="969.52799"
       y="405.43898"
       width="8849.1464"
       height="7562.3184"
       id="rect17" />
    <rect
       x="706.79119"
       y="232.00016"
       width="2654.5135"
       height="2012.4665"
       id="rect16" />
    <rect
       x="-604.24005"
       y="1404.9918"
       width="13.368143"
       height="28.0731"
       id="rect15" />
    <rect
       x="-6320.921"
       y="2061.5927"
       width="8032.4319"
       height="5173.4307"
       id="rect14" />
    <rect
       x="-5873.5943"
       y="1789.3069"
       width="8752.0445"
       height="8051.8809"
       id="rect13" />
    <rect
       x="-5562.4105"
       y="1361.4291"
       width="8401.9627"
       height="4920.5939"
       id="rect12" />
    <rect
       x="-957.89726"
       y="1529.5456"
       width="7647.7281"
       height="4279.6377"
       id="rect11" />
    <rect
       x="-99.109596"
       y="454.25232"
       width="887.85681"
       height="396.43839"
       id="rect3" />
    <rect
       x="53.684364"
       y="70.202637"
       width="1763.325"
       height="1788.1024"
       id="rect1" />
  </defs>
  <g
     inkscape:label="Layer 1"
     inkscape:groupmode="layer"
     id="layer1">
    <text
       xml:space="preserve"
       transform="scale(0.27093333)"
       id="text3"
       style="font-style:normal;font-variant:normal;font-weight:normal;font-stretch:normal;font-size:146.667px;line-height:0;font-family:jw-icons-external;-inkscape-font-specification:jw-icons-external;text-align:center;letter-spacing:5.8px;word-spacing:0px;writing-mode:lr-tb;direction:ltr;white-space:pre;shape-inside:url(#rect3);display:inline;fill:#000000;fill-opacity:1;stroke-width:755.906" />
    <text
       xml:space="preserve"
       style="font-size:173.333px;line-height:0;font-family:jw-icons-external;-inkscape-font-specification:jw-icons-external;text-align:center;letter-spacing:5.8px;word-spacing:0px;writing-mode:lr-tb;direction:ltr;text-anchor:middle;fill:#000000;stroke:#000000;stroke-opacity:0;fill-opacity:1"
       x="-622.14398"
       y="1067.8145"
       id="text7"><tspan
         sodipodi:role="line"
         id="tspan7"
         x="-622.14398"
         y="1067.8145" /><tspan
         sodipodi:role="line"
         id="tspan8"
         x="-622.14398"
         y="1067.8145" /><tspan
         sodipodi:role="line"
         x="-622.14398"
         y="1067.8145"
         id="tspan9" /><tspan
         sodipodi:role="line"
         x="-622.14398"
         y="1067.8145"
         id="tspan10" /></text>
    <text
       xml:space="preserve"
       id="text11"
       style="font-size:173.333px;line-height:0;font-family:jw-icons-external;-inkscape-font-specification:jw-icons-external;text-align:center;letter-spacing:5.8px;word-spacing:0px;writing-mode:lr-tb;direction:ltr;white-space:pre;shape-inside:url(#rect11);display:inline;fill:#000000;fill-opacity:1;stroke:#000000;stroke-opacity:0" />
    <text
       xml:space="preserve"
       id="text13"
       style="font-size:173.333px;line-height:0;font-family:jw-icons-external;-inkscape-font-specification:jw-icons-external;text-align:center;letter-spacing:5.8px;word-spacing:0px;writing-mode:lr-tb;direction:ltr;white-space:pre;shape-inside:url(#rect13);display:inline;fill:#000000;fill-opacity:1;stroke:#000000;stroke-opacity:0" />
    <text
       xml:space="preserve"
       id="text14"
       style="font-size:16px;line-height:0;font-family:jw-icons-external;-inkscape-font-specification:jw-icons-external;text-align:start;letter-spacing:5.8px;word-spacing:0px;writing-mode:lr-tb;direction:ltr;white-space:pre;shape-inside:url(#rect15);display:inline;fill:#000000;fill-opacity:1;stroke:#000000;stroke-opacity:0" />
    <text
       xml:space="preserve"
       id="text15"
       style="font-size:16px;line-height:0;font-family:jw-icons-external;-inkscape-font-specification:jw-icons-external;text-align:start;letter-spacing:5.8px;word-spacing:0px;writing-mode:lr-tb;direction:ltr;white-space:pre;shape-inside:url(#rect16);display:inline;fill:#000000;fill-opacity:1;stroke:#000000;stroke-opacity:0" />
    <text
       xml:space="preserve"
       id="text16"
       style="font-size:16px;line-height:1.5;font-family:jw-icons-external;-inkscape-font-specification:jw-icons-external;text-align:start;letter-spacing:5.8px;word-spacing:0px;writing-mode:lr-tb;direction:ltr;white-space:pre;shape-inside:url(#rect17);display:inline;fill:#000000;fill-opacity:1;stroke:#000000;stroke-opacity:0" />
    <text
       xml:space="preserve"
       id="text17"
       style="font-size:16px;line-height:1.5;font-family:jw-icons-external;-inkscape-font-specification:jw-icons-external;text-align:start;letter-spacing:5.8px;word-spacing:0px;writing-mode:lr-tb;direction:ltr;white-space:pre;shape-inside:url(#rect18);display:inline;fill:#000000;fill-opacity:1;stroke:#000000;stroke-opacity:0" />
    <text
       xml:space="preserve"
       style="font-size:533.333px;line-height:1.2;font-family:jw-icons-external;-inkscape-font-specification:jw-icons-external;text-align:start;letter-spacing:5.8px;word-spacing:0px;writing-mode:lr-tb;direction:ltr;text-anchor:start;fill:#000000;stroke:#000000;stroke-opacity:0;fill-opacity:1"
       x="143.7877"
       y="307.89322"
       id="text20"><tspan
         sodipodi:role="line"
         id="tspan19" /></text>
    <text
       xml:space="preserve"
       style="font-size:500px;line-height:73.9;font-family:jw-icons-external;-inkscape-font-specification:jw-icons-external;text-align:start;letter-spacing:-10.72px;word-spacing:0px;writing-mode:lr-tb;direction:ltr;text-anchor:start;fill:#000000;fill-opacity:1;stroke:#000000;stroke-opacity:0"
       x="63.884632"
       y="438.38074"
       id="text1"><tspan
         sodipodi:role="line"
         id="tspan1"></tspan></text>
    <path
       d="m 343.52282,230.87253 -66.40625,-65.42969 v 308.59375 q 0,3.90625 -2.92969,6.83594 -2.92969,3.90625 -7.8125,3.90625 -3.90625,0 -6.83594,-3.90625 -2.92969,-2.92969 -2.92969,-6.83594 V 165.44284 l -65.42968,65.42969 q -2.92969,2.92969 -7.8125,2.92969 -2.92969,0 -4.88282,-0.97657 -1.95312,-1.95312 -3.90625,-3.90625 -0.97656,-2.92968 -0.97656,-5.85937 0,-3.90625 2.92969,-6.83594 l 83.00781,-83.98437 q 1.95313,-0.97657 3.90625,-1.95313 1.95313,-0.97656 3.90625,-0.97656 1.95313,0 3.90625,0.97656 1.95313,0.97656 2.92969,2.92969 l 83.00781,83.98437 q 3.90625,2.92969 3.90625,6.83594 0,3.90625 -3.90625,7.8125 -2.92969,2.92969 -6.83594,2.92969 -3.90625,0 -6.83593,-3.90625 z m 52.73437,-100.58594 q 38.08594,0.97656 64.45313,29.29688 27.34375,27.34375 27.34375,64.45312 0,25.39063 -12.69532,47.85156 -12.69531,21.48438 -34.17968,34.17969 -21.48438,11.71875 -46.875,11.71875 -0.97657,0 -1.95313,0 h -62.5 q -4.88281,0 -7.8125,-2.92969 -2.92969,-2.92968 -2.92969,-6.83593 0,-4.88282 2.92969,-7.8125 2.92969,-2.92969 7.8125,-2.92969 h 62.5 q 30.27344,0 50.78125,-21.48438 21.48438,-21.48437 21.48438,-50.78125 0,-30.27343 -21.48438,-51.75781 -20.50781,-21.48437 -50.78125,-21.48437 h -3.90625 q -7.8125,0 -9.76562,-8.78907 -4.88282,-18.55468 -17.57813,-36.13281 -11.71875,-17.578124 -28.32031,-30.273437 -15.625,-13.671875 -36.13281,-20.507812 -19.53125,-7.8125 -40.03907,-7.8125 -17.57812,0 -38.08593,7.8125 -20.50782,7.8125 -38.08594,20.507812 -17.57813,12.695313 -28.32031,28.320317 -3.90625,4.88281 -9.76563,4.88281 -39.0625,0 -66.406249,27.34375 -27.34375,27.34375 -27.34375,66.40625 0,38.08594 27.34375,66.40625 27.343749,27.34375 66.406249,27.34375 h 62.5 q 3.90625,0 6.83594,2.92969 2.92969,2.92968 2.92969,7.8125 0,3.90625 -2.92969,6.83593 -2.92969,2.92969 -6.83594,2.92969 h -62.5 q -1.95312,0 -2.92969,0 -46.874996,0 -81.054684,-33.20312 -33.203125,-34.17969 -33.203125,-81.05469 0,-46.875 32.226563,-80.07813 33.203125,-34.179684 80.078126,-35.156247 17.57812,-25.390625 52.73437,-43.945312 35.15625,-18.554688 66.40625,-18.554688 44.92188,0 85.9375,31.25 41.01563,30.273438 53.71094,73.242187 z"
       id="text2"
       style="font-size:500px;line-height:73.9;font-family:jw-icons-external;-inkscape-font-specification:jw-icons-external;letter-spacing:-10.72px;word-spacing:0px;stroke:#000000;stroke-opacity:0"
       aria-label="" />
  </g>
</svg>
