<?xml version="1.0" encoding="UTF-8" standalone="no"?>
<!-- Created with Inkscape (http://www.inkscape.org/) -->

<svg
   width="512"
   height="512"
   viewBox="0 0 512 512"
   version="1.1"
   id="svg1"
   inkscape:version="1.4 (e7c3feb1, 2024-10-09)"
   sodipodi:docname="weekend-meeting.svg"
   xmlns:inkscape="http://www.inkscape.org/namespaces/inkscape"
   xmlns:sodipodi="http://sodipodi.sourceforge.net/DTD/sodipodi-0.dtd"
   xmlns="http://www.w3.org/2000/svg"
   xmlns:svg="http://www.w3.org/2000/svg">
  <sodipodi:namedview
     id="namedview1"
     pagecolor="#ffffff"
     bordercolor="#000000"
     borderopacity="0.25"
     inkscape:showpageshadow="2"
     inkscape:pageopacity="0.0"
     inkscape:pagecheckerboard="0"
     inkscape:deskcolor="#d1d1d1"
     inkscape:document-units="mm"
     inkscape:zoom="0.8382894"
     inkscape:cx="255.87822"
     inkscape:cy="319.10221"
     inkscape:window-width="1440"
     inkscape:window-height="900"
     inkscape:window-x="0"
     inkscape:window-y="0"
     inkscape:window-maximized="0"
     inkscape:current-layer="layer1" />
  <defs
     id="defs1">
    <rect
       x="-565.05473"
       y="1313.1998"
       width="312.51631"
       height="186.24709"
       id="rect18" />
    <rect
       x="969.52799"
       y="405.43898"
       width="8849.1464"
       height="7562.3184"
       id="rect17" />
    <rect
       x="706.79119"
       y="232.00016"
       width="2654.5135"
       height="2012.4665"
       id="rect16" />
    <rect
       x="-604.24005"
       y="1404.9918"
       width="13.368143"
       height="28.0731"
       id="rect15" />
    <rect
       x="-6320.921"
       y="2061.5927"
       width="8032.4319"
       height="5173.4307"
       id="rect14" />
    <rect
       x="-5873.5943"
       y="1789.3069"
       width="8752.0445"
       height="8051.8809"
       id="rect13" />
    <rect
       x="-5562.4105"
       y="1361.4291"
       width="8401.9627"
       height="4920.5939"
       id="rect12" />
    <rect
       x="-957.89726"
       y="1529.5456"
       width="7647.7281"
       height="4279.6377"
       id="rect11" />
    <rect
       x="-99.109596"
       y="454.25232"
       width="887.85681"
       height="396.43839"
       id="rect3" />
    <rect
       x="53.684364"
       y="70.202637"
       width="1763.325"
       height="1788.1024"
       id="rect1" />
  </defs>
  <g
     inkscape:label="Layer 1"
     inkscape:groupmode="layer"
     id="layer1">
    <text
       xml:space="preserve"
       transform="scale(0.27093333)"
       id="text3"
       style="font-style:normal;font-variant:normal;font-weight:normal;font-stretch:normal;font-size:146.667px;line-height:0;font-family:jw-icons-external;-inkscape-font-specification:jw-icons-external;text-align:center;letter-spacing:5.8px;word-spacing:0px;writing-mode:lr-tb;direction:ltr;white-space:pre;shape-inside:url(#rect3);display:inline;fill:#000000;stroke-width:755.906" />
    <text
       xml:space="preserve"
       style="font-size:173.333px;line-height:0;font-family:jw-icons-external;-inkscape-font-specification:jw-icons-external;text-align:center;letter-spacing:5.8px;word-spacing:0px;writing-mode:lr-tb;direction:ltr;text-anchor:middle;fill:#000000;stroke:#000000;stroke-opacity:0"
       x="-622.14398"
       y="1067.8145"
       id="text7"><tspan
         sodipodi:role="line"
         id="tspan7"
         x="-622.14398"
         y="1067.8145"></tspan><tspan
         sodipodi:role="line"
         id="tspan8"
         x="-622.14398"
         y="1067.8145" /><tspan
         sodipodi:role="line"
         x="-622.14398"
         y="1067.8145"
         id="tspan9" /><tspan
         sodipodi:role="line"
         x="-622.14398"
         y="1067.8145"
         id="tspan10" /></text>
    <text
       xml:space="preserve"
       id="text11"
       style="font-size:173.333px;line-height:0;font-family:jw-icons-external;-inkscape-font-specification:jw-icons-external;text-align:center;letter-spacing:5.8px;word-spacing:0px;writing-mode:lr-tb;direction:ltr;white-space:pre;shape-inside:url(#rect11);display:inline;fill:#000000;stroke:#000000;stroke-opacity:0" />
    <text
       xml:space="preserve"
       id="text13"
       style="font-size:173.333px;line-height:0;font-family:jw-icons-external;-inkscape-font-specification:jw-icons-external;text-align:center;letter-spacing:5.8px;word-spacing:0px;writing-mode:lr-tb;direction:ltr;white-space:pre;shape-inside:url(#rect13);display:inline;fill:#000000;stroke:#000000;stroke-opacity:0" />
    <text
       xml:space="preserve"
       id="text14"
       style="font-size:16px;line-height:0;font-family:jw-icons-external;-inkscape-font-specification:jw-icons-external;text-align:start;letter-spacing:5.8px;word-spacing:0px;writing-mode:lr-tb;direction:ltr;white-space:pre;shape-inside:url(#rect15);display:inline;fill:#000000;stroke:#000000;stroke-opacity:0" />
    <text
       xml:space="preserve"
       id="text15"
       style="font-size:16px;line-height:0;font-family:jw-icons-external;-inkscape-font-specification:jw-icons-external;text-align:start;letter-spacing:5.8px;word-spacing:0px;writing-mode:lr-tb;direction:ltr;white-space:pre;shape-inside:url(#rect16);display:inline;fill:#000000;stroke:#000000;stroke-opacity:0" />
    <text
       xml:space="preserve"
       id="text16"
       style="font-size:16px;line-height:1.5;font-family:jw-icons-external;-inkscape-font-specification:jw-icons-external;text-align:start;letter-spacing:5.8px;word-spacing:0px;writing-mode:lr-tb;direction:ltr;white-space:pre;shape-inside:url(#rect17);display:inline;fill:#000000;stroke:#000000;stroke-opacity:0" />
    <text
       xml:space="preserve"
       id="text17"
       style="font-size:16px;line-height:1.5;font-family:jw-icons-external;-inkscape-font-specification:jw-icons-external;text-align:start;letter-spacing:5.8px;word-spacing:0px;writing-mode:lr-tb;direction:ltr;white-space:pre;shape-inside:url(#rect18);display:inline;fill:#000000;stroke:#000000;stroke-opacity:0" />
    <text
       xml:space="preserve"
       style="font-size:533.333px;line-height:1.2;font-family:jw-icons-external;-inkscape-font-specification:jw-icons-external;text-align:start;letter-spacing:5.8px;word-spacing:0px;writing-mode:lr-tb;direction:ltr;text-anchor:start;fill:#000000;stroke:#000000;stroke-opacity:0"
       x="143.7877"
       y="307.89322"
       id="text20"><tspan
         sodipodi:role="line"
         id="tspan19"></tspan></text>
    <path
       d="m 320.20131,316.36899 h -0.97656 q -1.95313,0 -4.88282,-0.97656 -1.95312,-0.97657 -3.90625,-2.92969 -0.97656,-2.92969 -0.97656,-5.85938 0,-3.90625 1.95313,-6.83593 L 338.756,264.61118 H 172.74037 l 26.36719,35.15625 q 2.92969,2.92968 2.92969,7.8125 0,3.90625 -2.92969,6.83593 -2.92969,2.92969 -6.83594,2.92969 -5.85937,0 -8.78906,-4.88281 L 143.4435,260.70493 q -1.95313,-2.92969 -1.95313,-6.83594 0,-3.90625 2.92969,-6.83594 2.92969,-2.92969 6.83594,-2.92969 h 208.98437 q 3.90625,0 6.83594,2.92969 2.92969,2.92969 2.92969,6.83594 0,3.90625 -1.95313,6.83594 l -40.03906,51.75781 q -2.92969,3.90625 -7.8125,3.90625 z M 262.58412,219.6893 q -2.92969,2.92969 -6.83594,2.92969 -3.90625,0 -7.8125,-2.92969 -2.92968,-2.92969 -2.92968,-6.83594 v -31.25 q 0,-4.88281 2.92968,-7.8125 3.90625,-2.92968 7.8125,-2.92968 2.92969,0 4.88282,1.95312 2.92968,0.97656 3.90625,3.90625 1.95312,1.95313 1.95312,4.88281 v 31.25 q 0,3.90625 -3.90625,6.83594 z m 73.24219,-0.97656 q -2.92969,2.92969 -7.8125,2.92969 -3.90625,0 -6.83594,-2.92969 -2.92969,-2.92969 -2.92969,-7.8125 v -24.41406 l -48.82812,-25.39063 q -5.85938,-2.92969 -5.85938,-8.78906 v -12.69531 q 0,-2.92969 1.95313,-5.85938 l 14.64844,-22.46094 V 82.970551 q -7.8125,-14.648438 -24.41407,-15.625 -16.60156,1.953125 -24.41406,15.625 v 28.320309 l 15.625,22.46094 q 0.97656,2.92969 1.95313,5.85938 v 12.69531 q -0.97657,5.85937 -5.85938,8.78906 l -49.80469,25.39063 v 24.41406 q 0,4.88281 -2.92968,7.8125 -2.92969,2.92969 -7.8125,2.92969 -3.90625,0 -6.83594,-2.92969 -2.92969,-2.92969 -2.92969,-7.8125 v -29.29688 q 0,-6.83593 4.88281,-9.76562 l 49.80469,-26.36719 v -2.92969 l -15.625,-22.46093 q -1.95312,-2.92969 -1.95312,-5.85938 V 80.040863 q 0,-2.929687 1.95312,-4.882812 5.85938,-10.742188 18.55469,-18.554688 12.69531,-8.789062 25.39062,-9.765625 12.69532,0.976563 25.39063,9.765625 12.69531,7.8125 18.55469,18.554688 1.95312,1.953125 1.95312,4.882812 v 34.179687 q 0,2.92969 -1.95312,5.85938 l -15.625,22.46093 v 2.92969 l 49.80468,25.39063 q 4.88282,2.92968 4.88282,9.76562 0,0 0,0.97656 v 29.29688 q 0,4.88281 -2.92969,7.8125 z M 120.006,472.61899 q -2.92969,0 -4.88282,-0.97656 L 78.99037,451.13461 q -5.859375,-3.90625 -5.859375,-9.76562 v -15.625 q 0,-2.92969 1.953125,-5.85938 L 88.755995,401.32993 V 380.82211 Q 81.920058,369.10336 68.248183,369.10336 54.576308,370.07993 47.74037,381.79868 v 19.53125 l 13.671875,18.55468 q 1.953125,2.92969 1.953125,5.85938 v 15.625 q 0,5.85937 -5.859375,9.76562 l -36.132812,20.50782 q -1.953125,0.97656 -4.882813,0.97656 -6.8359372,0 -9.7656247,-4.88281 -0.9765625,-1.95313 -0.9765625,-4.88282 0,-6.83593 4.8828122,-9.76562 l 31.25,-17.57813 v -5.85937 L 28.20912,411.09555 q -1.953125,-1.95312 -1.953125,-5.85937 v -26.36719 q 0,-1.95313 0.976563,-3.90625 5.859375,-10.74219 17.578125,-18.55469 11.71875,-7.8125 23.4375,-8.78906 11.71875,0.97656 23.4375,8.78906 11.718747,6.83594 16.601567,16.60156 1.95312,1.95313 1.95312,4.88282 v 27.34375 q 0,3.90625 -1.95312,5.85937 l -13.67188,18.55469 v 5.85937 l 31.25,17.57813 q 4.88281,3.90625 4.88281,9.76562 0,3.90625 -2.92968,6.83594 -2.92969,2.92969 -7.8125,2.92969 z m 129.88281,-1.95313 q -1.95313,1.95313 -4.88281,1.95313 -2.92969,0 -4.88282,-0.97656 l -36.13281,-20.50782 q -5.85937,-3.90625 -5.85937,-9.76562 v -15.625 q 0,-2.92969 1.95312,-5.85938 L 213.756,401.32993 v -20.50782 q -6.83594,-11.71875 -20.50782,-11.71875 -13.67187,0.97657 -20.50781,12.69532 v 19.53125 l 13.67188,18.55468 q 1.95312,2.92969 1.95312,5.85938 v 15.625 q 0,5.85937 -5.85937,9.76562 l -36.13282,20.50782 q -2.92968,1.95312 -5.85937,1.95312 -4.88281,0 -7.8125,-2.92969 -2.92969,-2.92968 -2.92969,-7.8125 0,-6.83593 5.85938,-9.76562 l 31.25,-17.57813 v -5.85937 l -13.67188,-18.55469 q -1.95312,-1.95312 -1.95312,-5.85937 v -26.36719 q 0,-0.97656 0,-1.95313 0,-0.97656 0,-1.95312 3.90625,-7.8125 10.74218,-13.67188 6.83594,-5.85937 14.64844,-8.78906 8.78906,-3.90625 16.60156,-4.88281 11.71875,0.97656 23.4375,8.78906 11.71875,6.83594 16.60157,16.60156 1.95312,1.95313 1.95312,4.88282 v 27.34375 q 0,3.90625 -1.95312,5.85937 l -13.67188,18.55469 v 5.85937 l 31.25,17.57813 q 4.88281,3.90625 4.88281,9.76562 0,2.92969 -1.95312,4.88282 -0.97656,1.95312 -3.90625,2.92968 z m 120.11719,1.95313 q -2.92969,0 -4.88282,-0.97656 l -36.13281,-20.50782 q -5.85937,-3.90625 -5.85937,-9.76562 v -15.625 q 0,-2.92969 1.95312,-5.85938 L 338.756,401.32993 v -20.50782 q -6.83594,-11.71875 -20.50782,-11.71875 -14.64843,0 -20.50781,12.69532 v 20.50781 l 13.67188,17.57812 q 1.95312,2.92969 1.95312,6.83594 v 15.625 q 0,5.85938 -5.85937,8.78906 l -36.13282,20.50782 q -2.92968,1.95312 -5.85937,1.95312 -4.88281,0 -7.8125,-2.92969 -2.92969,-2.92968 -2.92969,-7.8125 0,-5.85937 5.85938,-8.78906 l 31.25,-18.55469 v -5.85937 l -13.67188,-17.57813 q -1.95312,-2.92968 -1.95312,-6.83593 v -26.36719 q 0,-1.95313 0.97656,-3.90625 3.90625,-6.83594 9.76562,-12.69531 6.83594,-6.83594 14.64844,-9.76563 8.78906,-3.90625 16.60156,-4.88281 11.71875,0.97656 23.4375,8.78906 11.71875,6.83594 16.60157,16.60156 1.95312,1.95313 1.95312,4.88282 v 27.34375 q 0,3.90625 -1.95312,5.85937 l -13.67188,18.55469 v 5.85937 l 31.25,17.57813 q 4.88281,3.90625 4.88281,9.76562 0,3.90625 -2.92968,6.83594 -2.92969,2.92969 -7.8125,2.92969 z m 125,0 q -2.92969,0 -4.88282,-0.97656 l -36.13281,-20.50782 q -5.85937,-3.90625 -5.85937,-9.76562 v -15.625 q 0,-2.92969 1.95312,-5.85938 L 463.756,401.32993 v -20.50782 q -6.83594,-11.71875 -20.50782,-11.71875 -14.64843,0 -20.50781,12.69532 v 20.50781 l 13.67188,17.57812 q 1.95312,2.92969 1.95312,6.83594 v 15.625 q 0,5.85938 -5.85937,8.78906 l -36.13282,20.50782 q -2.92968,1.95312 -5.85937,1.95312 -4.88281,0 -7.8125,-2.92969 -2.92969,-2.92968 -2.92969,-7.8125 0,-5.85937 5.85938,-8.78906 l 31.25,-18.55469 v -5.85937 l -13.67188,-17.57813 q -1.95312,-2.92968 -1.95312,-6.83593 v -26.36719 q 0,-1.95313 0.97656,-3.90625 4.88281,-11.71875 16.60156,-19.53125 12.69531,-7.8125 24.41406,-7.8125 7.8125,0 15.625,3.90625 8.78907,2.92969 14.64844,8.78906 6.83594,5.85938 9.76563,12.69531 1.95312,1.95313 1.95312,4.88282 v 27.34375 q 0,3.90625 -1.95312,5.85937 l -13.67188,18.55469 v 5.85937 l 31.25,17.57813 q 4.88281,3.90625 4.88281,9.76562 0,3.90625 -2.92968,6.83594 -2.92969,2.92969 -7.8125,2.92969 z"
       id="text23"
       style="font-size:500px;line-height:1.2;font-family:jw-icons-external;-inkscape-font-specification:jw-icons-external;letter-spacing:5.8px;word-spacing:0px;stroke:#000000;stroke-opacity:0"
       aria-label="" />
  </g>
</svg>
