<?xml version="1.0" encoding="UTF-8" standalone="no"?>
<!-- Created with Inkscape (http://www.inkscape.org/) -->

<svg
   width="512"
   height="512"
   viewBox="0 0 512 512"
   version="1.1"
   id="svg1"
   inkscape:version="1.4 (e7c3feb1, 2024-10-09)"
   sodipodi:docname="wheat.svg"
   xmlns:inkscape="http://www.inkscape.org/namespaces/inkscape"
   xmlns:sodipodi="http://sodipodi.sourceforge.net/DTD/sodipodi-0.dtd"
   xmlns="http://www.w3.org/2000/svg"
   xmlns:svg="http://www.w3.org/2000/svg">
  <sodipodi:namedview
     id="namedview1"
     pagecolor="#ffffff"
     bordercolor="#000000"
     borderopacity="0.25"
     inkscape:showpageshadow="2"
     inkscape:pageopacity="0.0"
     inkscape:pagecheckerboard="0"
     inkscape:deskcolor="#d1d1d1"
     inkscape:document-units="mm"
     inkscape:zoom="0.63441175"
     inkscape:cx="319.98146"
     inkscape:cy="335.7441"
     inkscape:window-width="1440"
     inkscape:window-height="847"
     inkscape:window-x="0"
     inkscape:window-y="25"
     inkscape:window-maximized="0"
     inkscape:current-layer="layer1"
     showgrid="false"
     showguides="true">
    <inkscape:grid
       id="grid1"
       units="mm"
       originx="0"
       originy="0"
       spacingx="3.7795276"
       spacingy="3.7795276"
       empcolor="#0099e5"
       empopacity="0.30196078"
       color="#0099e5"
       opacity="0.14901961"
       empspacing="5"
       enabled="true"
       visible="false" />
  </sodipodi:namedview>
  <defs
     id="defs1">
    <rect
       x="-99.109596"
       y="454.25232"
       width="887.85681"
       height="396.43839"
       id="rect3" />
    <rect
       x="53.684364"
       y="70.202637"
       width="1763.325"
       height="1788.1024"
       id="rect1" />
  </defs>
  <g
     inkscape:label="Layer 1"
     inkscape:groupmode="layer"
     id="layer1">
    <text
       xml:space="preserve"
       transform="scale(0.27093333)"
       id="text3"
       style="font-style:normal;font-variant:normal;font-weight:normal;font-stretch:normal;font-size:146.667px;line-height:0;font-family:jw-icons-external;-inkscape-font-specification:jw-icons-external;text-align:center;letter-spacing:5.8px;word-spacing:0px;writing-mode:lr-tb;direction:ltr;white-space:pre;shape-inside:url(#rect3);display:inline;fill:#000000;stroke-width:755.906" />
    <path
       d="m 261.37573,99.577547 q -2.91823,2.918223 -6.80919,2.918223 -3.89096,0 -7.78192,-2.918223 -2.91822,-2.918221 -2.91822,-7.781922 V 19.812848 q 0,-4.863701 2.91822,-7.781922 3.89096,-2.9182208 7.78192,-2.9182208 2.91822,0 4.8637,1.9454808 2.91823,0.97274 3.89097,3.890961 1.94548,1.94548 1.94548,4.863701 v 71.982777 q 0,4.863701 -3.89096,7.781922 z m 41.82783,-31.127688 q -2.91823,2.918221 -7.78193,2.918221 -3.89096,0 -6.80918,-2.918221 -2.91822,-2.91822 -2.91822,-7.781921 V 29.54025 q 0,-1.94548 0.97274,-3.890961 0.97274,-1.94548 1.94548,-2.918221 1.94548,-1.94548 2.91822,-1.94548 1.94548,-0.97274 4.8637,-0.97274 3.89096,0 6.80919,2.91822 2.91822,2.918221 2.91822,6.809182 v 31.127688 q 0,4.863701 -2.91822,7.781921 z m -90.46485,2.918221 q -2.91822,0 -4.8637,-0.97274 -1.94548,-1.945481 -3.89096,-3.890961 -0.97274,-2.918221 -0.97274,-5.836441 V 29.54025 q 0,-3.890961 2.91822,-6.809182 2.91822,-2.91822 6.80918,-2.91822 4.8637,0 7.78193,2.91822 2.91822,2.918221 2.91822,6.809182 v 31.127688 q 0,4.863701 -2.91822,7.781921 -2.91823,2.918221 -7.78193,2.918221 z M 234.139,206.57897 q -3.89096,0 -5.83644,-1.94548 L 151.45608,154.051 q -8.75466,-5.83644 -15.56384,-17.50932 -5.83645,-12.64563 -5.83645,-23.34577 V 60.667938 q 0,-3.890961 2.91822,-6.809182 2.91823,-2.918221 7.78193,-2.918221 2.91822,0 5.83644,0.97274 l 75.87374,51.555235 q 8.75466,5.83644 14.5911,18.48206 6.80918,11.67289 6.80918,22.37303 v 51.55523 q 0,5.83644 -4.8637,8.75466 -2.91822,1.94548 -4.8637,1.94548 z M 150.48334,80.122742 v 33.073168 q 1.94548,14.5911 12.64562,23.34577 l 60.3099,39.88235 V 144.3236 q -0.97274,-14.59111 -12.64563,-24.31851 z M 274.99409,206.57897 q -1.94548,0 -4.8637,-1.94548 -4.8637,-2.91822 -4.8637,-8.75466 V 144.3236 q 0,-10.70014 5.83644,-22.37303 6.80918,-12.64562 15.56384,-19.4548 l 75.87374,-50.582495 q 2.91822,-1.94548 5.83644,-1.94548 4.8637,0 7.78192,2.918221 2.91822,2.91822 2.91822,7.781922 v 52.527972 q 0,10.70014 -6.80918,23.34577 -5.83644,11.67288 -13.61836,17.50932 l -77.81922,50.58249 q -1.94548,1.94548 -5.83644,1.94548 z m 83.65566,-126.456228 -60.3099,39.882348 q -11.67288,9.7274 -12.64562,24.31851 v 32.10043 l 60.3099,-39.88235 q 10.70014,-8.75467 12.64562,-23.34577 z M 234.139,331.08972 q -3.89096,0 -5.83644,-1.94548 l -76.84648,-50.58249 q -7.78192,-5.83644 -14.5911,-17.50932 -5.83645,-12.64563 -5.83645,-23.34577 v -52.52797 q 0,-3.89096 2.91822,-6.80918 2.91823,-2.91822 7.78193,-2.91822 2.91822,0 5.83644,0.97274 l 75.87374,51.55523 q 8.75466,5.83644 14.5911,18.48206 6.80918,11.67288 6.80918,22.37303 v 51.55523 q 0,5.83644 -4.8637,8.75466 -2.91822,1.94548 -4.8637,1.94548 z M 150.48334,204.63349 v 33.07317 q 1.94548,14.5911 12.64562,23.34577 l 60.3099,39.88235 v -32.10043 q -0.97274,-14.59111 -12.64563,-24.31851 z m 124.51075,126.45623 q -1.94548,0 -4.8637,-1.94548 -4.8637,-2.91822 -4.8637,-8.75466 v -51.55523 q 0,-5.83644 1.94548,-11.67289 1.94548,-5.83644 4.8637,-11.67288 2.91822,-5.83644 6.80918,-10.70014 3.89096,-4.8637 7.78192,-7.78192 l 75.87374,-50.58249 q 2.91822,-1.94549 5.83644,-1.94549 4.8637,0 7.78192,2.91823 2.91822,2.91822 2.91822,7.78192 v 52.52797 q 0,10.70014 -6.80918,23.34577 -5.83644,11.67288 -13.61836,17.50932 l -76.84648,51.55523 q -1.94548,0.97274 -4.8637,0.97274 -0.97274,0 -1.94548,0 z m 83.65566,-126.45623 -60.3099,39.88235 q -11.67288,9.7274 -12.64562,24.31851 v 32.10043 l 60.3099,-39.88235 q 10.70014,-8.75467 12.64562,-23.34577 z m 14.5911,96.30129 q 5.83644,2.91822 5.83644,8.75466 v 10.70014 q 0,47.66427 -34.0459,84.6284 -33.07317,35.99139 -79.7647,39.88235 v 51.55523 q 0,4.8637 -2.91822,7.78192 -2.91823,2.91822 -7.78193,2.91822 -3.89096,0 -6.80918,-2.91822 -2.91822,-2.91822 -2.91822,-7.78192 v -51.55523 q -47.66427,-3.89096 -81.71018,-39.88235 -33.07317,-36.96413 -33.07317,-84.6284 v -10.70014 q 0,-3.89096 2.91822,-6.80918 2.91823,-2.91823 7.78193,-2.91823 2.91822,0 5.83644,0.97275 l 75.87374,50.58249 q 8.75466,6.80918 14.5911,19.4548 6.80918,11.67288 6.80918,22.37303 v 31.12768 q 5.83644,0 10.70014,0 4.8637,0 10.70015,0 V 393.3451 q 0,-6.80918 2.91822,-14.59111 2.91822,-8.75466 7.78192,-15.56384 4.8637,-6.80918 10.70014,-11.67288 l 75.87374,-50.58249 q 2.91822,-1.94549 5.83644,-1.94549 2.91822,0 4.8637,1.94549 z M 223.43886,419.60908 V 393.3451 q -1.94548,-14.59111 -12.64563,-24.31851 l -60.30989,-38.90961 q 2.91822,28.20947 24.3185,54.47346 21.40029,26.26398 48.63702,35.01864 z m 62.25537,0 q 27.23673,-8.75466 48.63701,-35.01864 21.40029,-26.26399 24.31851,-54.47346 l -60.3099,38.90961 q -11.67288,9.7274 -12.64562,24.31851 z"
       id="text1"
       style="font-size:498.043px;line-height:0;font-family:jw-icons-external;-inkscape-font-specification:jw-icons-external;text-align:center;letter-spacing:16.6654px;word-spacing:0px;text-anchor:middle;stroke-width:2171.97"
       inkscape:transform-center-x="208.33995"
       inkscape:transform-center-y="167.57791"
       aria-label="" />
  </g>
</svg>
