<?xml version="1.0" encoding="UTF-8" standalone="no"?>
<!-- Created with Inkscape (http://www.inkscape.org/) -->

<svg
   width="512"
   height="512"
   viewBox="0 0 512 512"
   version="1.1"
   id="svg1"
   inkscape:version="1.4 (e7c3feb1, 2024-10-09)"
   sodipodi:docname="work.svg"
   xmlns:inkscape="http://www.inkscape.org/namespaces/inkscape"
   xmlns:sodipodi="http://sodipodi.sourceforge.net/DTD/sodipodi-0.dtd"
   xmlns="http://www.w3.org/2000/svg"
   xmlns:svg="http://www.w3.org/2000/svg">
  <sodipodi:namedview
     id="namedview1"
     pagecolor="#ffffff"
     bordercolor="#000000"
     borderopacity="0.25"
     inkscape:showpageshadow="2"
     inkscape:pageopacity="0.0"
     inkscape:pagecheckerboard="0"
     inkscape:deskcolor="#d1d1d1"
     inkscape:document-units="mm"
     inkscape:zoom="0.45394329"
     inkscape:cx="42.956908"
     inkscape:cy="296.29252"
     inkscape:window-width="1440"
     inkscape:window-height="872"
     inkscape:window-x="0"
     inkscape:window-y="28"
     inkscape:window-maximized="0"
     inkscape:current-layer="layer1" />
  <defs
     id="defs1">
    <rect
       x="-565.05473"
       y="1313.1998"
       width="312.51631"
       height="186.24709"
       id="rect18" />
    <rect
       x="969.52799"
       y="405.43898"
       width="8849.1464"
       height="7562.3184"
       id="rect17" />
    <rect
       x="706.79119"
       y="232.00016"
       width="2654.5135"
       height="2012.4665"
       id="rect16" />
    <rect
       x="-604.24005"
       y="1404.9918"
       width="13.368143"
       height="28.0731"
       id="rect15" />
    <rect
       x="-6320.921"
       y="2061.5927"
       width="8032.4319"
       height="5173.4307"
       id="rect14" />
    <rect
       x="-5873.5943"
       y="1789.3069"
       width="8752.0445"
       height="8051.8809"
       id="rect13" />
    <rect
       x="-5562.4105"
       y="1361.4291"
       width="8401.9627"
       height="4920.5939"
       id="rect12" />
    <rect
       x="-957.89726"
       y="1529.5456"
       width="7647.7281"
       height="4279.6377"
       id="rect11" />
    <rect
       x="-99.109596"
       y="454.25232"
       width="887.85681"
       height="396.43839"
       id="rect3" />
    <rect
       x="53.684364"
       y="70.202637"
       width="1763.325"
       height="1788.1024"
       id="rect1" />
  </defs>
  <g
     inkscape:label="Layer 1"
     inkscape:groupmode="layer"
     id="layer1">
    <text
       xml:space="preserve"
       transform="scale(0.27093333)"
       id="text3"
       style="font-style:normal;font-variant:normal;font-weight:normal;font-stretch:normal;font-size:146.667px;line-height:0;font-family:jw-icons-external;-inkscape-font-specification:jw-icons-external;text-align:center;letter-spacing:5.8px;word-spacing:0px;writing-mode:lr-tb;direction:ltr;white-space:pre;shape-inside:url(#rect3);display:inline;fill:#000000;fill-opacity:1;stroke-width:755.906" />
    <text
       xml:space="preserve"
       style="font-size:173.333px;line-height:0;font-family:jw-icons-external;-inkscape-font-specification:jw-icons-external;text-align:center;letter-spacing:5.8px;word-spacing:0px;writing-mode:lr-tb;direction:ltr;text-anchor:middle;fill:#000000;stroke:#000000;stroke-opacity:0;fill-opacity:1"
       x="-622.14398"
       y="1067.8145"
       id="text7"><tspan
         sodipodi:role="line"
         id="tspan7"
         x="-622.14398"
         y="1067.8145" /><tspan
         sodipodi:role="line"
         id="tspan8"
         x="-622.14398"
         y="1067.8145" /><tspan
         sodipodi:role="line"
         x="-622.14398"
         y="1067.8145"
         id="tspan9" /><tspan
         sodipodi:role="line"
         x="-622.14398"
         y="1067.8145"
         id="tspan10" /></text>
    <text
       xml:space="preserve"
       id="text11"
       style="font-size:173.333px;line-height:0;font-family:jw-icons-external;-inkscape-font-specification:jw-icons-external;text-align:center;letter-spacing:5.8px;word-spacing:0px;writing-mode:lr-tb;direction:ltr;white-space:pre;shape-inside:url(#rect11);display:inline;fill:#000000;fill-opacity:1;stroke:#000000;stroke-opacity:0" />
    <text
       xml:space="preserve"
       id="text13"
       style="font-size:173.333px;line-height:0;font-family:jw-icons-external;-inkscape-font-specification:jw-icons-external;text-align:center;letter-spacing:5.8px;word-spacing:0px;writing-mode:lr-tb;direction:ltr;white-space:pre;shape-inside:url(#rect13);display:inline;fill:#000000;fill-opacity:1;stroke:#000000;stroke-opacity:0" />
    <text
       xml:space="preserve"
       id="text14"
       style="font-size:16px;line-height:0;font-family:jw-icons-external;-inkscape-font-specification:jw-icons-external;text-align:start;letter-spacing:5.8px;word-spacing:0px;writing-mode:lr-tb;direction:ltr;white-space:pre;shape-inside:url(#rect15);display:inline;fill:#000000;fill-opacity:1;stroke:#000000;stroke-opacity:0" />
    <text
       xml:space="preserve"
       id="text15"
       style="font-size:16px;line-height:0;font-family:jw-icons-external;-inkscape-font-specification:jw-icons-external;text-align:start;letter-spacing:5.8px;word-spacing:0px;writing-mode:lr-tb;direction:ltr;white-space:pre;shape-inside:url(#rect16);display:inline;fill:#000000;fill-opacity:1;stroke:#000000;stroke-opacity:0" />
    <text
       xml:space="preserve"
       id="text16"
       style="font-size:16px;line-height:1.5;font-family:jw-icons-external;-inkscape-font-specification:jw-icons-external;text-align:start;letter-spacing:5.8px;word-spacing:0px;writing-mode:lr-tb;direction:ltr;white-space:pre;shape-inside:url(#rect17);display:inline;fill:#000000;fill-opacity:1;stroke:#000000;stroke-opacity:0" />
    <text
       xml:space="preserve"
       id="text17"
       style="font-size:16px;line-height:1.5;font-family:jw-icons-external;-inkscape-font-specification:jw-icons-external;text-align:start;letter-spacing:5.8px;word-spacing:0px;writing-mode:lr-tb;direction:ltr;white-space:pre;shape-inside:url(#rect18);display:inline;fill:#000000;fill-opacity:1;stroke:#000000;stroke-opacity:0" />
    <text
       xml:space="preserve"
       style="font-size:533.333px;line-height:1.2;font-family:jw-icons-external;-inkscape-font-specification:jw-icons-external;text-align:start;letter-spacing:5.8px;word-spacing:0px;writing-mode:lr-tb;direction:ltr;text-anchor:start;fill:#000000;stroke:#000000;stroke-opacity:0;fill-opacity:1"
       x="143.7877"
       y="307.89322"
       id="text20"><tspan
         sodipodi:role="line"
         id="tspan19" /></text>
    <text
       xml:space="preserve"
       style="font-size:500px;line-height:73.9;font-family:jw-icons-external;-inkscape-font-specification:jw-icons-external;text-align:start;letter-spacing:-10.72px;word-spacing:0px;writing-mode:lr-tb;direction:ltr;text-anchor:start;fill:#000000;fill-opacity:1;stroke:#000000;stroke-opacity:0"
       x="63.884632"
       y="438.38074"
       id="text1"><tspan
         sodipodi:role="line"
         id="tspan1"></tspan></text>
    <path
       d="M 495.86657,458.02505 H 17.350942 q -4.882812,0 -7.8124999,-2.92968 -2.9296875,-2.92969 -2.9296875,-6.83594 v -47.85156 q 0,-4.88282 2.9296875,-7.8125 2.9296879,-2.92969 7.8124999,-2.92969 H 31.99938 q 10.742187,-106.44531 83.00781,-156.25 27.34375,-19.53125 62.5,-28.32031 36.13281,-9.76563 64.45313,-10.74219 29.29687,-0.97656 59.57031,2.92969 30.27344,2.92968 41.99219,5.85937 11.71875,1.95313 19.53125,3.90625 5.85937,1.95313 6.83593,6.83594 l 41.99219,128.90625 88.86719,47.85156 q 5.85937,2.92969 5.85937,9.76563 v 47.85156 q 0,3.90625 -2.92968,6.83594 -2.92969,2.92968 -7.8125,2.92968 z M 27.116567,437.51724 H 486.10094 v -31.25 l -86.91406,-47.85156 q -3.90625,-1.95313 -4.88281,-5.85938 L 352.31188,225.60318 q -16.60156,-3.90625 -37.10938,-5.85938 -20.50781,-2.92968 -54.6875,-3.90625 -34.17968,-1.95312 -70.3125,6.83594 -36.13281,8.78906 -63.47656,28.32031 -66.406248,45.89844 -75.19531,149.41407 -0.976563,9.76562 -10.742188,9.76562 H 27.116567 Z M 361.10094,409.19693 H 89.616567 q -3.90625,0 -6.835937,-2.92969 -2.929688,-2.92969 -2.929688,-6.83594 0,-4.88281 2.929688,-7.8125 2.929687,-2.92968 6.835937,-2.92968 H 361.10094 q 3.90625,0 6.83594,2.92968 2.92969,2.92969 2.92969,7.8125 0,3.90625 -2.92969,6.83594 -2.92969,2.92969 -6.83594,2.92969 z M 134.53844,291.03287 q -3.90625,0 -6.83594,-2.92969 -2.92968,-2.92969 -2.92968,-7.8125 0,-5.85938 4.88281,-8.78906 21.48437,-11.71875 53.71094,-19.53125 32.22656,-8.78907 56.64062,-8.78907 41.01563,0 80.07813,13.67188 5.85937,2.92969 5.85937,9.76562 0,2.92969 -1.95312,5.85938 -0.97657,1.95312 -2.92969,3.90625 -1.95313,0.97656 -4.88281,0.97656 -1.95313,0 -3.90625,-0.97656 -35.15625,-12.69531 -72.26563,-12.69531 -21.48437,0 -51.75781,7.8125 -29.29688,7.8125 -47.85156,18.55468 -2.92969,0.97657 -5.85938,0.97657 z M 56.413442,203.14224 q -5.859375,0 -8.789062,-4.88281 L 13.444692,146.50162 q -0.976562,-2.92969 -0.976562,-5.85938 0,-5.85937 4.882812,-8.78906 L 51.53063,109.39224 q 2.929687,-1.95312 5.859375,-1.95312 0.976562,0 1.953125,0 l 10.742187,1.95312 1.953125,-0.97656 3.90625,-11.71875 q 0.976563,-3.90625 3.90625,-5.859375 l 41.992188,-27.34375 q 19.53125,-11.71875 42.96875,-11.71875 11.71875,0 23.4375,2.929687 32.22656,13.671875 53.71094,41.015625 1.95312,2.929688 1.95312,6.835933 0,2.92969 -0.97656,5.85938 -2.92969,4.88281 -8.78906,4.88281 -0.97657,0 -1.95313,-0.97656 -10.74219,-1.95313 -21.48437,-1.95313 -21.48438,0 -41.01563,8.78907 l -7.8125,5.85937 22.46094,35.15625 q 1.95312,1.95313 1.95312,4.88281 0,2.92969 -1.95312,4.88282 l 4.88281,6.83593 q 0.97656,2.92969 0.97656,5.85938 0,3.90625 -2.92968,7.8125 -2.92969,2.92969 -6.83594,2.92969 -5.85938,0 -8.78906,-4.88282 l -9.76563,-14.64843 q -0.97656,-2.92969 -0.97656,-5.85938 0,-1.95312 0.97656,-4.88281 l -23.4375,-36.13281 q -1.95312,-1.95313 -1.95312,-4.88282 0,-5.85937 4.88281,-8.78906 l 17.57812,-11.71875 q 21.48438,-11.718748 44.92188,-11.718748 1.95312,0 2.92969,0 -11.71875,-9.765625 -26.36719,-15.625 -7.8125,-1.953125 -15.625,-1.953125 -16.60156,0 -32.22656,8.789063 l -38.08594,25.39062 -3.90625,11.71875 q -0.976563,3.90625 -3.90625,5.85938 l -8.789063,5.85937 q -2.929687,0.97657 -5.859375,0.97657 -0.976562,0 -1.953125,0 l -10.742187,-1.95313 -22.460938,14.64844 22.460938,35.15625 22.460937,-14.64844 2.929688,-10.74219 q 0.976562,-3.90625 3.90625,-5.85937 l 17.578125,-11.71875 q 2.92969,-1.95313 5.85937,-1.95313 0.97657,0 1.95313,0 4.88281,0.97657 6.83594,4.88282 l 23.4375,36.13281 q 0,0 0.97656,0 4.88281,0 7.8125,4.88281 l 4.88281,6.83594 q 1.95313,2.92969 1.95313,5.85937 0,3.90625 -3.90625,6.83594 -2.92969,2.92969 -6.83594,2.92969 -4.88281,0 -7.8125,-3.90625 -0.97656,0 -0.97656,0 -5.85938,0 -8.78907,-4.88281 l -22.46093,-34.17969 -4.88282,2.92969 -2.92968,10.74218 q 0,3.90625 -3.906253,5.85938 l -35.15625,22.46094 q -2.929687,1.95312 -5.859375,1.95312 z M 371.84313,544.93912 q -5.85938,0 -8.78906,-4.88282 l -36.13282,-55.66406 q -1.95312,-1.95312 -1.95312,-4.88281 0,-4.88281 2.92969,-7.8125 3.90625,-2.92969 7.8125,-2.92969 5.85937,0 8.78906,4.88281 l 30.27344,46.875 8.78906,-5.85937 -19.53125,-30.27344 q -1.95313,-1.95312 -1.95313,-4.88281 0,-4.88281 2.92969,-7.8125 3.90625,-2.92969 7.8125,-2.92969 5.85938,0 8.78906,4.88281 l 25.39063,38.08594 q 0.97656,2.92969 0.97656,5.85938 0,5.85937 -3.90625,8.78906 l -26.36719,17.57812 q -2.92968,0.97657 -5.85937,0.97657 z"
       id="text2"
       style="font-size:500px;line-height:73.9;font-family:jw-icons-external;-inkscape-font-specification:jw-icons-external;letter-spacing:-10.72px;word-spacing:0px;stroke:#000000;stroke-opacity:0"
       aria-label="" />
  </g>
</svg>
